<svg xmlns="http://www.w3.org/2000/svg" x="0px" y="0px"
width="30" height="30"
viewBox="0 0 172 172"
style=" fill:#000000;"><g fill="none" fill-rule="nonzero" stroke="none" stroke-width="1" stroke-linecap="butt" stroke-linejoin="miter" stroke-miterlimit="10" stroke-dasharray="" stroke-dashoffset="0" font-family="none" font-weight="none" font-size="none" text-anchor="none" style="mix-blend-mode: normal"><path d="M0,172v-172h172v172z" fill="none"></path><g fill="#ffffff"><path d="M114.66667,17.2v22.93333h-40.13333c-28.36209,0 -51.6,23.23791 -51.6,51.6c0.00027,1.53502 0.30871,3.05436 0.90703,4.46797c0,0.00373 0,0.00746 0,0.0112c2.3988,26.18261 23.91594,47.12083 50.69297,47.12083h17.2c4.13529,0.05848 7.98173,-2.11417 10.06645,-5.68601c2.08471,-3.57184 2.08471,-7.98948 0,-11.56132c-2.08471,-3.57184 -5.93115,-5.74449 -10.06645,-5.68601h-17.2c-15.96804,0 -28.66667,-12.69862 -28.66667,-28.66667c0,-15.96804 12.69862,-28.66667 28.66667,-28.66667h40.13333v22.93333l34.4,-34.4z"></path></g></g></svg>