<svg xmlns="http://www.w3.org/2000/svg" x="0px" y="0px"
width="30" height="30"
viewBox="0 0 172 172"
style=" fill:#000000;"><g fill="none" fill-rule="nonzero" stroke="none" stroke-width="1" stroke-linecap="butt" stroke-linejoin="miter" stroke-miterlimit="10" stroke-dasharray="" stroke-dashoffset="0" font-family="none" font-weight="none" font-size="none" text-anchor="none" style="mix-blend-mode: normal"><path d="M0,172v-172h172v172z" fill="none"></path><g fill="#ffffff"><path d="M57.33333,17.2l-34.4,34.4l34.4,34.4v-22.93333h40.13333c15.96804,0 28.66667,12.69862 28.66667,28.66667c0,15.96804 -12.69862,28.66667 -28.66667,28.66667h-17.2c-4.13529,-0.05848 -7.98173,2.11417 -10.06645,5.68601c-2.08471,3.57184 -2.08471,7.98948 0,11.56132c2.08471,3.57184 5.93115,5.74449 10.06645,5.68601h17.2c26.80064,0 48.33823,-20.97241 50.70417,-47.18802c0.58719,-1.39702 0.89166,-2.89657 0.89583,-4.41198c0,-28.36209 -23.23791,-51.6 -51.6,-51.6h-40.13333z"></path></g></g></svg>