<svg xmlns="http://www.w3.org/2000/svg" xmlns:xlink="http://www.w3.org/1999/xlink" width="310" height="310" viewBox="0 0 310 310">
  <defs>
    <filter id="Ellipse_1" x="0" y="0" width="310" height="310" filterUnits="userSpaceOnUse">
      <feOffset dy="10" input="SourceAlpha"/>
      <feGaussianBlur stdDeviation="15" result="blur"/>
      <feFlood flood-opacity="0.161"/>
      <feComposite operator="in" in2="blur"/>
      <feComposite in="SourceGraphic"/>
    </filter>
  </defs>
  <g id="icon-live-storage-v1" transform="translate(-3715 1565)">
    <g transform="matrix(1, 0, 0, 1, 3715, -1565)" filter="url(#Ellipse_1)">
      <circle id="Ellipse_1-2" data-name="Ellipse 1" cx="110" cy="110" r="110" transform="translate(45 35)" fill="#fff"/>
    </g>
    <g id="r-kpi-1" transform="translate(2930 -1822)">
      <g id="Ellipse_1-3" data-name="Ellipse 1" transform="translate(845 307)" fill="#2cd9c5" stroke="#2cd9c5" stroke-width="5">
        <circle cx="95" cy="95" r="95" stroke="none"/>
        <circle cx="95" cy="95" r="92.5" fill="none"/>
      </g>
      <g id="Layer_2" data-name="Layer 2" transform="translate(484.91 -156.106)">
        <g id="Layer_1" data-name="Layer 1" transform="translate(408.09 518.106)">
          <g id="Path_408" data-name="Path 408">
            <path id="Path_430" data-name="Path 430" d="M427.36,518.106v79.907h32.106l-18.151-79.907Z" transform="translate(-397.696 -518.105)" fill="#fff"/>
            <path id="Union_2" data-name="Union 2" d="M-2320.842-3679.368l-8.433-8.487a2.889,2.889,0,0,1,0-4.066,2.846,2.846,0,0,1,2.021-.842,2.847,2.847,0,0,1,2.021.842l3.556,3.58v-16.325a2.05,2.05,0,0,1,.012-.275,2.052,2.052,0,0,0-.012-.277v-40.965l-3.556,3.579a2.847,2.847,0,0,1-2.021.842,2.847,2.847,0,0,1-2.021-.842,2.889,2.889,0,0,1,0-4.067l8.433-8.486a2.85,2.85,0,0,1,2.02-.842,2.846,2.846,0,0,1,2.02.842l8.433,8.485a2.887,2.887,0,0,1,0,4.065,2.84,2.84,0,0,1-2.02.843,2.841,2.841,0,0,1-2.02-.843l-3.555-3.579v40.965a1.862,1.862,0,0,1-.014.277,1.81,1.81,0,0,0,.014.275v16.325l3.555-3.578a2.837,2.837,0,0,1,2.02-.842,2.839,2.839,0,0,1,2.02.842,2.888,2.888,0,0,1,0,4.066l-8.433,8.487a2.846,2.846,0,0,1-2.02.841,2.847,2.847,0,0,1-2.02-.841Z" transform="translate(2330.112 3756)" fill="#fff"/>
          </g>
          <g id="Path_409" data-name="Path 409" transform="translate(60.107 51.295)">
            <path id="Path_431" data-name="Path 431" d="M456.68,557c.637,0,.871.274,1.385.871a3.955,3.955,0,0,0,6.786,0c.511-.6.745-.871,1.385-.871s.871.274,1.385.871a3.958,3.958,0,0,0,6.789,0c.511-.6.742-.871,1.385-.871v-5.568a4.349,4.349,0,0,0-3.387,1.923c-.511.6-.742.871-1.385.871s-.871-.274-1.385-.871a3.955,3.955,0,0,0-6.786,0c-.514.6-.745.871-1.385.871s-.868-.274-1.385-.871a3.958,3.958,0,0,0-6.789,0c-.508.6-.742.871-1.385.871s-.874-.274-1.385-.871a4.336,4.336,0,0,0-3.387-1.923V557c.64,0,.871.271,1.385.867a3.955,3.955,0,0,0,6.786,0c.511-.6.745-.871,1.385-.871Z" transform="translate(-447.136 -551.427)" fill="#fff"/>
          </g>
          <g id="Path_410" data-name="Path 410" transform="translate(64.936 65.795)">
            <path id="Path_432" data-name="Path 432" d="M474.164,563.655c-.64,0-.874-.274-1.385-.871a3.958,3.958,0,0,0-6.789,0c-.511.6-.742.871-1.385.871s-.868-.274-1.385-.867a3.956,3.956,0,0,0-6.789,0c-.508.6-.742.871-1.385.871s-.871-.274-1.385-.871a4.341,4.341,0,0,0-3.387-1.923v5.568c.637,0,.871.274,1.385.871a3.955,3.955,0,0,0,6.786,0c.511-.6.742-.871,1.385-.871s.871.274,1.385.871a3.955,3.955,0,0,0,6.786,0c.511-.6.745-.871,1.385-.871s.871.274,1.385.871a3.958,3.958,0,0,0,6.789,0c.511-.6.742-.871,1.386-.871v-5.588a4.348,4.348,0,0,0-3.394,1.923c-.511.6-.745.871-1.385.871Z" transform="translate(-450.273 -560.846)" fill="#fff"/>
          </g>
        </g>
      </g>
    </g>
  </g>
</svg>
