<svg width="121" height="207" viewBox="0 0 121 207" fill="none" xmlns="http://www.w3.org/2000/svg">
<rect width="121" height="207" fill="#F5F5F5"/>
<g id="Legends">
<rect width="121" height="206.898" rx="4" fill="white"/>
<g id="Frame 6">
<g id="Frame 2">
<circle id="Ellipse 1" cx="21" cy="21" r="9.5" fill="#82FFE6" stroke="#2F42C1"/>
<text id="Reservoir" fill="black" xml:space="preserve" style="white-space: pre" font-family="Roboto" font-size="14" letter-spacing="0em"><tspan x="40" y="26.7852">Reservoir</tspan></text>
</g>
<g id="Frame 3">
<rect id="Rectangle 62" x="11.5" y="45.5" width="19" height="19" fill="#E1FDF8" stroke="#FFA114"/>
<text id="Demand" fill="black" xml:space="preserve" style="white-space: pre" font-family="Roboto" font-size="14" letter-spacing="0em"><tspan x="40" y="60.7852">Demand</tspan></text>
</g>
<g id="Frame 4">
<g id="Frame 5" clip-path="url(#clip0_2332_21860)">
<rect id="Rectangle 63" x="17" y="81" width="8" height="18" fill="#CD0F0F"/>
</g>
<text id="Anicut" fill="black" xml:space="preserve" style="white-space: pre" font-family="Roboto" font-size="14" letter-spacing="0em"><tspan x="40" y="93.7852">Anicut</tspan></text>
</g>
<g id="Frame 7">
<line id="Line 3" x1="12" y1="120.5" x2="30" y2="120.5" stroke="#6BC1E5" stroke-width="3"/>
<text id="River" fill="black" xml:space="preserve" style="white-space: pre" font-family="Roboto" font-size="14" letter-spacing="0em"><tspan x="40" y="126.785">River</tspan></text>
</g>
<g id="Frame 8">
<line id="Line 3_2" x1="12" y1="152.5" x2="30" y2="152.5" stroke="#ACE211" stroke-width="3"/>
<text id="Canal" fill="black" xml:space="preserve" style="white-space: pre" font-family="Roboto" font-size="14" letter-spacing="0em"><tspan x="40" y="158.785">Canal</tspan></text>
</g>
<g id="Frame 9">
<g id="inflow_poondi_icon" filter="url(#filter0_d_2332_21860)">
<mask id="path-12-inside-1_2332_21860" fill="white">
<path d="M16.6722 190.406C16.7423 190.429 16.8072 190.466 16.863 190.515C16.9188 190.563 16.9646 190.622 16.9976 190.688C17.0306 190.754 17.0503 190.826 17.0555 190.9C17.0606 190.974 17.0512 191.048 17.0278 191.118L16.4652 192.806C16.414 192.942 16.312 193.053 16.1806 193.115C16.0493 193.178 15.8988 193.187 15.7607 193.141C15.6227 193.095 15.5078 192.998 15.4403 192.869C15.3728 192.74 15.3578 192.59 15.3985 192.45L15.9611 190.762C16.0081 190.621 16.1095 190.504 16.2428 190.437C16.3762 190.37 16.5306 190.359 16.6722 190.406ZM23.4231 190.406C23.4932 190.429 23.558 190.466 23.6139 190.515C23.6697 190.563 23.7154 190.622 23.7484 190.688C23.7815 190.754 23.8011 190.826 23.8063 190.9C23.8115 190.974 23.8021 191.048 23.7786 191.118L23.216 192.806C23.1648 192.942 23.0628 193.053 22.9315 193.115C22.8001 193.178 22.6496 193.187 22.5116 193.141C22.3735 193.095 22.2587 192.998 22.1912 192.869C22.1236 192.74 22.1087 192.59 22.1494 192.45L22.712 190.762C22.759 190.621 22.8603 190.504 22.9937 190.437C23.127 190.37 23.2815 190.359 23.4231 190.406ZM19.4851 192.093C19.5552 192.117 19.62 192.154 19.6759 192.202C19.7317 192.251 19.7774 192.31 19.8105 192.376C19.8435 192.442 19.8631 192.514 19.8683 192.588C19.8735 192.661 19.8641 192.736 19.8406 192.806L19.278 194.493C19.2268 194.63 19.1248 194.741 18.9935 194.803C18.8621 194.866 18.7116 194.875 18.5736 194.829C18.4355 194.783 18.3207 194.685 18.2532 194.556C18.1856 194.428 18.1707 194.277 18.2114 194.138L18.774 192.45C18.821 192.308 18.9223 192.191 19.0557 192.124C19.189 192.058 19.3435 192.046 19.4851 192.093ZM26.2359 192.093C26.306 192.117 26.3709 192.154 26.4267 192.202C26.4825 192.251 26.5283 192.31 26.5613 192.376C26.5943 192.442 26.614 192.514 26.6192 192.588C26.6243 192.661 26.6149 192.736 26.5915 192.806L26.0289 194.493C26.0077 194.566 25.9721 194.634 25.9241 194.692C25.8762 194.751 25.8169 194.799 25.7499 194.834C25.6829 194.869 25.6095 194.89 25.534 194.897C25.4586 194.903 25.3827 194.893 25.3109 194.87C25.2391 194.846 25.1729 194.807 25.1162 194.757C25.0595 194.707 25.0135 194.646 24.981 194.578C24.9484 194.509 24.93 194.435 24.9268 194.36C24.9235 194.284 24.9356 194.209 24.9623 194.138L25.5248 192.45C25.5718 192.308 25.6732 192.191 25.8065 192.124C25.9399 192.058 26.0943 192.046 26.2359 192.093ZM27.0764 182.532C26.8427 181.354 26.2384 180.282 25.3518 179.472C24.4651 178.662 23.3427 178.157 22.1485 178.031C20.9544 177.905 19.7512 178.164 18.7149 178.771C17.6785 179.377 16.8634 180.299 16.3887 181.402C15.8563 181.341 15.317 181.389 14.8038 181.543C14.2906 181.698 13.8143 181.955 13.4041 182.3C12.9939 182.645 12.6584 183.07 12.4181 183.549C12.1778 184.028 12.0378 184.551 12.0067 185.086C11.9755 185.621 12.0539 186.156 12.237 186.66C12.4201 187.164 12.7041 187.625 13.0716 188.015C13.439 188.405 13.8822 188.716 14.3741 188.929C14.8659 189.141 15.396 189.252 15.9319 189.252H26.6207C27.4771 189.253 28.3018 188.929 28.9278 188.345C29.5538 187.76 29.9343 186.96 29.9923 186.105C30.0502 185.251 29.7812 184.406 29.2398 183.743C28.6984 183.079 27.925 182.647 27.0764 182.532V182.532Z"/>
</mask>
<path d="M16.6722 190.406C16.7423 190.429 16.8072 190.466 16.863 190.515C16.9188 190.563 16.9646 190.622 16.9976 190.688C17.0306 190.754 17.0503 190.826 17.0555 190.9C17.0606 190.974 17.0512 191.048 17.0278 191.118L16.4652 192.806C16.414 192.942 16.312 193.053 16.1806 193.115C16.0493 193.178 15.8988 193.187 15.7607 193.141C15.6227 193.095 15.5078 192.998 15.4403 192.869C15.3728 192.74 15.3578 192.59 15.3985 192.45L15.9611 190.762C16.0081 190.621 16.1095 190.504 16.2428 190.437C16.3762 190.37 16.5306 190.359 16.6722 190.406ZM23.4231 190.406C23.4932 190.429 23.558 190.466 23.6139 190.515C23.6697 190.563 23.7154 190.622 23.7484 190.688C23.7815 190.754 23.8011 190.826 23.8063 190.9C23.8115 190.974 23.8021 191.048 23.7786 191.118L23.216 192.806C23.1648 192.942 23.0628 193.053 22.9315 193.115C22.8001 193.178 22.6496 193.187 22.5116 193.141C22.3735 193.095 22.2587 192.998 22.1912 192.869C22.1236 192.74 22.1087 192.59 22.1494 192.45L22.712 190.762C22.759 190.621 22.8603 190.504 22.9937 190.437C23.127 190.37 23.2815 190.359 23.4231 190.406ZM19.4851 192.093C19.5552 192.117 19.62 192.154 19.6759 192.202C19.7317 192.251 19.7774 192.31 19.8105 192.376C19.8435 192.442 19.8631 192.514 19.8683 192.588C19.8735 192.661 19.8641 192.736 19.8406 192.806L19.278 194.493C19.2268 194.63 19.1248 194.741 18.9935 194.803C18.8621 194.866 18.7116 194.875 18.5736 194.829C18.4355 194.783 18.3207 194.685 18.2532 194.556C18.1856 194.428 18.1707 194.277 18.2114 194.138L18.774 192.45C18.821 192.308 18.9223 192.191 19.0557 192.124C19.189 192.058 19.3435 192.046 19.4851 192.093ZM26.2359 192.093C26.306 192.117 26.3709 192.154 26.4267 192.202C26.4825 192.251 26.5283 192.31 26.5613 192.376C26.5943 192.442 26.614 192.514 26.6192 192.588C26.6243 192.661 26.6149 192.736 26.5915 192.806L26.0289 194.493C26.0077 194.566 25.9721 194.634 25.9241 194.692C25.8762 194.751 25.8169 194.799 25.7499 194.834C25.6829 194.869 25.6095 194.89 25.534 194.897C25.4586 194.903 25.3827 194.893 25.3109 194.87C25.2391 194.846 25.1729 194.807 25.1162 194.757C25.0595 194.707 25.0135 194.646 24.981 194.578C24.9484 194.509 24.93 194.435 24.9268 194.36C24.9235 194.284 24.9356 194.209 24.9623 194.138L25.5248 192.45C25.5718 192.308 25.6732 192.191 25.8065 192.124C25.9399 192.058 26.0943 192.046 26.2359 192.093ZM27.0764 182.532C26.8427 181.354 26.2384 180.282 25.3518 179.472C24.4651 178.662 23.3427 178.157 22.1485 178.031C20.9544 177.905 19.7512 178.164 18.7149 178.771C17.6785 179.377 16.8634 180.299 16.3887 181.402C15.8563 181.341 15.317 181.389 14.8038 181.543C14.2906 181.698 13.8143 181.955 13.4041 182.3C12.9939 182.645 12.6584 183.07 12.4181 183.549C12.1778 184.028 12.0378 184.551 12.0067 185.086C11.9755 185.621 12.0539 186.156 12.237 186.66C12.4201 187.164 12.7041 187.625 13.0716 188.015C13.439 188.405 13.8822 188.716 14.3741 188.929C14.8659 189.141 15.396 189.252 15.9319 189.252H26.6207C27.4771 189.253 28.3018 188.929 28.9278 188.345C29.5538 187.76 29.9343 186.96 29.9923 186.105C30.0502 185.251 29.7812 184.406 29.2398 183.743C28.6984 183.079 27.925 182.647 27.0764 182.532V182.532Z" fill="#8CC4E3"/>
<path d="M16.6722 190.406C16.7423 190.429 16.8072 190.466 16.863 190.515C16.9188 190.563 16.9646 190.622 16.9976 190.688C17.0306 190.754 17.0503 190.826 17.0555 190.9C17.0606 190.974 17.0512 191.048 17.0278 191.118L16.4652 192.806C16.414 192.942 16.312 193.053 16.1806 193.115C16.0493 193.178 15.8988 193.187 15.7607 193.141C15.6227 193.095 15.5078 192.998 15.4403 192.869C15.3728 192.74 15.3578 192.59 15.3985 192.45L15.9611 190.762C16.0081 190.621 16.1095 190.504 16.2428 190.437C16.3762 190.37 16.5306 190.359 16.6722 190.406ZM23.4231 190.406C23.4932 190.429 23.558 190.466 23.6139 190.515C23.6697 190.563 23.7154 190.622 23.7484 190.688C23.7815 190.754 23.8011 190.826 23.8063 190.9C23.8115 190.974 23.8021 191.048 23.7786 191.118L23.216 192.806C23.1648 192.942 23.0628 193.053 22.9315 193.115C22.8001 193.178 22.6496 193.187 22.5116 193.141C22.3735 193.095 22.2587 192.998 22.1912 192.869C22.1236 192.74 22.1087 192.59 22.1494 192.45L22.712 190.762C22.759 190.621 22.8603 190.504 22.9937 190.437C23.127 190.37 23.2815 190.359 23.4231 190.406ZM19.4851 192.093C19.5552 192.117 19.62 192.154 19.6759 192.202C19.7317 192.251 19.7774 192.31 19.8105 192.376C19.8435 192.442 19.8631 192.514 19.8683 192.588C19.8735 192.661 19.8641 192.736 19.8406 192.806L19.278 194.493C19.2268 194.63 19.1248 194.741 18.9935 194.803C18.8621 194.866 18.7116 194.875 18.5736 194.829C18.4355 194.783 18.3207 194.685 18.2532 194.556C18.1856 194.428 18.1707 194.277 18.2114 194.138L18.774 192.45C18.821 192.308 18.9223 192.191 19.0557 192.124C19.189 192.058 19.3435 192.046 19.4851 192.093ZM26.2359 192.093C26.306 192.117 26.3709 192.154 26.4267 192.202C26.4825 192.251 26.5283 192.31 26.5613 192.376C26.5943 192.442 26.614 192.514 26.6192 192.588C26.6243 192.661 26.6149 192.736 26.5915 192.806L26.0289 194.493C26.0077 194.566 25.9721 194.634 25.9241 194.692C25.8762 194.751 25.8169 194.799 25.7499 194.834C25.6829 194.869 25.6095 194.89 25.534 194.897C25.4586 194.903 25.3827 194.893 25.3109 194.87C25.2391 194.846 25.1729 194.807 25.1162 194.757C25.0595 194.707 25.0135 194.646 24.981 194.578C24.9484 194.509 24.93 194.435 24.9268 194.36C24.9235 194.284 24.9356 194.209 24.9623 194.138L25.5248 192.45C25.5718 192.308 25.6732 192.191 25.8065 192.124C25.9399 192.058 26.0943 192.046 26.2359 192.093ZM27.0764 182.532C26.8427 181.354 26.2384 180.282 25.3518 179.472C24.4651 178.662 23.3427 178.157 22.1485 178.031C20.9544 177.905 19.7512 178.164 18.7149 178.771C17.6785 179.377 16.8634 180.299 16.3887 181.402C15.8563 181.341 15.317 181.389 14.8038 181.543C14.2906 181.698 13.8143 181.955 13.4041 182.3C12.9939 182.645 12.6584 183.07 12.4181 183.549C12.1778 184.028 12.0378 184.551 12.0067 185.086C11.9755 185.621 12.0539 186.156 12.237 186.66C12.4201 187.164 12.7041 187.625 13.0716 188.015C13.439 188.405 13.8822 188.716 14.3741 188.929C14.8659 189.141 15.396 189.252 15.9319 189.252H26.6207C27.4771 189.253 28.3018 188.929 28.9278 188.345C29.5538 187.76 29.9343 186.96 29.9923 186.105C30.0502 185.251 29.7812 184.406 29.2398 183.743C28.6984 183.079 27.925 182.647 27.0764 182.532V182.532Z" stroke="white" mask="url(#path-12-inside-1_2332_21860)"/>
</g>
<text id="Catchment" fill="black" xml:space="preserve" style="white-space: pre" font-family="Roboto" font-size="14" letter-spacing="0em"><tspan x="40" y="190.785">Catchment</tspan></text>
</g>
</g>
</g>
<defs>
<filter id="filter0_d_2332_21860" x="9" y="176" width="24" height="22.8984" filterUnits="userSpaceOnUse" color-interpolation-filters="sRGB">
<feFlood flood-opacity="0" result="BackgroundImageFix"/>
<feColorMatrix in="SourceAlpha" type="matrix" values="0 0 0 0 0 0 0 0 0 0 0 0 0 0 0 0 0 0 127 0" result="hardAlpha"/>
<feOffset dy="1"/>
<feGaussianBlur stdDeviation="1.5"/>
<feComposite in2="hardAlpha" operator="out"/>
<feColorMatrix type="matrix" values="0 0 0 0 0.148524 0 0 0 0 0.194089 0 0 0 0 0.604167 0 0 0 0.35 0"/>
<feBlend mode="normal" in2="BackgroundImageFix" result="effect1_dropShadow_2332_21860"/>
<feBlend mode="normal" in="SourceGraphic" in2="effect1_dropShadow_2332_21860" result="shape"/>
</filter>
<clipPath id="clip0_2332_21860">
<rect width="18" height="18" fill="white" transform="translate(12 80)"/>
</clipPath>
</defs>
</svg>
