<svg width="26" height="18" viewBox="0 0 26 26" fill="none" xmlns="http://www.w3.org/2000/svg">
<circle cx="13" cy="13" r="12.5" fill="#0DA117" stroke="white"/>
<path d="M19.0908 7L19.0853 7.00111L18.3936 7.16018V7.39352V15.5654L19.7587 16.2493L19.793 16.2665L19.8352 15.0355L19.0941 7.00111L19.0908 7Z" fill="#78909C"/>
<path d="M19.7927 16.2664L19.7938 16.2669L20.8568 16.038L20.8208 15.7736L19.6724 7.36235L19.6447 7.16005L19.0938 7.00098L19.7927 16.2664Z" fill="#90A4AE"/>
<path fill-rule="evenodd" clip-rule="evenodd" d="M18.5799 8.25042L5.68359 8.14844L6.38361 16.0337L19.0072 15.9988L18.5799 8.25042Z" fill="#90A4AE"/>
<path fill-rule="evenodd" clip-rule="evenodd" d="M18.5682 8.19555L5.91748 8.14844V9.08179L18.6131 9.11283L18.5682 8.19555Z" fill="#748D99"/>
<path fill-rule="evenodd" clip-rule="evenodd" d="M5.88477 8.84326L5.89807 9.15752L18.5987 9.17304L18.5915 8.86432L5.88477 8.84326Z" fill="#546E7A"/>
<path d="M5.44725 7L5.44115 7.00111L4.75 7.16018V7.39352V15.5654L6.11512 16.2493L6.14948 16.2665L6.19105 15.0355L5.45057 7.00111L5.44725 7Z" fill="#78909C"/>
<path d="M6.14959 16.2664L6.15015 16.2669L7.21375 16.038L7.17772 15.7736L6.02932 7.36235L6.00161 7.16005L5.45068 7.00098L6.14959 16.2664Z" fill="#90A4AE"/>
<path fill-rule="evenodd" clip-rule="evenodd" d="M12.7726 9.05225H12.4922L12.695 12.6587H12.9755L12.7726 9.05225Z" fill="#546E7A"/>
<path fill-rule="evenodd" clip-rule="evenodd" d="M10.1369 9.05225H9.85645L10.0599 12.6587H10.3403L10.1369 9.05225Z" fill="#546E7A"/>
<path fill-rule="evenodd" clip-rule="evenodd" d="M7.50066 9.05225H7.22021L7.42362 12.6587H7.70407L7.50066 9.05225Z" fill="#546E7A"/>
<path fill-rule="evenodd" clip-rule="evenodd" d="M12.2643 9.41309H10.4126L10.4542 10.2511C10.5467 10.0693 10.6659 10.0943 10.7008 10.1131C11.1159 10.337 11.5261 10.0571 11.9706 10.1757C12.1424 10.2217 12.2505 10.4229 12.2954 10.6596L12.2982 10.6757H12.3264L12.2643 9.41309Z" fill="#546E7A"/>
<path fill-rule="evenodd" clip-rule="evenodd" d="M9.66863 9.41309H7.78418L7.82686 10.2511C7.92108 10.0693 8.04246 10.0943 8.07793 10.1131C8.50027 10.337 8.91762 10.0571 9.37044 10.1757C9.54558 10.2217 9.65533 10.4229 9.70133 10.6596L9.70465 10.6757H9.73347L9.66863 9.41309Z" fill="#546E7A"/>
<path fill-rule="evenodd" clip-rule="evenodd" d="M15.4089 9.05225H15.1284L15.3313 12.6587H15.6117L15.4089 9.05225Z" fill="#546E7A"/>
<path fill-rule="evenodd" clip-rule="evenodd" d="M18.0441 9.05225H17.7637L17.9671 12.6587H18.2475L18.0441 9.05225Z" fill="#546E7A"/>
<path fill-rule="evenodd" clip-rule="evenodd" d="M14.9378 9.41309H13.0566L13.0993 10.2511C13.1935 10.0693 13.3144 10.0943 13.3498 10.1131C13.7716 10.337 14.1884 10.0571 14.6401 10.1757C14.8147 10.2217 14.9245 10.4229 14.9705 10.6596L14.9738 10.6757H15.0026L14.9378 9.41309Z" fill="#546E7A"/>
<path fill-rule="evenodd" clip-rule="evenodd" d="M17.5384 9.41309H15.731L15.772 10.2511C15.8623 10.0693 15.9787 10.0943 16.0125 10.1131C16.4177 10.337 16.8184 10.0571 17.2524 10.1757C17.4203 10.2217 17.5256 10.4229 17.5694 10.6596L17.5722 10.6757H17.5999L17.5384 9.41309Z" fill="#546E7A"/>
<path fill-rule="evenodd" clip-rule="evenodd" d="M8.0806 10.4357C8.1327 10.4468 8.16595 10.5094 8.19533 10.5643C8.24188 10.7045 8.35606 10.6568 8.33832 11.1351C8.31948 11.6328 8.40483 11.6794 8.28844 12.2752C8.12327 13.1205 8.63041 13.1476 8.27292 13.4281C7.93871 13.6908 8.46913 14.1098 8.12217 14.4373C7.79904 14.7422 8.44308 15.1152 8.06508 15.5569C7.52136 16.1921 8.63651 16.089 8.26682 17.0074C7.89215 17.9391 8.75844 17.8016 8.86763 18.0311C8.87539 18.0472 8.99677 18.1353 9.00398 18.1863C10.1884 18.4717 11.5147 18.275 12.8239 18.3115C12.9225 18.3143 13.3886 18.3354 13.4025 18.3248C13.4025 17.9712 12.7734 17.632 12.5063 17.6049C12.1771 17.5716 12.074 17.1703 12.0014 16.7984C11.957 16.5718 11.543 16.8622 11.5851 16.5357C11.5823 16.4665 11.7458 16.0596 11.6089 15.9771C11.5469 15.5985 11.0885 16.1433 11.0447 15.3169C10.9965 14.408 10.6667 14.756 10.659 14.6347C10.6301 14.1591 11.0309 14.025 10.7127 13.3228C10.654 13.1931 9.87636 13.2596 10.0704 12.5208C10.123 12.3207 10.0476 12.0762 9.80875 11.7581C9.92292 11.2903 9.90906 11.4145 9.87858 11.149C9.85752 10.965 9.88579 10.9184 9.83812 10.6801C9.78713 10.4224 9.66464 10.2034 9.46954 10.1536C8.96518 10.0239 8.49905 10.3287 8.0285 10.0854C7.98915 10.0649 7.85335 10.0377 7.74805 10.2372C7.86444 10.235 8.05399 10.3021 8.0806 10.4357Z" fill="#3DC2EB"/>
<path fill-rule="evenodd" clip-rule="evenodd" d="M12.3561 18.114C12.2769 17.8274 12.084 17.4173 11.7326 17.6002C11.7254 17.1928 11.3296 17.3979 11.2848 17.4189C11.2005 17.1678 10.8308 17.1374 10.6235 17.1196C10.8136 17.144 11.1961 17.1928 11.2565 17.4389C11.2726 17.5054 11.6844 17.2033 11.6688 17.6223C11.6644 17.7443 11.7126 17.7166 11.7326 17.6827C11.7775 17.655 11.767 17.6534 11.8673 17.6584C12.1222 17.6706 12.1904 17.8878 12.1738 18.1256L12.3561 18.114Z" fill="#CBEDF7"/>
<path fill-rule="evenodd" clip-rule="evenodd" d="M10.7292 17.9973C10.7126 17.719 10.5374 17.417 10.2608 17.5018C10.2298 17.5112 10.2049 17.5378 10.1788 17.5528C10.1445 17.3732 10.0009 17.2319 9.81689 17.2385C10.1999 17.2524 10.0696 17.657 10.1982 17.5938C10.4426 17.4735 10.6666 17.7445 10.554 17.9435C10.5396 17.9939 10.5673 18.0472 10.6161 18.0616C10.6638 18.0771 10.7148 18.0477 10.7292 17.9973Z" fill="#CBEDF7"/>
<path fill-rule="evenodd" clip-rule="evenodd" d="M8.59958 10.484C9.04409 10.6165 9.28796 10.7916 9.48805 11.2456C9.52851 11.3365 9.5213 11.3215 9.54236 11.4351C9.52629 11.3198 9.53294 11.3359 9.49691 11.2417C9.30403 10.734 9.04963 10.5771 8.60402 10.3355C8.56467 10.3344 8.53196 10.3665 8.5303 10.4075C8.52919 10.4485 8.56023 10.4829 8.59958 10.484Z" fill="#CBEDF7"/>
<path fill-rule="evenodd" clip-rule="evenodd" d="M8.46804 10.6614C8.89537 10.9397 9.06386 11.4341 9.03726 11.9406C9.09823 11.3448 8.91976 10.979 8.5412 10.5339C8.5074 10.5129 8.46361 10.5245 8.44366 10.5594C8.4237 10.5949 8.43424 10.6404 8.46804 10.6614Z" fill="#CBEDF7"/>
<path fill-rule="evenodd" clip-rule="evenodd" d="M9.15039 17.9338C9.15981 17.7958 9.16646 17.6861 9.08998 17.578V17.5775C9.09164 17.5769 9.09053 17.5775 9.09275 17.5763C9.08443 17.4771 8.95862 17.4644 8.87382 17.4871C8.81673 17.374 8.70865 17.1939 8.60889 17.1934C8.71752 17.2144 8.78736 17.4655 8.79234 17.5486C8.79899 17.6528 8.97635 17.624 9.00462 17.5957C9.02236 17.6035 9.02236 17.6323 9.05783 17.6467C9.13432 17.7958 9.12101 17.6833 9.15039 17.9338ZM8.88158 17.5015C8.89433 17.5126 8.89876 17.532 8.90486 17.5514C8.89876 17.5387 8.891 17.5215 8.88158 17.5015Z" fill="#CBEDF7"/>
<path fill-rule="evenodd" clip-rule="evenodd" d="M11.1201 16.3682C11.1384 16.3732 11.4582 16.4829 11.4881 16.5472C11.5009 16.5749 11.5003 16.5783 11.5109 16.6276C11.5197 16.5644 11.5292 16.5068 11.4898 16.4635C11.4577 16.2829 11.2498 16.351 11.1201 16.3682Z" fill="#CBEDF7"/>
<path fill-rule="evenodd" clip-rule="evenodd" d="M9.18712 10.39C9.42822 10.4621 9.56068 10.5568 9.66931 10.8029C9.69093 10.8523 9.68705 10.8439 9.69869 10.9055C9.68982 10.8428 9.6937 10.8517 9.67375 10.8007C9.56899 10.5253 9.43154 10.4405 9.18933 10.3091C9.16827 10.3085 9.14998 10.3257 9.14943 10.3479C9.14887 10.3706 9.1655 10.3889 9.18712 10.39Z" fill="#CBEDF7"/>
<path fill-rule="evenodd" clip-rule="evenodd" d="M9.20264 12.7773C10.0595 13.7506 8.96098 13.3155 9.2564 13.8576L9.29852 13.9141C9.29797 13.9141 9.29797 13.9141 9.29741 13.9141C8.99812 14.5476 9.65934 14.4872 9.63772 14.8813C9.62165 15.175 9.39552 14.9062 9.48752 15.5397C9.49251 15.573 9.49528 15.6046 9.47588 15.6328C9.54295 15.5442 9.39219 15.3031 9.53131 15.1323C9.78626 14.8181 9.72806 14.7821 9.46757 14.4345C9.20596 14.0854 9.51246 13.9917 9.38277 13.8437C8.99424 13.3987 10.1426 13.7301 9.20264 12.7773Z" fill="#9EDCFF"/>
<path fill-rule="evenodd" clip-rule="evenodd" d="M9.97607 13.8193C10.0415 13.9435 10.4949 14.9217 10.3059 15.057C10.0232 15.2604 9.87021 14.9988 10.0803 15.435C10.3602 16.0164 9.93118 15.614 10.1695 16.1982C10.2626 16.426 10.2116 16.6044 10.2017 16.8483C10.2017 16.8483 10.2166 16.7297 10.2443 16.503C10.2792 16.2165 10.088 16.0042 10.1712 15.8867C10.3541 15.6279 10.2271 15.5957 10.1557 15.2864C10.2089 15.2637 10.287 15.2244 10.3713 15.1407C10.6024 14.9134 10.0803 13.9928 9.97607 13.8193ZM10.1473 15.2449C10.1457 15.236 10.144 15.2277 10.1423 15.2183H10.1446C10.1468 15.2271 10.1473 15.236 10.1473 15.2449ZM10.1285 15.2981C10.1174 15.3119 10.103 15.3202 10.0869 15.3175C10.093 15.3114 10.1074 15.3064 10.1285 15.2981Z" fill="#9EDCFF"/>
<path fill-rule="evenodd" clip-rule="evenodd" d="M10.6963 10.4357C10.7484 10.4468 10.7817 10.5094 10.811 10.5643C10.8576 10.7045 10.9718 10.6568 10.954 11.1351C10.9352 11.6328 11.0206 11.6794 10.9042 12.2752C10.739 13.1205 11.2461 13.1476 10.8886 13.4281C10.5544 13.6908 11.0848 14.1098 10.7379 14.4373C10.4148 14.7422 11.0588 15.1152 10.6808 15.5569C10.1371 16.1921 11.2522 16.089 10.8825 17.0074C10.5079 17.9391 11.3742 17.8016 11.4834 18.0311C11.4911 18.0472 11.6119 18.1353 11.6197 18.1863C12.8041 18.4717 14.1304 18.275 15.4396 18.3115C15.5382 18.3143 16.0044 18.3354 16.0182 18.3248C16.0182 17.9712 15.3891 17.632 15.122 17.6049C14.7928 17.5716 14.6897 17.1703 14.6171 16.7984C14.5727 16.5718 14.1587 16.8622 14.2008 16.5357C14.1981 16.4665 14.361 16.0596 14.2247 15.9771C14.1626 15.5985 13.7042 16.1433 13.6604 15.3169C13.6122 14.408 13.2824 14.756 13.2747 14.6347C13.2459 14.1591 13.6466 14.025 13.3284 13.3228C13.2697 13.1931 12.4921 13.2596 12.6861 12.5208C12.7387 12.3207 12.6633 12.0762 12.4245 11.7581C12.5386 11.2903 12.5248 11.4145 12.4943 11.149C12.4732 10.965 12.5015 10.9184 12.4538 10.6801C12.4029 10.4224 12.2804 10.2034 12.0853 10.1536C11.5809 10.0239 11.1148 10.3287 10.6442 10.0854C10.6049 10.0649 10.4691 10.0377 10.3638 10.2372C10.4807 10.235 10.6703 10.3021 10.6963 10.4357Z" fill="#3DC2EB"/>
<path fill-rule="evenodd" clip-rule="evenodd" d="M14.9718 18.114C14.8931 17.8274 14.6997 17.4173 14.3483 17.6002C14.3411 17.1928 13.9454 17.3979 13.9005 17.4189C13.8162 17.1678 13.4465 17.1374 13.2393 17.1196C13.4294 17.144 13.8118 17.1928 13.8722 17.4389C13.8883 17.5054 14.3001 17.2033 14.2846 17.6223C14.2801 17.7443 14.3284 17.7166 14.3483 17.6827C14.3932 17.655 14.3827 17.6534 14.483 17.6584C14.7379 17.6706 14.8061 17.8878 14.7895 18.1256L14.9718 18.114Z" fill="#CBEDF7"/>
<path fill-rule="evenodd" clip-rule="evenodd" d="M13.3449 17.9973C13.3283 17.719 13.1531 17.417 12.8766 17.5018C12.8455 17.5112 12.8206 17.5378 12.7945 17.5528C12.7602 17.3732 12.6166 17.2319 12.4326 17.2385C12.8156 17.2524 12.6854 17.657 12.8139 17.5938C13.0584 17.4735 13.2823 17.7445 13.1698 17.9435C13.1554 17.9939 13.1831 18.0472 13.2318 18.0616C13.2801 18.0771 13.3311 18.0477 13.3449 17.9973Z" fill="#CBEDF7"/>
<path fill-rule="evenodd" clip-rule="evenodd" d="M11.2153 10.484C11.6598 10.6165 11.9037 10.7916 12.1037 11.2456C12.1442 11.3365 12.137 11.3215 12.1581 11.4351C12.142 11.3198 12.1486 11.3359 12.1126 11.2417C11.9197 10.734 11.6653 10.5771 11.2197 10.3355C11.1804 10.3344 11.1477 10.3665 11.146 10.4075C11.1454 10.4485 11.1759 10.4829 11.2153 10.484Z" fill="#CBEDF7"/>
<path fill-rule="evenodd" clip-rule="evenodd" d="M11.0845 10.6614C11.5118 10.9397 11.6803 11.4341 11.6537 11.9406C11.7147 11.3448 11.5362 10.979 11.1577 10.5339C11.1239 10.5129 11.0801 10.5245 11.0601 10.5594C11.0396 10.5949 11.0507 10.6404 11.0845 10.6614Z" fill="#CBEDF7"/>
<path fill-rule="evenodd" clip-rule="evenodd" d="M11.7661 17.9338C11.7755 17.7958 11.7822 17.6861 11.7057 17.578V17.5775C11.7074 17.5769 11.7063 17.5775 11.7085 17.5763C11.7002 17.4771 11.5743 17.4644 11.4895 17.4871C11.4325 17.374 11.3244 17.1939 11.2246 17.1934C11.3332 17.2144 11.4031 17.4655 11.4081 17.5486C11.4147 17.6528 11.5921 17.624 11.6203 17.5957C11.6381 17.6035 11.6381 17.6323 11.6736 17.6467C11.7506 17.7958 11.7373 17.6833 11.7661 17.9338ZM11.4973 17.5015C11.51 17.5126 11.5145 17.532 11.5206 17.5514C11.515 17.5387 11.5073 17.5215 11.4973 17.5015Z" fill="#CBEDF7"/>
<path fill-rule="evenodd" clip-rule="evenodd" d="M13.7363 16.3682C13.7546 16.3732 14.0744 16.4829 14.1043 16.5472C14.1171 16.5749 14.1165 16.5783 14.1271 16.6276C14.1359 16.5644 14.1454 16.5068 14.106 16.4635C14.0739 16.2829 13.8655 16.351 13.7363 16.3682Z" fill="#CBEDF7"/>
<path fill-rule="evenodd" clip-rule="evenodd" d="M11.8028 10.39C12.0439 10.4621 12.1764 10.5568 12.285 10.8029C12.3066 10.8523 12.3028 10.8439 12.3144 10.9055C12.3055 10.8428 12.3094 10.8517 12.2895 10.8007C12.1847 10.5253 12.0473 10.4405 11.805 10.3091C11.784 10.3085 11.7657 10.3257 11.7651 10.3479C11.7651 10.3706 11.7818 10.3889 11.8028 10.39Z" fill="#CBEDF7"/>
<path fill-rule="evenodd" clip-rule="evenodd" d="M11.8193 12.7773C12.6762 13.7506 11.5777 13.3155 11.8731 13.8576L11.9152 13.9141C11.9147 13.9141 11.9147 13.9141 11.9141 13.9141C11.6148 14.5476 12.276 14.4872 12.2544 14.8813C12.2383 15.175 12.0122 14.9062 12.1042 15.5397C12.1092 15.573 12.112 15.6046 12.0926 15.6328C12.1596 15.5442 12.0089 15.3031 12.148 15.1323C12.403 14.8181 12.3448 14.7821 12.0843 14.4345C11.8227 14.0854 12.1292 13.9917 11.9995 13.8437C11.6109 13.3987 12.7593 13.7301 11.8193 12.7773Z" fill="#9EDCFF"/>
<path fill-rule="evenodd" clip-rule="evenodd" d="M12.5918 13.8193C12.6572 13.9435 13.1106 14.9217 12.9216 15.057C12.6389 15.2604 12.4859 14.9988 12.696 15.435C12.9759 16.0164 12.5469 15.614 12.7852 16.1982C12.8783 16.426 12.8274 16.6044 12.8174 16.8483C12.8174 16.8483 12.8323 16.7297 12.8601 16.503C12.895 16.2165 12.7038 16.0042 12.7869 15.8867C12.9698 15.6279 12.8429 15.5957 12.7714 15.2864C12.8246 15.2637 12.9027 15.2244 12.987 15.1407C13.2187 14.9134 12.696 13.9928 12.5918 13.8193ZM12.7631 15.2449C12.7614 15.236 12.7597 15.2277 12.7581 15.2183H12.7603C12.7625 15.2271 12.7636 15.236 12.7631 15.2449ZM12.7442 15.2981C12.7331 15.3119 12.7187 15.3202 12.7026 15.3175C12.7087 15.3114 12.7237 15.3064 12.7442 15.2981Z" fill="#9EDCFF"/>
<path fill-rule="evenodd" clip-rule="evenodd" d="M13.312 10.4357C13.3641 10.4468 13.3974 10.5094 13.4268 10.5643C13.4733 10.7045 13.5875 10.6568 13.5698 11.1351C13.5509 11.6328 13.6363 11.6794 13.5199 12.2752C13.3547 13.1205 13.8619 13.1476 13.5044 13.4281C13.1702 13.6908 13.7006 14.1098 13.3536 14.4373C13.0305 14.7422 13.6745 15.1152 13.2965 15.5569C12.7528 16.1921 13.868 16.089 13.4983 17.0074C13.1236 17.9391 13.9899 17.8016 14.0991 18.0311C14.1068 18.0472 14.2282 18.1353 14.2354 18.1863C15.4199 18.4717 16.7462 18.275 18.0553 18.3115C18.154 18.3143 18.6201 18.3354 18.6339 18.3248C18.6339 17.9712 18.0049 17.632 17.7377 17.6049C17.4085 17.5716 17.3054 17.1703 17.2328 16.7984C17.1885 16.5718 16.7744 16.8622 16.8166 16.5357C16.8138 16.4665 16.9773 16.0596 16.8404 15.9771C16.7783 15.5985 16.32 16.1433 16.2762 15.3169C16.2279 14.408 15.8982 14.756 15.8904 14.6347C15.8616 14.1591 16.2623 14.025 15.9442 13.3228C15.8854 13.1931 15.1078 13.2596 15.3018 12.5208C15.3545 12.3207 15.2791 12.0762 15.0402 11.7581C15.1544 11.2903 15.1405 11.4145 15.11 11.149C15.089 10.965 15.1172 10.9184 15.0696 10.6801C15.0186 10.4224 14.8961 10.2034 14.701 10.1536C14.1966 10.0239 13.7305 10.3287 13.2599 10.0854C13.2206 10.0649 13.0848 10.0377 12.9795 10.2372C13.0964 10.235 13.2854 10.3021 13.312 10.4357Z" fill="#3DC2EB"/>
<path fill-rule="evenodd" clip-rule="evenodd" d="M17.5876 18.114C17.5089 17.8274 17.3154 17.4173 16.964 17.6002C16.9568 17.1928 16.5611 17.3979 16.5162 17.4189C16.432 17.1678 16.0623 17.1374 15.855 17.1196C16.0451 17.144 16.4275 17.1928 16.4879 17.4389C16.504 17.5054 16.9158 17.2033 16.9003 17.6223C16.8959 17.7443 16.9441 17.7166 16.964 17.6827C17.0089 17.655 16.9984 17.6534 17.0987 17.6584C17.3537 17.6706 17.4218 17.8878 17.4052 18.1256L17.5876 18.114Z" fill="#CBEDF7"/>
<path fill-rule="evenodd" clip-rule="evenodd" d="M15.9601 17.9973C15.9435 17.719 15.7684 17.417 15.4918 17.5018C15.4608 17.5112 15.4358 17.5378 15.4098 17.5528C15.3754 17.3732 15.2319 17.2319 15.0479 17.2385C15.4308 17.2524 15.3006 17.657 15.4292 17.5938C15.6736 17.4735 15.8975 17.7445 15.785 17.9435C15.7706 17.9939 15.7983 18.0472 15.8471 18.0616C15.8953 18.0771 15.9457 18.0477 15.9601 17.9973Z" fill="#CBEDF7"/>
<path fill-rule="evenodd" clip-rule="evenodd" d="M13.831 10.484C14.2755 10.6165 14.5194 10.7916 14.7195 11.2456C14.76 11.3365 14.7527 11.3215 14.7738 11.4351C14.7577 11.3198 14.7644 11.3359 14.7284 11.2417C14.5355 10.734 14.2811 10.5771 13.8355 10.3355C13.7961 10.3344 13.7634 10.3665 13.7617 10.4075C13.7606 10.4485 13.7917 10.4829 13.831 10.484Z" fill="#CBEDF7"/>
<path fill-rule="evenodd" clip-rule="evenodd" d="M13.7002 10.6614C14.1276 10.9397 14.296 11.4341 14.2694 11.9406C14.3304 11.3448 14.1519 10.979 13.7734 10.5339C13.7396 10.5129 13.6958 10.5245 13.6758 10.5594C13.6553 10.5949 13.6664 10.6404 13.7002 10.6614Z" fill="#CBEDF7"/>
<path fill-rule="evenodd" clip-rule="evenodd" d="M14.3818 17.9338C14.3913 17.7958 14.3979 17.6861 14.3214 17.578V17.5775C14.3231 17.5769 14.322 17.5775 14.3242 17.5763C14.3159 17.4771 14.1901 17.4644 14.1053 17.4871C14.0482 17.374 13.9401 17.1939 13.8403 17.1934C13.949 17.2144 14.0188 17.4655 14.0238 17.5486C14.0304 17.6528 14.2078 17.624 14.2361 17.5957C14.2538 17.6035 14.2538 17.6323 14.2893 17.6467C14.3658 17.7958 14.3525 17.6833 14.3818 17.9338ZM14.113 17.5015C14.1258 17.5126 14.1302 17.532 14.1363 17.5514C14.1308 17.5387 14.1224 17.5215 14.113 17.5015Z" fill="#CBEDF7"/>
<path fill-rule="evenodd" clip-rule="evenodd" d="M16.3516 16.3682C16.3699 16.3732 16.6897 16.4829 16.7196 16.5472C16.7323 16.5749 16.7318 16.5783 16.7423 16.6276C16.7512 16.5644 16.7606 16.5068 16.7212 16.4635C16.6897 16.2829 16.4813 16.351 16.3516 16.3682Z" fill="#CBEDF7"/>
<path fill-rule="evenodd" clip-rule="evenodd" d="M14.4186 10.39C14.6597 10.4621 14.7921 10.5568 14.9008 10.8029C14.9224 10.8523 14.9185 10.8439 14.9301 10.9055C14.9213 10.8428 14.9251 10.8517 14.9052 10.8007C14.8004 10.5253 14.663 10.4405 14.4208 10.3091C14.3997 10.3085 14.3814 10.3257 14.3809 10.3479C14.3803 10.3706 14.3975 10.3889 14.4186 10.39Z" fill="#CBEDF7"/>
<path fill-rule="evenodd" clip-rule="evenodd" d="M14.4346 12.7773C15.2914 13.7506 14.1929 13.3155 14.4883 13.8576L14.5305 13.9141C14.5299 13.9141 14.5299 13.9141 14.5293 13.9141C14.2301 14.5476 14.8913 14.4872 14.8697 14.8813C14.8536 15.175 14.6274 14.9062 14.7195 15.5397C14.7244 15.573 14.7272 15.6046 14.7078 15.6328C14.7749 15.5442 14.6241 15.3031 14.7632 15.1323C15.0182 14.8181 14.96 14.7821 14.6995 14.4345C14.4379 14.0854 14.7444 13.9917 14.6147 13.8437C14.2262 13.3987 15.3751 13.7301 14.4346 12.7773Z" fill="#9EDCFF"/>
<path fill-rule="evenodd" clip-rule="evenodd" d="M15.2075 13.8193C15.2729 13.9435 15.7263 14.9217 15.5373 15.057C15.2546 15.2604 15.1017 14.9988 15.3117 15.435C15.5916 16.0164 15.1626 15.614 15.401 16.1982C15.4941 16.426 15.4431 16.6044 15.4331 16.8483C15.4331 16.8483 15.4481 16.7297 15.4758 16.503C15.5107 16.2165 15.3195 16.0042 15.4026 15.8867C15.5855 15.6279 15.4586 15.5957 15.3871 15.2864C15.4403 15.2637 15.5185 15.2244 15.6027 15.1407C15.8338 14.9134 15.3117 13.9928 15.2075 13.8193ZM15.3788 15.2449C15.3771 15.236 15.3755 15.2277 15.3738 15.2183H15.376C15.3782 15.2271 15.3793 15.236 15.3788 15.2449ZM15.3599 15.2981C15.3489 15.3119 15.3344 15.3202 15.3184 15.3175C15.3245 15.3114 15.3389 15.3064 15.3599 15.2981Z" fill="#9EDCFF"/>
<path fill-rule="evenodd" clip-rule="evenodd" d="M15.9278 10.4357C15.9799 10.4468 16.0131 10.5094 16.0425 10.5643C16.0891 10.7045 16.2032 10.6568 16.1855 11.1351C16.1666 11.6328 16.252 11.6794 16.1356 12.2752C15.9704 13.1205 16.4776 13.1476 16.1201 13.4281C15.7859 13.6908 16.3163 14.1098 15.9693 14.4373C15.6462 14.7422 16.2902 15.1152 15.9122 15.5569C15.3685 16.1921 16.4837 16.089 16.114 17.0074C15.7393 17.9391 16.6056 17.8016 16.7148 18.0311C16.7226 18.0472 16.8439 18.1353 16.8511 18.1863C18.0356 18.4717 19.3619 18.275 20.671 18.3115C20.7697 18.3143 21.2358 18.3354 21.2497 18.3248C21.2497 17.9712 20.6206 17.632 20.3534 17.6049C20.0242 17.5716 19.9211 17.1703 19.8485 16.7984C19.8042 16.5718 19.3902 16.8622 19.4323 16.5357C19.4295 16.4665 19.593 16.0596 19.4561 15.9771C19.394 15.5985 18.9357 16.1433 18.8919 15.3169C18.8437 14.408 18.5139 14.756 18.5061 14.6347C18.4773 14.1591 18.878 14.025 18.5599 13.3228C18.5011 13.1931 17.7235 13.2596 17.9175 12.5208C17.9702 12.3207 17.8948 12.0762 17.6559 11.7581C17.7701 11.2903 17.7562 11.4145 17.7257 11.149C17.7047 10.965 17.733 10.9184 17.6853 10.6801C17.6343 10.4224 17.5118 10.2034 17.3167 10.1536C16.8123 10.0239 16.3462 10.3287 15.8757 10.0854C15.8363 10.0649 15.7005 10.0377 15.5952 10.2372C15.7116 10.235 15.9012 10.3021 15.9278 10.4357Z" fill="#3DC2EB"/>
<path fill-rule="evenodd" clip-rule="evenodd" d="M20.2028 18.114C20.1241 17.8274 19.9307 17.4173 19.5793 17.6002C19.5721 17.1928 19.1763 17.3979 19.1314 17.4189C19.0472 17.1678 18.6775 17.1374 18.4702 17.1196C18.6603 17.144 19.0428 17.1928 19.1032 17.4389C19.1192 17.5054 19.531 17.2033 19.5155 17.6223C19.5111 17.7443 19.5593 17.7166 19.5793 17.6827C19.6242 17.655 19.6136 17.6534 19.7139 17.6584C19.9689 17.6706 20.0371 17.8878 20.0204 18.1256L20.2028 18.114Z" fill="#CBEDF7"/>
<path fill-rule="evenodd" clip-rule="evenodd" d="M18.5754 17.9973C18.5588 17.719 18.3836 17.417 18.107 17.5018C18.076 17.5112 18.0511 17.5378 18.025 17.5528C17.9906 17.3732 17.8471 17.2319 17.6631 17.2385C18.0461 17.2524 17.9158 17.657 18.0444 17.5938C18.2888 17.4735 18.5127 17.7445 18.4002 17.9435C18.3858 17.9939 18.4135 18.0472 18.4623 18.0616C18.5105 18.0771 18.5615 18.0477 18.5754 17.9973Z" fill="#CBEDF7"/>
<path fill-rule="evenodd" clip-rule="evenodd" d="M16.4468 10.484C16.8913 10.6165 17.1351 10.7916 17.3352 11.2456C17.3757 11.3365 17.3685 11.3215 17.3895 11.4351C17.3735 11.3198 17.3801 11.3359 17.3441 11.2417C17.1512 10.734 16.8968 10.5771 16.4512 10.3355C16.4118 10.3344 16.3791 10.3665 16.3775 10.4075C16.3764 10.4485 16.4074 10.4829 16.4468 10.484Z" fill="#CBEDF7"/>
<path fill-rule="evenodd" clip-rule="evenodd" d="M16.315 10.6614C16.7423 10.9397 16.9108 11.4341 16.8842 11.9406C16.9452 11.3448 16.7667 10.979 16.3881 10.5339C16.3543 10.5129 16.3105 10.5245 16.2906 10.5594C16.2701 10.5949 16.2812 10.6404 16.315 10.6614Z" fill="#CBEDF7"/>
<path fill-rule="evenodd" clip-rule="evenodd" d="M16.9976 17.9338C17.007 17.7958 17.0136 17.6861 16.9371 17.578V17.5775C16.9388 17.5769 16.9377 17.5775 16.9399 17.5763C16.9316 17.4771 16.8058 17.4644 16.721 17.4871C16.6639 17.374 16.5558 17.1939 16.4561 17.1934C16.5647 17.2144 16.6345 17.4655 16.6395 17.5486C16.6462 17.6528 16.8235 17.624 16.8518 17.5957C16.8695 17.6035 16.8695 17.6323 16.905 17.6467C16.9815 17.7958 16.9682 17.6833 16.9976 17.9338ZM16.7287 17.5015C16.7415 17.5126 16.7459 17.532 16.752 17.5514C16.7459 17.5387 16.7382 17.5215 16.7287 17.5015Z" fill="#CBEDF7"/>
<path fill-rule="evenodd" clip-rule="evenodd" d="M18.9673 16.3682C18.9856 16.3732 19.3054 16.4829 19.3353 16.5472C19.3481 16.5749 19.3475 16.5783 19.358 16.6276C19.3669 16.5644 19.3763 16.5068 19.337 16.4635C19.3048 16.2829 19.097 16.351 18.9673 16.3682Z" fill="#CBEDF7"/>
<path fill-rule="evenodd" clip-rule="evenodd" d="M17.0343 10.39C17.2754 10.4621 17.4078 10.5568 17.5165 10.8029C17.5381 10.8523 17.5342 10.8439 17.5459 10.9055C17.537 10.8428 17.5409 10.8517 17.5209 10.8007C17.4162 10.5253 17.2787 10.4405 17.0365 10.3091C17.0154 10.3085 16.9971 10.3257 16.9966 10.3479C16.996 10.3706 17.0127 10.3889 17.0343 10.39Z" fill="#CBEDF7"/>
<path fill-rule="evenodd" clip-rule="evenodd" d="M17.0503 12.7773C17.9072 13.7506 16.8086 13.3155 17.1041 13.8576L17.1462 13.9141C17.1456 13.9141 17.1456 13.9141 17.1451 13.9141C16.8458 14.5476 17.507 14.4872 17.4854 14.8813C17.4693 15.175 17.2432 14.9062 17.3352 15.5397C17.3402 15.573 17.3429 15.6046 17.3235 15.6328C17.3906 15.5442 17.2398 15.3031 17.379 15.1323C17.6339 14.8181 17.5757 14.7821 17.3152 14.4345C17.0536 14.0854 17.3601 13.9917 17.2304 13.8437C16.8419 13.3987 17.9903 13.7301 17.0503 12.7773Z" fill="#9EDCFF"/>
<path fill-rule="evenodd" clip-rule="evenodd" d="M17.8232 13.8193C17.8886 13.9435 18.342 14.9217 18.153 15.057C17.8704 15.2604 17.7174 14.9988 17.9274 15.435C18.2073 16.0164 17.7783 15.614 18.0167 16.1982C18.1098 16.426 18.0588 16.6044 18.0488 16.8483C18.0488 16.8483 18.0638 16.7297 18.0915 16.503C18.1264 16.2165 17.9352 16.0042 18.0183 15.8867C18.2012 15.6279 18.0743 15.5957 18.0028 15.2864C18.056 15.2637 18.1342 15.2244 18.2184 15.1407C18.4495 14.9134 17.9269 13.9928 17.8232 13.8193ZM17.994 15.2449C17.9923 15.236 17.9906 15.2277 17.989 15.2183H17.9912C17.994 15.2271 17.9945 15.236 17.994 15.2449ZM17.9751 15.2981C17.964 15.3119 17.9496 15.3202 17.9335 15.3175C17.9396 15.3114 17.9546 15.3064 17.9751 15.2981Z" fill="#9EDCFF"/>
</svg>
