<svg width="36" height="36" viewBox="0 0 36 36" fill="none" xmlns="http://www.w3.org/2000/svg">
<path fill-rule="evenodd" clip-rule="evenodd" d="M11.6459 14.646C11.6924 14.5994 11.7475 14.5625 11.8083 14.5373C11.869 14.5121 11.9341 14.4991 11.9999 14.4991C12.0657 14.4991 12.1308 14.5121 12.1916 14.5373C12.2523 14.5625 12.3075 14.5994 12.3539 14.646L17.9999 20.293L23.6459 14.646C23.6924 14.5995 23.7476 14.5626 23.8083 14.5375C23.8691 14.5123 23.9342 14.4994 23.9999 14.4994C24.0657 14.4994 24.1308 14.5123 24.1915 14.5375C24.2522 14.5626 24.3074 14.5995 24.3539 14.646C24.4004 14.6925 24.4373 14.7477 24.4624 14.8084C24.4876 14.8692 24.5005 14.9343 24.5005 15C24.5005 15.0658 24.4876 15.1309 24.4624 15.1916C24.4373 15.2523 24.4004 15.3075 24.3539 15.354L18.3539 21.354C18.3075 21.4006 18.2523 21.4375 18.1915 21.4627C18.1308 21.4879 18.0657 21.5009 17.9999 21.5009C17.9341 21.5009 17.869 21.4879 17.8083 21.4627C17.7475 21.4375 17.6924 21.4006 17.6459 21.354L11.6459 15.354C11.5994 15.3076 11.5624 15.2524 11.5372 15.1916C11.512 15.1309 11.499 15.0658 11.499 15C11.499 14.9342 11.512 14.8691 11.5372 14.8084C11.5624 14.7476 11.5994 14.6925 11.6459 14.646V14.646Z" fill="#6C757D"/>
</svg>
