<svg xmlns="http://www.w3.org/2000/svg" xmlns:xlink="http://www.w3.org/1999/xlink" width="310" height="310" viewBox="0 0 310 310">
  <defs>
    <filter id="Ellipse_1" x="0" y="0" width="310" height="310" filterUnits="userSpaceOnUse">
      <feOffset dy="10" input="SourceAlpha"/>
      <feGaussianBlur stdDeviation="15" result="blur"/>
      <feFlood flood-opacity="0.161"/>
      <feComposite operator="in" in2="blur"/>
      <feComposite in="SourceGraphic"/>
    </filter>
  </defs>
  <g id="domestic-demand-average-livestock-monthly" transform="translate(-3715 1565)">
    <g transform="matrix(1, 0, 0, 1, 3715, -1565)" filter="url(#Ellipse_1)">
      <circle id="Ellipse_1-2" data-name="Ellipse 1" cx="110" cy="110" r="110" transform="translate(45 35)" fill="#fff"/>
    </g>
    <g id="Ellipse_1-3" data-name="Ellipse 1" transform="translate(3775 -1515)" fill="#068bff" stroke="#068bff" stroke-width="5">
      <circle cx="95" cy="95" r="95" stroke="none"/>
      <circle cx="95" cy="95" r="92.5" fill="none"/>
    </g>
    <g id="Group_60" data-name="Group 60" transform="translate(2993.99 -1600.405)">
      <g id="daily-volumetric-soil-moisture" transform="translate(667.016 -136.118)">
        <path id="Path_38097" data-name="Path 38097" d="M253.818,324.792c-.125-9.082-4-20.414-11.582-30.288-9.166-12-18.706-23.789-28.122-35.621-2.875-3.625-7.458-3.791-10.29-.125-9.916,12.707-20.123,25.205-29.455,38.371-8.707,12.29-12.165,26.247-9,41.37,4.791,22.747,27.414,38.371,50.328,34.829C237.861,369.87,253.818,351.039,253.818,324.792ZM157.787,258.8c-2.083,0-4.125-.042-6.208,0-3.833.125-6.583,2.791-6.583,6.333a6.346,6.346,0,0,0,6.333,6.416q6.5.188,13,0a6.2,6.2,0,0,0,6.249-6.416,6.287,6.287,0,0,0-6.416-6.291C162.078,258.758,159.912,258.8,157.787,258.8Zm102.53,0c-2.125,0-4.25-.042-6.416,0a6.375,6.375,0,1,0-.125,12.749c4.25.125,8.541.125,12.79,0a6.248,6.248,0,0,0,6.374-6.5,6.315,6.315,0,0,0-6.458-6.249C264.441,258.758,262.358,258.8,260.317,258.8ZM154.746,284.463h0c-1.417,0-2.791-.083-4.208.042A6.318,6.318,0,0,0,145,290.629a6.073,6.073,0,0,0,5.208,6.333,43.85,43.85,0,0,0,8.749,0,6.069,6.069,0,0,0,5.208-6.541,6.2,6.2,0,0,0-5.666-5.958C157.245,284.38,156,284.463,154.746,284.463Zm108.779,12.79a38.485,38.485,0,0,0,4.333-.292,6.332,6.332,0,0,0-.417-12.5,51.272,51.272,0,0,0-8,0,6.307,6.307,0,0,0-.375,12.5A26.145,26.145,0,0,0,263.525,297.253ZM154.7,361.287a35.464,35.464,0,0,0-4.208.042,6.28,6.28,0,0,0-5.5,6.124c-.083,3.041,2.041,6,5.041,6.291a42.14,42.14,0,0,0,9.166,0c3.083-.333,5.124-3.333,5-6.5a6.211,6.211,0,0,0-5.5-5.916A31.958,31.958,0,0,0,154.7,361.287Zm108.654-.042h0c-1.333,0-2.666-.083-4,.042a6.35,6.35,0,0,0-5.583,6.083,6.049,6.049,0,0,0,5.166,6.374,47.214,47.214,0,0,0,8.749.042,6.034,6.034,0,0,0,5.249-6.5,6.2,6.2,0,0,0-5.624-6C266.025,361.163,264.691,361.246,263.358,361.246Zm-105.53-44.87A6.416,6.416,0,0,0,145,316.334a6.463,6.463,0,0,0,6.5,6.416A6.312,6.312,0,0,0,157.829,316.376Zm115.153.25a6.332,6.332,0,0,0-6.208-6.458,6.438,6.438,0,0,0-6.583,6.333,6.4,6.4,0,0,0,12.79.125Zm-6.291,19A6.375,6.375,0,1,0,272.982,342,6.3,6.3,0,0,0,266.691,335.624ZM157.787,342a6.3,6.3,0,0,0-6.333-6.333,6.354,6.354,0,1,0,0,12.707A6.338,6.338,0,0,0,157.787,342Z" transform="translate(0 1.11)" fill="none"/>
        <path id="Path_38098" data-name="Path 38098" d="M289.38,331.348c0,28.765-17.487,49.4-41.731,53.146-25.158,3.881-49.95-13.241-55.155-38.17-3.47-16.574.32-31.824,9.862-45.338,10.182-14.428,21.368-28.125,32.28-42.051,3.1-3.972,8.127-3.835,11.278.137,10.319,12.967,20.729,25.842,30.819,39.038C285,308.976,289.243,321.395,289.38,331.348ZM240.07,274.413c-.365.411-.594.594-.776.822-8.173,10.73-16.574,21.322-24.473,32.28-6.94,9.634-10.593,20.409-9.314,32.463,1.552,14.793,13.423,27.76,27.943,30.5,15.387,2.922,30.5-4.155,37.531-17.9,6.392-12.51,5.8-25.158-.5-37.44-2.785-5.479-6.666-10.41-10.41-15.341C253.63,291.352,246.873,283,240.07,274.413Z" transform="translate(-31.267 -4.5)" fill="#fff"/>
      </g>
      <g id="cow" transform="translate(853.694 98.91)">
        <path id="Path_38144" data-name="Path 38144" d="M46.044,83.825l-4.989-5.2,2.171-1.385.127-1.079-1.007-.06-2.612,1.879-3.26,0-2-1.218-.715.146.011.792,1.286,1.425-.17.748L19.755,81.5,4.076,81.06l-1.69.708L1.142,83.35l-.64,3.7L.388,89.708,0,92.191l.107,2.473.436.089.634-.7.516-2.32-.418-3.219.145-.022.983,4.9-.669,4.253.611,8.488.058.94.6.508,2.634,0,.849-.257-2.356-3.837L5.294,98.62h.612L8.042,105.1l1.1,1.663.543.334,2.907,0,.373-.467-2.517-1.546L8.744,99.832l.428-.853,1,.093.629,1.541.912-1.5.883,1.508.748-1.638,2.2-1.693,7.815-.748,1.312,1.6,1.105,7.839.582,1.126h2.663l.287-.422-1.618-2.253-.194-4.289.874.485.921,2.849,1.171,3.7.525.407h2.382l.2-.538-.7-.645-2.246-4.39.518-4.6,2.517-1.862,3.667-6.811,4.22-1.948,3.881-.442.333-.361.543-1.531Z" transform="translate(0 0)" fill="#fff"/>
      </g>
      <g id="calendar-icon" transform="translate(873.822 224.218)">
        <g id="_x32_22._Calender" transform="translate(-3 -24)">
          <g id="Group_61" data-name="Group 61" transform="translate(0)">
            <path id="Path_38145" data-name="Path 38145" d="M17.767,16.151h0a1.616,1.616,0,0,0,0,3.231h0a1.616,1.616,0,0,0,0-3.231Zm-4.846-1.614a1.615,1.615,0,1,0-1.615-1.615A1.616,1.616,0,0,0,12.921,14.537Zm4.846-3.23h0a1.615,1.615,0,1,0,0,3.23h0a1.615,1.615,0,1,0,0-3.23ZM19.382,3.23H11.306v3.23h8.076Zm3.23,11.306A1.615,1.615,0,1,0,21,12.921,1.616,1.616,0,0,0,22.613,14.537Zm0,4.846A1.615,1.615,0,1,0,21,17.767,1.616,1.616,0,0,0,22.613,19.382Zm-9.691,0a1.616,1.616,0,1,0-1.615-1.615A1.616,1.616,0,0,0,12.921,19.382ZM8.076,24.228a1.615,1.615,0,1,0-1.615-1.615A1.616,1.616,0,0,0,8.076,24.228Zm19.382-21H25.843v3.23h1.615v21H3.23v-21H4.845V3.23H3.23A3.23,3.23,0,0,0,0,6.461v21a3.231,3.231,0,0,0,3.23,3.231H27.458a3.23,3.23,0,0,0,3.23-3.231v-21A3.23,3.23,0,0,0,27.458,3.23ZM8.076,19.382a1.616,1.616,0,1,0-1.615-1.615A1.616,1.616,0,0,0,8.076,19.382Zm0-4.846a1.615,1.615,0,1,0-1.615-1.615A1.616,1.616,0,0,0,8.076,14.537Zm4.845,9.691a1.615,1.615,0,1,0-1.615-1.615A1.616,1.616,0,0,0,12.921,24.228ZM8.076,6.461A1.616,1.616,0,0,0,9.691,4.846V1.615a1.615,1.615,0,1,0-3.23,0v3.23A1.616,1.616,0,0,0,8.076,6.461Zm14.537,0a1.616,1.616,0,0,0,1.615-1.615V1.615a1.615,1.615,0,1,0-3.23,0v3.23A1.616,1.616,0,0,0,22.613,6.461Z" transform="translate(0 7)" fill="#fff"/>
          </g>
        </g>
      </g>
    </g>
  </g>
</svg>
