<svg xmlns="http://www.w3.org/2000/svg" xmlns:xlink="http://www.w3.org/1999/xlink" width="310" height="310" viewBox="0 0 310 310">
  <defs>
    <filter id="Ellipse_1" x="0" y="0" width="310" height="310" filterUnits="userSpaceOnUse">
      <feOffset dy="10" input="SourceAlpha"/>
      <feGaussianBlur stdDeviation="15" result="blur"/>
      <feFlood flood-opacity="0.161"/>
      <feComposite operator="in" in2="blur"/>
      <feComposite in="SourceGraphic"/>
    </filter>
  </defs>
  <g id="domestic-demand" transform="translate(-3715 1565)">
    <g transform="matrix(1, 0, 0, 1, 3715, -1565)" filter="url(#Ellipse_1)">
      <circle id="Ellipse_1-2" data-name="Ellipse 1" cx="110" cy="110" r="110" transform="translate(45 35)" fill="#fff"/>
    </g>
    <g id="r-kpi-1" transform="translate(2930 -1822)">
      <g id="Ellipse_1-3" data-name="Ellipse 1" transform="translate(845 307)" fill="#ff8f6d" stroke="#ff8f6d" stroke-width="5">
        <circle cx="95" cy="95" r="95" stroke="none"/>
        <circle cx="95" cy="95" r="92.5" fill="none"/>
      </g>
      <g id="daily-volumetric-soil-moisture" transform="translate(744.006 98.977)">
        <path id="Path_38097" data-name="Path 38097" d="M231.728,310.845c-.1-7.239-3.188-16.27-9.231-24.14-7.305-9.563-14.909-18.96-22.413-28.39-2.291-2.889-5.944-3.022-8.2-.1-7.9,10.128-16.038,20.089-23.476,30.582-6.94,9.8-9.7,20.919-7.172,32.973,3.819,18.13,21.849,30.582,40.112,27.759C219.01,346.773,231.728,331.764,231.728,310.845Zm-76.537-52.6c-1.66,0-3.287-.033-4.948,0a5.082,5.082,0,1,0-.2,10.161q5.18.149,10.36,0a4.94,4.94,0,0,0,4.981-5.114,5.011,5.011,0,0,0-5.114-5.014C158.61,258.215,156.884,258.248,155.19,258.248Zm81.717,0c-1.693,0-3.387-.033-5.114,0a5.081,5.081,0,1,0-.1,10.161c3.387.1,6.807.1,10.194,0a4.979,4.979,0,0,0,5.08-5.18,5.033,5.033,0,0,0-5.147-4.981C240.195,258.215,238.535,258.248,236.908,258.248ZM152.766,278.7h0c-1.129,0-2.225-.066-3.354.033A5.035,5.035,0,0,0,145,283.617a4.841,4.841,0,0,0,4.151,5.047,34.949,34.949,0,0,0,6.973,0,4.837,4.837,0,0,0,4.151-5.213,4.942,4.942,0,0,0-4.516-4.748C154.758,278.636,153.762,278.7,152.766,278.7Zm86.7,10.194a30.678,30.678,0,0,0,3.453-.232,5.046,5.046,0,0,0-.332-9.961,40.86,40.86,0,0,0-6.375,0,5.026,5.026,0,0,0-.3,9.961A20.839,20.839,0,0,0,239.464,288.9Zm-86.731,51.036a28.264,28.264,0,0,0-3.354.033A5.006,5.006,0,0,0,145,344.847a4.8,4.8,0,0,0,4.018,5.014,33.583,33.583,0,0,0,7.305,0,4.819,4.819,0,0,0,3.985-5.18,4.95,4.95,0,0,0-4.383-4.715A25.47,25.47,0,0,0,152.733,339.932Zm86.6-.033h0c-1.063,0-2.125-.066-3.188.033a5.061,5.061,0,0,0-4.449,4.848,4.821,4.821,0,0,0,4.117,5.08,37.626,37.626,0,0,0,6.973.033,4.809,4.809,0,0,0,4.184-5.18,4.944,4.944,0,0,0-4.483-4.782C241.457,339.833,240.394,339.9,239.332,339.9Zm-84.108-35.762A5.114,5.114,0,0,0,145,304.1a5.151,5.151,0,0,0,5.18,5.114A5.031,5.031,0,0,0,155.223,304.137Zm91.779.2a5.046,5.046,0,0,0-4.948-5.147,5.131,5.131,0,0,0-5.246,5.047,5.1,5.1,0,0,0,10.194.1Zm-5.014,15.141a5.081,5.081,0,1,0,5.014,5.08A5.024,5.024,0,0,0,241.988,319.478Zm-86.8,5.08a5.024,5.024,0,0,0-5.047-5.047,5.064,5.064,0,1,0,0,10.128A5.052,5.052,0,0,0,155.19,324.559Z" transform="translate(0 -0.041)" fill="none"/>
        <path id="Path_38098" data-name="Path 38098" d="M262.61,310.8c0,20.919-12.717,35.928-30.349,38.651-18.3,2.822-36.326-9.629-40.112-27.759-2.524-12.053.232-23.144,7.172-32.973,7.4-10.493,15.54-20.454,23.476-30.582,2.258-2.889,5.91-2.789,8.2.1,7.5,9.43,15.075,18.794,22.413,28.39C259.422,294.533,262.51,303.565,262.61,310.8ZM226.748,269.4c-.266.3-.432.432-.564.6-5.944,7.8-12.053,15.507-17.8,23.476-5.047,7.006-7.7,14.843-6.774,23.609a25.843,25.843,0,0,0,20.321,22.181,25.027,25.027,0,0,0,27.294-13.016c4.649-9.1,4.217-18.3-.365-27.228a75.825,75.825,0,0,0-7.571-11.157C236.61,281.716,231.7,275.64,226.748,269.4Z" transform="translate(-30.882 0)" fill="#fff"/>
        <path id="Path_38099" data-name="Path 38099" d="M155.261,262.533c1.693,0,3.387-.033,5.114,0a5.011,5.011,0,0,1,5.114,5.014,4.961,4.961,0,0,1-4.981,5.114q-5.18.149-10.36,0a5.082,5.082,0,1,1,.2-10.161C151.973,262.5,153.634,262.533,155.261,262.533Z" transform="translate(-0.071 -4.326)" fill="#fff"/>
        <path id="Path_38100" data-name="Path 38100" d="M401.154,262.57c1.66,0,3.287-.033,4.948,0a5.013,5.013,0,0,1,5.147,4.981,4.961,4.961,0,0,1-5.08,5.18c-3.387.1-6.807.1-10.194,0a5.081,5.081,0,1,1,.1-10.161C397.734,262.537,399.46,262.57,401.154,262.57Z" transform="translate(-164.246 -4.363)" fill="#fff"/>
        <path id="Path_38101" data-name="Path 38101" d="M152.833,324.141c1,0,2.025-.066,3.022,0a4.942,4.942,0,0,1,4.516,4.748,4.858,4.858,0,0,1-4.151,5.213,34.954,34.954,0,0,1-6.973,0,4.863,4.863,0,0,1-4.151-5.047,5.035,5.035,0,0,1,4.416-4.881c1.063-.1,2.192,0,3.32-.033Z" transform="translate(-0.067 -45.479)" fill="#fff"/>
        <path id="Path_38102" data-name="Path 38102" d="M413.869,334.26c-1.229-.066-2.391-.033-3.553-.2a5.013,5.013,0,0,1-4.217-5.047,4.923,4.923,0,0,1,4.516-4.914,51.056,51.056,0,0,1,6.375,0,4.875,4.875,0,0,1,4.416,4.848,4.947,4.947,0,0,1-4.084,5.114A24.651,24.651,0,0,1,413.869,334.26Z" transform="translate(-174.405 -45.405)" fill="#fff"/>
        <path id="Path_38103" data-name="Path 38103" d="M152.736,508.528a25.544,25.544,0,0,1,3.188.033,4.979,4.979,0,0,1,4.383,4.715,4.819,4.819,0,0,1-3.985,5.18,33.591,33.591,0,0,1-7.305,0c-2.391-.232-4.051-2.59-4.018-5.014a5.006,5.006,0,0,1,4.383-4.881A28.338,28.338,0,0,1,152.736,508.528Z" transform="translate(-0.003 -168.637)" fill="#fff"/>
        <path id="Path_38104" data-name="Path 38104" d="M413.8,508.428a25.52,25.52,0,0,1,3.188.033,4.971,4.971,0,0,1,4.483,4.781,4.851,4.851,0,0,1-4.184,5.18,32.622,32.622,0,0,1-6.973-.033,4.893,4.893,0,0,1-4.117-5.08,5.032,5.032,0,0,1,4.449-4.848c1.029-.1,2.092,0,3.154-.033Z" transform="translate(-174.469 -168.57)" fill="#fff"/>
        <path id="Path_38105" data-name="Path 38105" d="M155.226,390.511a5.073,5.073,0,0,1-5.047,5.08,5.1,5.1,0,1,1,5.047-5.08Z" transform="translate(-0.003 -86.415)" fill="#fff"/>
        <path id="Path_38106" data-name="Path 38106" d="M431.693,391.044a5.1,5.1,0,0,1-10.194-.1,5.1,5.1,0,1,1,10.194.1Z" transform="translate(-184.691 -86.748)" fill="#fff"/>
        <path id="Path_38107" data-name="Path 38107" d="M426.674,447a5.024,5.024,0,0,1,5.014,5.08,5.1,5.1,0,1,1-5.014-5.08Z" transform="translate(-184.686 -127.562)" fill="#fff"/>
        <path id="Path_38108" data-name="Path 38108" d="M155.193,452.147a5.031,5.031,0,0,1-5.047,5.08,5.064,5.064,0,1,1,0-10.128A5,5,0,0,1,155.193,452.147Z" transform="translate(-0.003 -127.63)" fill="#fff"/>
        <path id="Path_38110" data-name="Path 38110" d="M303.685,428.038a15.254,15.254,0,0,1-15.208,14.677,5.1,5.1,0,0,1-5.18-4.948,4.952,4.952,0,0,1,4.748-5.18,5.514,5.514,0,0,0,5.479-5.412,4.992,4.992,0,0,1,5.246-4.881C301.726,422.459,303.751,424.817,303.685,428.038Z" transform="translate(-92.378 -111.058)" fill="#fff"/>
      </g>
    </g>
  </g>
</svg>
