<svg width="614" height="112" viewBox="0 0 614 112" fill="none" xmlns="http://www.w3.org/2000/svg">
<path d="M5.33203 106.095V99.0469H6.64453V106.095C6.64453 106.751 6.51009 107.305 6.24121 107.756C5.97233 108.207 5.60091 108.551 5.12695 108.788C4.65755 109.021 4.11751 109.137 3.50684 109.137C2.89616 109.137 2.35384 109.032 1.87988 108.822C1.40592 108.613 1.03451 108.294 0.765625 107.865C0.496745 107.437 0.362305 106.897 0.362305 106.245H1.68164C1.68164 106.664 1.75911 107.008 1.91406 107.277C2.06901 107.546 2.2832 107.744 2.55664 107.872C2.83464 108 3.15137 108.063 3.50684 108.063C3.85319 108.063 4.16309 107.991 4.43652 107.845C4.71452 107.694 4.93327 107.473 5.09277 107.182C5.25228 106.885 5.33203 106.523 5.33203 106.095ZM13.0498 107.735V103.928C13.0498 103.636 12.9906 103.383 12.8721 103.169C12.7581 102.95 12.585 102.782 12.3525 102.663C12.1201 102.545 11.833 102.485 11.4912 102.485C11.1722 102.485 10.8919 102.54 10.6504 102.649C10.4134 102.759 10.2266 102.902 10.0898 103.08C9.95768 103.258 9.8916 103.449 9.8916 103.654H8.62695C8.62695 103.39 8.69531 103.128 8.83203 102.868C8.96875 102.608 9.16471 102.374 9.41992 102.164C9.67969 101.95 9.98958 101.781 10.3496 101.658C10.7142 101.531 11.1198 101.467 11.5664 101.467C12.1042 101.467 12.5781 101.558 12.9883 101.74C13.403 101.923 13.7266 102.198 13.959 102.567C14.196 102.932 14.3145 103.39 14.3145 103.941V107.387C14.3145 107.633 14.335 107.895 14.376 108.173C14.4215 108.451 14.4876 108.69 14.5742 108.891V109H13.2549C13.1911 108.854 13.141 108.66 13.1045 108.419C13.068 108.173 13.0498 107.945 13.0498 107.735ZM13.2686 104.516L13.2822 105.404H12.0039C11.6439 105.404 11.3226 105.434 11.04 105.493C10.7575 105.548 10.5205 105.632 10.3291 105.746C10.1377 105.86 9.99186 106.004 9.8916 106.177C9.79134 106.345 9.74121 106.544 9.74121 106.771C9.74121 107.004 9.79362 107.216 9.89844 107.407C10.0033 107.599 10.1605 107.751 10.3701 107.865C10.5843 107.975 10.8464 108.029 11.1562 108.029C11.5436 108.029 11.8854 107.947 12.1816 107.783C12.4779 107.619 12.7126 107.419 12.8857 107.182C13.0635 106.945 13.1592 106.715 13.1729 106.491L13.7129 107.1C13.681 107.291 13.5944 107.503 13.4531 107.735C13.3118 107.968 13.1227 108.191 12.8857 108.405C12.6533 108.615 12.3753 108.79 12.0518 108.932C11.7327 109.068 11.3727 109.137 10.9717 109.137C10.4704 109.137 10.0306 109.039 9.65234 108.843C9.27865 108.647 8.98698 108.385 8.77734 108.057C8.57227 107.724 8.46973 107.353 8.46973 106.942C8.46973 106.546 8.5472 106.197 8.70215 105.896C8.8571 105.591 9.0804 105.338 9.37207 105.138C9.66374 104.933 10.0146 104.778 10.4248 104.673C10.835 104.568 11.293 104.516 11.7988 104.516H13.2686ZM17.5684 103.183V109H16.3037V101.604H17.5L17.5684 103.183ZM17.2676 105.021L16.7412 105.001C16.7458 104.495 16.821 104.028 16.9668 103.6C17.1126 103.167 17.3177 102.791 17.582 102.472C17.8464 102.153 18.1608 101.907 18.5254 101.733C18.8945 101.556 19.3024 101.467 19.749 101.467C20.1136 101.467 20.4417 101.517 20.7334 101.617C21.0251 101.713 21.2734 101.868 21.4785 102.082C21.6882 102.296 21.8477 102.574 21.957 102.916C22.0664 103.253 22.1211 103.666 22.1211 104.153V109H20.8496V104.14C20.8496 103.752 20.7926 103.442 20.6787 103.21C20.5648 102.973 20.3984 102.802 20.1797 102.697C19.9609 102.588 19.6921 102.533 19.373 102.533C19.0586 102.533 18.7715 102.599 18.5117 102.731C18.2565 102.864 18.0355 103.046 17.8486 103.278C17.6663 103.511 17.5228 103.777 17.418 104.078C17.3177 104.374 17.2676 104.689 17.2676 105.021Z" fill="#6C757D"/>
<path d="M56.4746 99.0469V109H55.1553V99.0469H56.4746ZM60.6445 103.524V104.604H56.1875V103.524H60.6445ZM61.3213 99.0469V100.127H56.1875V99.0469H61.3213ZM65.6211 109.137C65.1061 109.137 64.639 109.05 64.2197 108.877C63.805 108.699 63.4473 108.451 63.1465 108.132C62.8503 107.813 62.6224 107.435 62.4629 106.997C62.3034 106.56 62.2236 106.081 62.2236 105.562V105.274C62.2236 104.673 62.3125 104.137 62.4902 103.668C62.668 103.194 62.9095 102.793 63.2148 102.465C63.5202 102.137 63.8665 101.888 64.2539 101.72C64.6413 101.551 65.0423 101.467 65.457 101.467C65.9857 101.467 66.4414 101.558 66.8242 101.74C67.2116 101.923 67.5283 102.178 67.7744 102.506C68.0205 102.829 68.2028 103.212 68.3213 103.654C68.4398 104.092 68.499 104.57 68.499 105.09V105.657H62.9756V104.625H67.2344V104.529C67.2161 104.201 67.1478 103.882 67.0293 103.572C66.9154 103.262 66.7331 103.007 66.4824 102.807C66.2318 102.606 65.89 102.506 65.457 102.506C65.1699 102.506 64.9056 102.567 64.6641 102.69C64.4225 102.809 64.2152 102.987 64.042 103.224C63.8688 103.461 63.7344 103.75 63.6387 104.092C63.543 104.434 63.4951 104.828 63.4951 105.274V105.562C63.4951 105.912 63.543 106.243 63.6387 106.553C63.7389 106.858 63.8825 107.127 64.0693 107.359C64.2607 107.592 64.4909 107.774 64.7598 107.906C65.0332 108.038 65.3431 108.104 65.6895 108.104C66.1361 108.104 66.5143 108.013 66.8242 107.831C67.1341 107.649 67.4053 107.405 67.6377 107.1L68.4033 107.708C68.2438 107.95 68.041 108.18 67.7949 108.398C67.5488 108.617 67.2458 108.795 66.8857 108.932C66.5303 109.068 66.1087 109.137 65.6211 109.137ZM69.9688 98.5H71.2402V107.564L71.1309 109H69.9688V98.5ZM76.2373 105.24V105.384C76.2373 105.922 76.1735 106.421 76.0459 106.881C75.9183 107.337 75.7314 107.733 75.4854 108.07C75.2393 108.408 74.9385 108.67 74.583 108.856C74.2275 109.043 73.8197 109.137 73.3594 109.137C72.89 109.137 72.4775 109.057 72.1221 108.897C71.7712 108.733 71.4749 108.499 71.2334 108.193C70.9919 107.888 70.7982 107.519 70.6523 107.086C70.5111 106.653 70.4131 106.165 70.3584 105.623V104.994C70.4131 104.447 70.5111 103.957 70.6523 103.524C70.7982 103.091 70.9919 102.722 71.2334 102.417C71.4749 102.107 71.7712 101.872 72.1221 101.713C72.473 101.549 72.8809 101.467 73.3457 101.467C73.8105 101.467 74.223 101.558 74.583 101.74C74.943 101.918 75.2438 102.173 75.4854 102.506C75.7314 102.839 75.9183 103.237 76.0459 103.702C76.1735 104.162 76.2373 104.675 76.2373 105.24ZM74.9658 105.384V105.24C74.9658 104.871 74.9316 104.525 74.8633 104.201C74.7949 103.873 74.6855 103.586 74.5352 103.34C74.3848 103.089 74.1865 102.893 73.9404 102.752C73.6943 102.606 73.3913 102.533 73.0312 102.533C72.7122 102.533 72.4342 102.588 72.1973 102.697C71.9648 102.807 71.7666 102.955 71.6025 103.142C71.4385 103.324 71.304 103.534 71.1992 103.771C71.099 104.003 71.0238 104.244 70.9736 104.495V106.143C71.0465 106.462 71.165 106.769 71.3291 107.065C71.4977 107.357 71.721 107.596 71.999 107.783C72.2816 107.97 72.6302 108.063 73.0449 108.063C73.3867 108.063 73.6784 107.995 73.9199 107.858C74.166 107.717 74.3643 107.523 74.5146 107.277C74.6696 107.031 74.7835 106.746 74.8564 106.423C74.9294 106.099 74.9658 105.753 74.9658 105.384Z" fill="#6C757D"/>
<path d="M108.572 99.0469H109.851L113.111 107.161L116.365 99.0469H117.65L113.604 109H112.605L108.572 99.0469ZM108.155 99.0469H109.283L109.468 105.117V109H108.155V99.0469ZM116.933 99.0469H118.061V109H116.748V105.117L116.933 99.0469ZM124.548 107.735V103.928C124.548 103.636 124.489 103.383 124.37 103.169C124.256 102.95 124.083 102.782 123.851 102.663C123.618 102.545 123.331 102.485 122.989 102.485C122.67 102.485 122.39 102.54 122.148 102.649C121.911 102.759 121.725 102.902 121.588 103.08C121.456 103.258 121.39 103.449 121.39 103.654H120.125C120.125 103.39 120.193 103.128 120.33 102.868C120.467 102.608 120.663 102.374 120.918 102.164C121.178 101.95 121.488 101.781 121.848 101.658C122.212 101.531 122.618 101.467 123.064 101.467C123.602 101.467 124.076 101.558 124.486 101.74C124.901 101.923 125.225 102.198 125.457 102.567C125.694 102.932 125.812 103.39 125.812 103.941V107.387C125.812 107.633 125.833 107.895 125.874 108.173C125.92 108.451 125.986 108.69 126.072 108.891V109H124.753C124.689 108.854 124.639 108.66 124.603 108.419C124.566 108.173 124.548 107.945 124.548 107.735ZM124.767 104.516L124.78 105.404H123.502C123.142 105.404 122.821 105.434 122.538 105.493C122.256 105.548 122.019 105.632 121.827 105.746C121.636 105.86 121.49 106.004 121.39 106.177C121.289 106.345 121.239 106.544 121.239 106.771C121.239 107.004 121.292 107.216 121.396 107.407C121.501 107.599 121.659 107.751 121.868 107.865C122.082 107.975 122.344 108.029 122.654 108.029C123.042 108.029 123.383 107.947 123.68 107.783C123.976 107.619 124.211 107.419 124.384 107.182C124.562 106.945 124.657 106.715 124.671 106.491L125.211 107.1C125.179 107.291 125.092 107.503 124.951 107.735C124.81 107.968 124.621 108.191 124.384 108.405C124.151 108.615 123.873 108.79 123.55 108.932C123.231 109.068 122.871 109.137 122.47 109.137C121.968 109.137 121.529 109.039 121.15 108.843C120.777 108.647 120.485 108.385 120.275 108.057C120.07 107.724 119.968 107.353 119.968 106.942C119.968 106.546 120.045 106.197 120.2 105.896C120.355 105.591 120.578 105.338 120.87 105.138C121.162 104.933 121.513 104.778 121.923 104.673C122.333 104.568 122.791 104.516 123.297 104.516H124.767ZM129.066 102.766V109H127.802V101.604H129.032L129.066 102.766ZM131.377 101.562L131.37 102.738C131.265 102.715 131.165 102.702 131.069 102.697C130.978 102.688 130.873 102.684 130.755 102.684C130.463 102.684 130.206 102.729 129.982 102.82C129.759 102.911 129.57 103.039 129.415 103.203C129.26 103.367 129.137 103.563 129.046 103.791C128.959 104.014 128.902 104.26 128.875 104.529L128.52 104.734C128.52 104.288 128.563 103.868 128.649 103.477C128.741 103.085 128.88 102.738 129.066 102.438C129.253 102.132 129.49 101.895 129.777 101.727C130.069 101.553 130.415 101.467 130.816 101.467C130.908 101.467 131.012 101.478 131.131 101.501C131.249 101.519 131.331 101.54 131.377 101.562Z" fill="#6C757D"/>
<path d="M166.84 99.9287L163.545 109H162.198L165.992 99.0469H166.86L166.84 99.9287ZM169.602 109L166.3 99.9287L166.279 99.0469H167.147L170.955 109H169.602ZM169.431 105.315V106.396H163.839V105.315H169.431ZM173.361 103.025V111.844H172.09V101.604H173.252L173.361 103.025ZM178.345 105.24V105.384C178.345 105.922 178.281 106.421 178.153 106.881C178.026 107.337 177.839 107.733 177.593 108.07C177.351 108.408 177.053 108.67 176.697 108.856C176.342 109.043 175.934 109.137 175.474 109.137C175.004 109.137 174.59 109.059 174.229 108.904C173.869 108.749 173.564 108.524 173.313 108.228C173.063 107.931 172.862 107.576 172.712 107.161C172.566 106.746 172.466 106.279 172.411 105.76V104.994C172.466 104.447 172.568 103.957 172.719 103.524C172.869 103.091 173.067 102.722 173.313 102.417C173.564 102.107 173.867 101.872 174.223 101.713C174.578 101.549 174.988 101.467 175.453 101.467C175.918 101.467 176.33 101.558 176.69 101.74C177.05 101.918 177.354 102.173 177.6 102.506C177.846 102.839 178.03 103.237 178.153 103.702C178.281 104.162 178.345 104.675 178.345 105.24ZM177.073 105.384V105.24C177.073 104.871 177.035 104.525 176.957 104.201C176.88 103.873 176.759 103.586 176.595 103.34C176.435 103.089 176.23 102.893 175.979 102.752C175.729 102.606 175.43 102.533 175.084 102.533C174.765 102.533 174.487 102.588 174.25 102.697C174.018 102.807 173.819 102.955 173.655 103.142C173.491 103.324 173.357 103.534 173.252 103.771C173.152 104.003 173.076 104.244 173.026 104.495V106.266C173.118 106.585 173.245 106.885 173.409 107.168C173.573 107.446 173.792 107.672 174.065 107.845C174.339 108.013 174.683 108.098 175.098 108.098C175.439 108.098 175.733 108.027 175.979 107.886C176.23 107.74 176.435 107.542 176.595 107.291C176.759 107.04 176.88 106.753 176.957 106.43C177.035 106.102 177.073 105.753 177.073 105.384ZM181.223 102.766V109H179.958V101.604H181.188L181.223 102.766ZM183.533 101.562L183.526 102.738C183.422 102.715 183.321 102.702 183.226 102.697C183.134 102.688 183.03 102.684 182.911 102.684C182.619 102.684 182.362 102.729 182.139 102.82C181.915 102.911 181.726 103.039 181.571 103.203C181.416 103.367 181.293 103.563 181.202 103.791C181.116 104.014 181.059 104.26 181.031 104.529L180.676 104.734C180.676 104.288 180.719 103.868 180.806 103.477C180.897 103.085 181.036 102.738 181.223 102.438C181.41 102.132 181.646 101.895 181.934 101.727C182.225 101.553 182.572 101.467 182.973 101.467C183.064 101.467 183.169 101.478 183.287 101.501C183.406 101.519 183.488 101.54 183.533 101.562Z" fill="#6C757D"/>
<path d="M215.572 99.0469H216.851L220.111 107.161L223.365 99.0469H224.65L220.604 109H219.605L215.572 99.0469ZM215.155 99.0469H216.283L216.468 105.117V109H215.155V99.0469ZM223.933 99.0469H225.061V109H223.748V105.117L223.933 99.0469ZM231.548 107.735V103.928C231.548 103.636 231.489 103.383 231.37 103.169C231.256 102.95 231.083 102.782 230.851 102.663C230.618 102.545 230.331 102.485 229.989 102.485C229.67 102.485 229.39 102.54 229.148 102.649C228.911 102.759 228.725 102.902 228.588 103.08C228.456 103.258 228.39 103.449 228.39 103.654H227.125C227.125 103.39 227.193 103.128 227.33 102.868C227.467 102.608 227.663 102.374 227.918 102.164C228.178 101.95 228.488 101.781 228.848 101.658C229.212 101.531 229.618 101.467 230.064 101.467C230.602 101.467 231.076 101.558 231.486 101.74C231.901 101.923 232.225 102.198 232.457 102.567C232.694 102.932 232.812 103.39 232.812 103.941V107.387C232.812 107.633 232.833 107.895 232.874 108.173C232.92 108.451 232.986 108.69 233.072 108.891V109H231.753C231.689 108.854 231.639 108.66 231.603 108.419C231.566 108.173 231.548 107.945 231.548 107.735ZM231.767 104.516L231.78 105.404H230.502C230.142 105.404 229.821 105.434 229.538 105.493C229.256 105.548 229.019 105.632 228.827 105.746C228.636 105.86 228.49 106.004 228.39 106.177C228.289 106.345 228.239 106.544 228.239 106.771C228.239 107.004 228.292 107.216 228.396 107.407C228.501 107.599 228.659 107.751 228.868 107.865C229.082 107.975 229.344 108.029 229.654 108.029C230.042 108.029 230.383 107.947 230.68 107.783C230.976 107.619 231.211 107.419 231.384 107.182C231.562 106.945 231.657 106.715 231.671 106.491L232.211 107.1C232.179 107.291 232.092 107.503 231.951 107.735C231.81 107.968 231.621 108.191 231.384 108.405C231.151 108.615 230.873 108.79 230.55 108.932C230.231 109.068 229.871 109.137 229.47 109.137C228.968 109.137 228.529 109.039 228.15 108.843C227.777 108.647 227.485 108.385 227.275 108.057C227.07 107.724 226.968 107.353 226.968 106.942C226.968 106.546 227.045 106.197 227.2 105.896C227.355 105.591 227.578 105.338 227.87 105.138C228.162 104.933 228.513 104.778 228.923 104.673C229.333 104.568 229.791 104.516 230.297 104.516H231.767ZM236.771 108.234L238.828 101.604H240.182L237.215 110.142C237.146 110.324 237.055 110.52 236.941 110.729C236.832 110.944 236.691 111.146 236.518 111.338C236.344 111.529 236.135 111.684 235.889 111.803C235.647 111.926 235.358 111.987 235.021 111.987C234.92 111.987 234.793 111.974 234.638 111.946C234.483 111.919 234.373 111.896 234.31 111.878L234.303 110.853C234.339 110.857 234.396 110.862 234.474 110.866C234.556 110.875 234.613 110.88 234.645 110.88C234.932 110.88 235.175 110.841 235.376 110.764C235.576 110.691 235.745 110.565 235.882 110.388C236.023 110.215 236.144 109.975 236.244 109.67L236.771 108.234ZM235.26 101.604L237.181 107.346L237.509 108.679L236.6 109.144L233.879 101.604H235.26Z" fill="#6C757D"/>
<path d="M276.332 106.095V99.0469H277.645V106.095C277.645 106.751 277.51 107.305 277.241 107.756C276.972 108.207 276.601 108.551 276.127 108.788C275.658 109.021 275.118 109.137 274.507 109.137C273.896 109.137 273.354 109.032 272.88 108.822C272.406 108.613 272.035 108.294 271.766 107.865C271.497 107.437 271.362 106.897 271.362 106.245H272.682C272.682 106.664 272.759 107.008 272.914 107.277C273.069 107.546 273.283 107.744 273.557 107.872C273.835 108 274.151 108.063 274.507 108.063C274.853 108.063 275.163 107.991 275.437 107.845C275.715 107.694 275.933 107.473 276.093 107.182C276.252 106.885 276.332 106.523 276.332 106.095ZM284.214 107.291V101.604H285.485V109H284.275L284.214 107.291ZM284.453 105.732L284.979 105.719C284.979 106.211 284.927 106.667 284.822 107.086C284.722 107.501 284.558 107.861 284.33 108.166C284.102 108.471 283.804 108.711 283.435 108.884C283.065 109.052 282.617 109.137 282.088 109.137C281.728 109.137 281.397 109.084 281.097 108.979C280.8 108.875 280.545 108.713 280.331 108.494C280.117 108.275 279.951 107.991 279.832 107.64C279.718 107.289 279.661 106.867 279.661 106.375V101.604H280.926V106.389C280.926 106.721 280.962 106.997 281.035 107.216C281.113 107.43 281.215 107.601 281.343 107.729C281.475 107.852 281.621 107.938 281.78 107.988C281.944 108.038 282.113 108.063 282.286 108.063C282.824 108.063 283.25 107.961 283.564 107.756C283.879 107.546 284.104 107.266 284.241 106.915C284.382 106.56 284.453 106.165 284.453 105.732ZM288.678 103.183V109H287.413V101.604H288.609L288.678 103.183ZM288.377 105.021L287.851 105.001C287.855 104.495 287.93 104.028 288.076 103.6C288.222 103.167 288.427 102.791 288.691 102.472C288.956 102.153 289.27 101.907 289.635 101.733C290.004 101.556 290.412 101.467 290.858 101.467C291.223 101.467 291.551 101.517 291.843 101.617C292.134 101.713 292.383 101.868 292.588 102.082C292.798 102.296 292.957 102.574 293.066 102.916C293.176 103.253 293.23 103.666 293.23 104.153V109H291.959V104.14C291.959 103.752 291.902 103.442 291.788 103.21C291.674 102.973 291.508 102.802 291.289 102.697C291.07 102.588 290.801 102.533 290.482 102.533C290.168 102.533 289.881 102.599 289.621 102.731C289.366 102.864 289.145 103.046 288.958 103.278C288.776 103.511 288.632 103.777 288.527 104.078C288.427 104.374 288.377 104.689 288.377 105.021Z" fill="#6C757D"/>
<path d="M330.332 106.095V99.0469H331.645V106.095C331.645 106.751 331.51 107.305 331.241 107.756C330.972 108.207 330.601 108.551 330.127 108.788C329.658 109.021 329.118 109.137 328.507 109.137C327.896 109.137 327.354 109.032 326.88 108.822C326.406 108.613 326.035 108.294 325.766 107.865C325.497 107.437 325.362 106.897 325.362 106.245H326.682C326.682 106.664 326.759 107.008 326.914 107.277C327.069 107.546 327.283 107.744 327.557 107.872C327.835 108 328.151 108.063 328.507 108.063C328.853 108.063 329.163 107.991 329.437 107.845C329.715 107.694 329.933 107.473 330.093 107.182C330.252 106.885 330.332 106.523 330.332 106.095ZM338.214 107.291V101.604H339.485V109H338.275L338.214 107.291ZM338.453 105.732L338.979 105.719C338.979 106.211 338.927 106.667 338.822 107.086C338.722 107.501 338.558 107.861 338.33 108.166C338.102 108.471 337.804 108.711 337.435 108.884C337.065 109.052 336.617 109.137 336.088 109.137C335.728 109.137 335.397 109.084 335.097 108.979C334.8 108.875 334.545 108.713 334.331 108.494C334.117 108.275 333.951 107.991 333.832 107.64C333.718 107.289 333.661 106.867 333.661 106.375V101.604H334.926V106.389C334.926 106.721 334.962 106.997 335.035 107.216C335.113 107.43 335.215 107.601 335.343 107.729C335.475 107.852 335.621 107.938 335.78 107.988C335.944 108.038 336.113 108.063 336.286 108.063C336.824 108.063 337.25 107.961 337.564 107.756C337.879 107.546 338.104 107.266 338.241 106.915C338.382 106.56 338.453 106.165 338.453 105.732ZM342.787 98.5V109H341.516V98.5H342.787Z" fill="#6C757D"/>
<path d="M378.84 99.9287L375.545 109H374.198L377.992 99.0469H378.86L378.84 99.9287ZM381.602 109L378.3 99.9287L378.279 99.0469H379.147L382.955 109H381.602ZM381.431 105.315V106.396H375.839V105.315H381.431ZM388.54 107.291V101.604H389.812V109H388.602L388.54 107.291ZM388.779 105.732L389.306 105.719C389.306 106.211 389.253 106.667 389.148 107.086C389.048 107.501 388.884 107.861 388.656 108.166C388.428 108.471 388.13 108.711 387.761 108.884C387.392 109.052 386.943 109.137 386.414 109.137C386.054 109.137 385.724 109.084 385.423 108.979C385.127 108.875 384.871 108.713 384.657 108.494C384.443 108.275 384.277 107.991 384.158 107.64C384.044 107.289 383.987 106.867 383.987 106.375V101.604H385.252V106.389C385.252 106.721 385.288 106.997 385.361 107.216C385.439 107.43 385.541 107.601 385.669 107.729C385.801 107.852 385.947 107.938 386.106 107.988C386.271 108.038 386.439 108.063 386.612 108.063C387.15 108.063 387.576 107.961 387.891 107.756C388.205 107.546 388.431 107.266 388.567 106.915C388.709 106.56 388.779 106.165 388.779 105.732ZM396.531 101.604H397.68V108.843C397.68 109.494 397.548 110.05 397.283 110.511C397.019 110.971 396.65 111.32 396.176 111.557C395.706 111.798 395.164 111.919 394.549 111.919C394.294 111.919 393.993 111.878 393.646 111.796C393.305 111.718 392.967 111.584 392.635 111.393C392.307 111.206 392.031 110.953 391.808 110.634L392.471 109.882C392.781 110.256 393.104 110.515 393.441 110.661C393.783 110.807 394.12 110.88 394.453 110.88C394.854 110.88 395.201 110.805 395.492 110.654C395.784 110.504 396.009 110.281 396.169 109.984C396.333 109.693 396.415 109.333 396.415 108.904V103.23L396.531 101.604ZM391.438 105.384V105.24C391.438 104.675 391.505 104.162 391.637 103.702C391.773 103.237 391.967 102.839 392.218 102.506C392.473 102.173 392.781 101.918 393.141 101.74C393.501 101.558 393.906 101.467 394.357 101.467C394.822 101.467 395.228 101.549 395.574 101.713C395.925 101.872 396.221 102.107 396.463 102.417C396.709 102.722 396.903 103.091 397.044 103.524C397.185 103.957 397.283 104.447 397.338 104.994V105.623C397.288 106.165 397.19 106.653 397.044 107.086C396.903 107.519 396.709 107.888 396.463 108.193C396.221 108.499 395.925 108.733 395.574 108.897C395.223 109.057 394.813 109.137 394.344 109.137C393.902 109.137 393.501 109.043 393.141 108.856C392.785 108.67 392.48 108.408 392.225 108.07C391.969 107.733 391.773 107.337 391.637 106.881C391.505 106.421 391.438 105.922 391.438 105.384ZM392.703 105.24V105.384C392.703 105.753 392.74 106.099 392.812 106.423C392.89 106.746 393.006 107.031 393.161 107.277C393.321 107.523 393.523 107.717 393.77 107.858C394.016 107.995 394.31 108.063 394.651 108.063C395.071 108.063 395.417 107.975 395.69 107.797C395.964 107.619 396.18 107.384 396.34 107.093C396.504 106.801 396.632 106.484 396.723 106.143V104.495C396.673 104.244 396.595 104.003 396.49 103.771C396.39 103.534 396.258 103.324 396.094 103.142C395.934 102.955 395.736 102.807 395.499 102.697C395.262 102.588 394.984 102.533 394.665 102.533C394.319 102.533 394.02 102.606 393.77 102.752C393.523 102.893 393.321 103.089 393.161 103.34C393.006 103.586 392.89 103.873 392.812 104.201C392.74 104.525 392.703 104.871 392.703 105.24Z" fill="#6C757D"/>
<path d="M435.46 106.484C435.46 106.252 435.424 106.047 435.351 105.869C435.282 105.687 435.159 105.523 434.981 105.377C434.808 105.231 434.567 105.092 434.257 104.96C433.951 104.828 433.564 104.693 433.095 104.557C432.603 104.411 432.158 104.249 431.762 104.071C431.365 103.889 431.026 103.682 430.743 103.449C430.461 103.217 430.244 102.95 430.094 102.649C429.943 102.349 429.868 102.005 429.868 101.617C429.868 101.23 429.948 100.872 430.107 100.544C430.267 100.216 430.495 99.931 430.791 99.6895C431.092 99.4434 431.45 99.252 431.864 99.1152C432.279 98.9785 432.742 98.9102 433.252 98.9102C433.999 98.9102 434.633 99.0537 435.152 99.3408C435.676 99.6234 436.075 99.9948 436.349 100.455C436.622 100.911 436.759 101.398 436.759 101.918H435.446C435.446 101.544 435.367 101.214 435.207 100.927C435.048 100.635 434.806 100.407 434.482 100.243C434.159 100.075 433.749 99.9902 433.252 99.9902C432.783 99.9902 432.395 100.061 432.09 100.202C431.785 100.343 431.557 100.535 431.406 100.776C431.26 101.018 431.188 101.294 431.188 101.604C431.188 101.813 431.231 102.005 431.317 102.178C431.409 102.346 431.548 102.504 431.734 102.649C431.926 102.795 432.167 102.93 432.459 103.053C432.755 103.176 433.108 103.294 433.519 103.408C434.084 103.568 434.571 103.745 434.981 103.941C435.392 104.137 435.729 104.358 435.993 104.604C436.262 104.846 436.46 105.122 436.588 105.432C436.72 105.737 436.786 106.083 436.786 106.471C436.786 106.876 436.704 107.243 436.54 107.571C436.376 107.899 436.141 108.18 435.836 108.412C435.531 108.645 435.164 108.825 434.735 108.952C434.312 109.075 433.838 109.137 433.313 109.137C432.853 109.137 432.4 109.073 431.953 108.945C431.511 108.818 431.108 108.626 430.743 108.371C430.383 108.116 430.094 107.801 429.875 107.428C429.661 107.049 429.554 106.612 429.554 106.115H430.866C430.866 106.457 430.932 106.751 431.064 106.997C431.197 107.239 431.377 107.439 431.604 107.599C431.837 107.758 432.099 107.877 432.391 107.954C432.687 108.027 432.994 108.063 433.313 108.063C433.774 108.063 434.163 108 434.482 107.872C434.801 107.744 435.043 107.562 435.207 107.325C435.376 107.088 435.46 106.808 435.46 106.484ZM441.346 109.137C440.831 109.137 440.364 109.05 439.944 108.877C439.53 108.699 439.172 108.451 438.871 108.132C438.575 107.813 438.347 107.435 438.188 106.997C438.028 106.56 437.948 106.081 437.948 105.562V105.274C437.948 104.673 438.037 104.137 438.215 103.668C438.393 103.194 438.634 102.793 438.939 102.465C439.245 102.137 439.591 101.888 439.979 101.72C440.366 101.551 440.767 101.467 441.182 101.467C441.71 101.467 442.166 101.558 442.549 101.74C442.936 101.923 443.253 102.178 443.499 102.506C443.745 102.829 443.927 103.212 444.046 103.654C444.164 104.092 444.224 104.57 444.224 105.09V105.657H438.7V104.625H442.959V104.529C442.941 104.201 442.872 103.882 442.754 103.572C442.64 103.262 442.458 103.007 442.207 102.807C441.956 102.606 441.615 102.506 441.182 102.506C440.895 102.506 440.63 102.567 440.389 102.69C440.147 102.809 439.94 102.987 439.767 103.224C439.593 103.461 439.459 103.75 439.363 104.092C439.268 104.434 439.22 104.828 439.22 105.274V105.562C439.22 105.912 439.268 106.243 439.363 106.553C439.464 106.858 439.607 107.127 439.794 107.359C439.985 107.592 440.215 107.774 440.484 107.906C440.758 108.038 441.068 108.104 441.414 108.104C441.861 108.104 442.239 108.013 442.549 107.831C442.859 107.649 443.13 107.405 443.362 107.1L444.128 107.708C443.968 107.95 443.766 108.18 443.52 108.398C443.273 108.617 442.97 108.795 442.61 108.932C442.255 109.068 441.833 109.137 441.346 109.137ZM446.965 103.025V111.844H445.693V101.604H446.855L446.965 103.025ZM451.948 105.24V105.384C451.948 105.922 451.884 106.421 451.757 106.881C451.629 107.337 451.442 107.733 451.196 108.07C450.955 108.408 450.656 108.67 450.301 108.856C449.945 109.043 449.537 109.137 449.077 109.137C448.608 109.137 448.193 109.059 447.833 108.904C447.473 108.749 447.168 108.524 446.917 108.228C446.666 107.931 446.466 107.576 446.315 107.161C446.17 106.746 446.069 106.279 446.015 105.76V104.994C446.069 104.447 446.172 103.957 446.322 103.524C446.473 103.091 446.671 102.722 446.917 102.417C447.168 102.107 447.471 101.872 447.826 101.713C448.182 101.549 448.592 101.467 449.057 101.467C449.521 101.467 449.934 101.558 450.294 101.74C450.654 101.918 450.957 102.173 451.203 102.506C451.449 102.839 451.634 103.237 451.757 103.702C451.884 104.162 451.948 104.675 451.948 105.24ZM450.677 105.384V105.24C450.677 104.871 450.638 104.525 450.561 104.201C450.483 103.873 450.362 103.586 450.198 103.34C450.039 103.089 449.834 102.893 449.583 102.752C449.332 102.606 449.034 102.533 448.688 102.533C448.368 102.533 448.09 102.588 447.854 102.697C447.621 102.807 447.423 102.955 447.259 103.142C447.095 103.324 446.96 103.534 446.855 103.771C446.755 104.003 446.68 104.244 446.63 104.495V106.266C446.721 106.585 446.849 106.885 447.013 107.168C447.177 107.446 447.396 107.672 447.669 107.845C447.942 108.013 448.286 108.098 448.701 108.098C449.043 108.098 449.337 108.027 449.583 107.886C449.834 107.74 450.039 107.542 450.198 107.291C450.362 107.04 450.483 106.753 450.561 106.43C450.638 106.102 450.677 105.753 450.677 105.384Z" fill="#6C757D"/>
<path d="M491.818 103.709V104.338C491.818 105.085 491.725 105.755 491.538 106.348C491.351 106.94 491.082 107.444 490.731 107.858C490.381 108.273 489.959 108.59 489.467 108.809C488.979 109.027 488.432 109.137 487.826 109.137C487.238 109.137 486.698 109.027 486.206 108.809C485.718 108.59 485.295 108.273 484.935 107.858C484.579 107.444 484.303 106.94 484.107 106.348C483.911 105.755 483.813 105.085 483.813 104.338V103.709C483.813 102.962 483.909 102.294 484.101 101.706C484.297 101.114 484.572 100.61 484.928 100.195C485.283 99.776 485.705 99.457 486.192 99.2383C486.685 99.0195 487.225 98.9102 487.812 98.9102C488.419 98.9102 488.965 99.0195 489.453 99.2383C489.945 99.457 490.367 99.776 490.718 100.195C491.073 100.61 491.344 101.114 491.531 101.706C491.723 102.294 491.818 102.962 491.818 103.709ZM490.513 104.338V103.695C490.513 103.103 490.451 102.579 490.328 102.123C490.21 101.667 490.034 101.285 489.802 100.975C489.569 100.665 489.285 100.43 488.947 100.271C488.615 100.111 488.236 100.031 487.812 100.031C487.402 100.031 487.031 100.111 486.698 100.271C486.37 100.43 486.088 100.665 485.851 100.975C485.618 101.285 485.438 101.667 485.311 102.123C485.183 102.579 485.119 103.103 485.119 103.695V104.338C485.119 104.935 485.183 105.464 485.311 105.924C485.438 106.38 485.62 106.765 485.857 107.079C486.099 107.389 486.384 107.624 486.712 107.783C487.045 107.943 487.416 108.022 487.826 108.022C488.255 108.022 488.635 107.943 488.968 107.783C489.3 107.624 489.581 107.389 489.809 107.079C490.041 106.765 490.216 106.38 490.335 105.924C490.453 105.464 490.513 104.935 490.513 104.338ZM496.562 108.098C496.863 108.098 497.141 108.036 497.396 107.913C497.652 107.79 497.861 107.621 498.025 107.407C498.189 107.188 498.283 106.94 498.306 106.662H499.509C499.486 107.1 499.338 107.507 499.064 107.886C498.796 108.259 498.442 108.562 498.005 108.795C497.567 109.023 497.087 109.137 496.562 109.137C496.007 109.137 495.521 109.039 495.106 108.843C494.696 108.647 494.354 108.378 494.081 108.036C493.812 107.694 493.609 107.302 493.473 106.86C493.34 106.414 493.274 105.942 493.274 105.445V105.158C493.274 104.661 493.34 104.192 493.473 103.75C493.609 103.303 493.812 102.909 494.081 102.567C494.354 102.226 494.696 101.957 495.106 101.761C495.521 101.565 496.007 101.467 496.562 101.467C497.141 101.467 497.647 101.585 498.08 101.822C498.513 102.055 498.853 102.374 499.099 102.779C499.349 103.18 499.486 103.636 499.509 104.146H498.306C498.283 103.841 498.196 103.565 498.046 103.319C497.9 103.073 497.7 102.877 497.444 102.731C497.194 102.581 496.9 102.506 496.562 102.506C496.175 102.506 495.849 102.583 495.585 102.738C495.325 102.889 495.118 103.094 494.963 103.354C494.812 103.609 494.703 103.894 494.635 104.208C494.571 104.518 494.539 104.835 494.539 105.158V105.445C494.539 105.769 494.571 106.088 494.635 106.402C494.699 106.717 494.806 107.002 494.956 107.257C495.111 107.512 495.318 107.717 495.578 107.872C495.842 108.022 496.171 108.098 496.562 108.098ZM504.027 101.604V102.574H500.028V101.604H504.027ZM501.382 99.8057H502.646V107.168C502.646 107.419 502.685 107.608 502.763 107.735C502.84 107.863 502.94 107.947 503.063 107.988C503.187 108.029 503.319 108.05 503.46 108.05C503.565 108.05 503.674 108.041 503.788 108.022C503.907 108 503.995 107.981 504.055 107.968L504.062 109C503.961 109.032 503.829 109.062 503.665 109.089C503.506 109.121 503.312 109.137 503.084 109.137C502.774 109.137 502.489 109.075 502.229 108.952C501.97 108.829 501.762 108.624 501.607 108.337C501.457 108.045 501.382 107.653 501.382 107.161V99.8057Z" fill="#6C757D"/>
<path d="M543.812 99.0469V109H542.485L537.475 101.323V109H536.155V99.0469H537.475L542.506 106.744V99.0469H543.812ZM545.623 105.384V105.227C545.623 104.693 545.701 104.199 545.855 103.743C546.01 103.283 546.234 102.884 546.525 102.547C546.817 102.205 547.17 101.941 547.585 101.754C548 101.562 548.465 101.467 548.979 101.467C549.499 101.467 549.966 101.562 550.381 101.754C550.8 101.941 551.156 102.205 551.447 102.547C551.743 102.884 551.969 103.283 552.124 103.743C552.279 104.199 552.356 104.693 552.356 105.227V105.384C552.356 105.917 552.279 106.411 552.124 106.867C551.969 107.323 551.743 107.722 551.447 108.063C551.156 108.401 550.802 108.665 550.388 108.856C549.978 109.043 549.513 109.137 548.993 109.137C548.474 109.137 548.007 109.043 547.592 108.856C547.177 108.665 546.822 108.401 546.525 108.063C546.234 107.722 546.01 107.323 545.855 106.867C545.701 106.411 545.623 105.917 545.623 105.384ZM546.888 105.227V105.384C546.888 105.753 546.931 106.102 547.018 106.43C547.104 106.753 547.234 107.04 547.407 107.291C547.585 107.542 547.806 107.74 548.07 107.886C548.335 108.027 548.642 108.098 548.993 108.098C549.34 108.098 549.643 108.027 549.902 107.886C550.167 107.74 550.385 107.542 550.559 107.291C550.732 107.04 550.862 106.753 550.948 106.43C551.039 106.102 551.085 105.753 551.085 105.384V105.227C551.085 104.862 551.039 104.518 550.948 104.194C550.862 103.866 550.729 103.577 550.552 103.326C550.379 103.071 550.16 102.87 549.896 102.725C549.636 102.579 549.33 102.506 548.979 102.506C548.633 102.506 548.328 102.579 548.063 102.725C547.804 102.87 547.585 103.071 547.407 103.326C547.234 103.577 547.104 103.866 547.018 104.194C546.931 104.518 546.888 104.862 546.888 105.227ZM556.082 107.858L558.105 101.604H559.397L556.738 109H555.891L556.082 107.858ZM554.394 101.604L556.479 107.893L556.622 109H555.774L553.095 101.604H554.394Z" fill="#6C757D"/>
<path d="M593.849 109H591.771L591.784 107.927H593.849C594.56 107.927 595.152 107.779 595.626 107.482C596.1 107.182 596.455 106.762 596.692 106.225C596.934 105.682 597.055 105.049 597.055 104.324V103.716C597.055 103.146 596.986 102.64 596.85 102.198C596.713 101.752 596.512 101.376 596.248 101.07C595.984 100.76 595.66 100.526 595.277 100.366C594.899 100.207 594.464 100.127 593.972 100.127H591.729V99.0469H593.972C594.623 99.0469 595.218 99.1562 595.756 99.375C596.294 99.5892 596.756 99.9014 597.144 100.312C597.535 100.717 597.836 101.209 598.046 101.788C598.256 102.362 598.36 103.009 598.36 103.729V104.324C598.36 105.044 598.256 105.694 598.046 106.272C597.836 106.847 597.533 107.337 597.137 107.742C596.745 108.148 596.271 108.46 595.715 108.679C595.163 108.893 594.541 109 593.849 109ZM592.475 99.0469V109H591.155V99.0469H592.475ZM603.221 109.137C602.706 109.137 602.239 109.05 601.819 108.877C601.405 108.699 601.047 108.451 600.746 108.132C600.45 107.813 600.222 107.435 600.062 106.997C599.903 106.56 599.823 106.081 599.823 105.562V105.274C599.823 104.673 599.912 104.137 600.09 103.668C600.268 103.194 600.509 102.793 600.814 102.465C601.12 102.137 601.466 101.888 601.854 101.72C602.241 101.551 602.642 101.467 603.057 101.467C603.585 101.467 604.041 101.558 604.424 101.74C604.811 101.923 605.128 102.178 605.374 102.506C605.62 102.829 605.802 103.212 605.921 103.654C606.039 104.092 606.099 104.57 606.099 105.09V105.657H600.575V104.625H604.834V104.529C604.816 104.201 604.747 103.882 604.629 103.572C604.515 103.262 604.333 103.007 604.082 102.807C603.831 102.606 603.49 102.506 603.057 102.506C602.77 102.506 602.505 102.567 602.264 102.69C602.022 102.809 601.815 102.987 601.642 103.224C601.468 103.461 601.334 103.75 601.238 104.092C601.143 104.434 601.095 104.828 601.095 105.274V105.562C601.095 105.912 601.143 106.243 601.238 106.553C601.339 106.858 601.482 107.127 601.669 107.359C601.86 107.592 602.09 107.774 602.359 107.906C602.633 108.038 602.943 108.104 603.289 108.104C603.736 108.104 604.114 108.013 604.424 107.831C604.734 107.649 605.005 107.405 605.237 107.1L606.003 107.708C605.843 107.95 605.641 108.18 605.395 108.398C605.148 108.617 604.845 108.795 604.485 108.932C604.13 109.068 603.708 109.137 603.221 109.137ZM610.535 108.098C610.836 108.098 611.114 108.036 611.369 107.913C611.624 107.79 611.834 107.621 611.998 107.407C612.162 107.188 612.256 106.94 612.278 106.662H613.481C613.459 107.1 613.311 107.507 613.037 107.886C612.768 108.259 612.415 108.562 611.978 108.795C611.54 109.023 611.059 109.137 610.535 109.137C609.979 109.137 609.494 109.039 609.079 108.843C608.669 108.647 608.327 108.378 608.054 108.036C607.785 107.694 607.582 107.302 607.445 106.86C607.313 106.414 607.247 105.942 607.247 105.445V105.158C607.247 104.661 607.313 104.192 607.445 103.75C607.582 103.303 607.785 102.909 608.054 102.567C608.327 102.226 608.669 101.957 609.079 101.761C609.494 101.565 609.979 101.467 610.535 101.467C611.114 101.467 611.62 101.585 612.053 101.822C612.486 102.055 612.825 102.374 613.071 102.779C613.322 103.18 613.459 103.636 613.481 104.146H612.278C612.256 103.841 612.169 103.565 612.019 103.319C611.873 103.073 611.672 102.877 611.417 102.731C611.166 102.581 610.872 102.506 610.535 102.506C610.148 102.506 609.822 102.583 609.558 102.738C609.298 102.889 609.09 103.094 608.936 103.354C608.785 103.609 608.676 103.894 608.607 104.208C608.544 104.518 608.512 104.835 608.512 105.158V105.445C608.512 105.769 608.544 106.088 608.607 106.402C608.671 106.717 608.778 107.002 608.929 107.257C609.084 107.512 609.291 107.717 609.551 107.872C609.815 108.022 610.143 108.098 610.535 108.098Z" fill="#6C757D"/>
<path d="M7 5C7 2.23858 9.23858 0 12 0C14.7614 0 17 2.23858 17 5V86H7V5Z" fill="#CED4DA"/>
<path d="M7 36C7 33.2386 9.23858 31 12 31C14.7614 31 17 33.2386 17 36V86H7V36Z" fill="#8C68CD"/>
<path d="M61 5C61 2.23858 63.2386 0 66 0C68.7614 0 71 2.23858 71 5V86H61V5Z" fill="#CED4DA"/>
<path d="M61 25C61 22.2386 63.2386 20 66 20C68.7614 20 71 22.2386 71 25V86H61V25Z" fill="#8C68CD"/>
<path d="M115 5C115 2.23858 117.239 0 120 0C122.761 0 125 2.23858 125 5V86H115V5Z" fill="#CED4DA"/>
<path d="M115 55C115 52.2386 117.239 50 120 50C122.761 50 125 52.2386 125 55V86H115V55Z" fill="#8C68CD"/>
<path d="M169 5C169 2.23858 171.239 0 174 0C176.761 0 179 2.23858 179 5V86H169V5Z" fill="#CED4DA"/>
<path d="M169 73C169 70.2386 171.239 68 174 68C176.761 68 179 70.2386 179 73V86H169V73Z" fill="#8C68CD"/>
<path d="M223 5C223 2.23858 225.239 0 228 0C230.761 0 233 2.23858 233 5V86H223V5Z" fill="#CED4DA"/>
<path d="M223 29C223 26.2386 225.239 24 228 24C230.761 24 233 26.2386 233 29V86H223V29Z" fill="#8C68CD"/>
<path d="M277 5C277 2.23858 279.239 0 282 0C284.761 0 287 2.23858 287 5V86H277V5Z" fill="#CED4DA"/>
<path d="M277 22C277 19.2386 279.239 17 282 17C284.761 17 287 19.2386 287 22V86H277V22Z" fill="#8C68CD"/>
<path d="M331 5C331 2.23858 333.239 0 336 0C338.761 0 341 2.23858 341 5V86H331V5Z" fill="#CED4DA"/>
<path d="M331 25C331 22.2386 333.239 20 336 20C338.761 20 341 22.2386 341 25V86H331V25Z" fill="#8C68CD"/>
<path d="M385 5C385 2.23858 387.239 0 390 0C392.761 0 395 2.23858 395 5V86H385V5Z" fill="#CED4DA"/>
<path d="M385 44C385 41.2386 387.239 39 390 39C392.761 39 395 41.2386 395 44V86H385V44Z" fill="#8C68CD"/>
<path d="M439 5C439 2.23858 441.239 0 444 0C446.761 0 449 2.23858 449 5V86H439V5Z" fill="#CED4DA"/>
<path d="M439 67C439 64.2386 441.239 62 444 62C446.761 62 449 64.2386 449 67V86H439V67Z" fill="#8C68CD"/>
<path d="M493 5C493 2.23858 495.239 0 498 0C500.761 0 503 2.23858 503 5V86H493V5Z" fill="#CED4DA"/>
<path d="M493 29C493 26.2386 495.239 24 498 24C500.761 24 503 26.2386 503 29V86H493V29Z" fill="#8C68CD"/>
<path d="M547 5C547 2.23858 549.239 0 552 0C554.761 0 557 2.23858 557 5V86H547V5Z" fill="#CED4DA"/>
<path d="M547 36C547 33.2386 549.239 31 552 31C554.761 31 557 33.2386 557 36V86H547V36Z" fill="#8C68CD"/>
<path d="M601 5C601 2.23858 603.239 0 606 0C608.761 0 611 2.23858 611 5V86H601V5Z" fill="#CED4DA"/>
<path d="M601 29C601 26.2386 603.239 24 606 24C608.761 24 611 26.2386 611 29V86H601V29Z" fill="#8C68CD"/>
</svg>
