<svg width="268" height="115" viewBox="0 0 268 115" fill="none" xmlns="http://www.w3.org/2000/svg">
<line x1="40.5" y1="94.5" x2="262.5" y2="94.5" stroke="#DEE2E6" stroke-linecap="round"/>
<path d="M49.5371 104.225L46.7129 112H45.5586L48.8105 103.469H49.5547L49.5371 104.225ZM51.9043 112L49.0742 104.225L49.0566 103.469H49.8008L53.0645 112H51.9043ZM51.7578 108.842V109.768H46.9648V108.842H51.7578ZM54.207 103.469H57.0312C57.6719 103.469 58.2129 103.566 58.6543 103.762C59.0996 103.957 59.4375 104.246 59.668 104.629C59.9023 105.008 60.0195 105.475 60.0195 106.029C60.0195 106.42 59.9395 106.777 59.7793 107.102C59.623 107.422 59.3965 107.695 59.0996 107.922C58.8066 108.145 58.4551 108.311 58.0449 108.42L57.7285 108.543H55.0742L55.0625 107.623H57.0664C57.4727 107.623 57.8105 107.553 58.0801 107.412C58.3496 107.268 58.5527 107.074 58.6895 106.832C58.8262 106.59 58.8945 106.322 58.8945 106.029C58.8945 105.701 58.8301 105.414 58.7012 105.168C58.5723 104.922 58.3691 104.732 58.0918 104.6C57.8184 104.463 57.4648 104.395 57.0312 104.395H55.3379V112H54.207V103.469ZM59.1934 112L57.1191 108.133L58.2969 108.127L60.4004 111.93V112H59.1934Z" fill="#ADB5BD"/>
<path d="M74.4473 109.287H75.5723C75.5137 109.826 75.3594 110.309 75.1094 110.734C74.8594 111.16 74.5059 111.498 74.0488 111.748C73.5918 111.994 73.0215 112.117 72.3379 112.117C71.8379 112.117 71.3828 112.023 70.9727 111.836C70.5664 111.648 70.2168 111.383 69.9238 111.039C69.6309 110.691 69.4043 110.275 69.2441 109.791C69.0879 109.303 69.0098 108.76 69.0098 108.162V107.312C69.0098 106.715 69.0879 106.174 69.2441 105.689C69.4043 105.201 69.6328 104.783 69.9297 104.436C70.2305 104.088 70.5918 103.82 71.0137 103.633C71.4355 103.445 71.9102 103.352 72.4375 103.352C73.082 103.352 73.627 103.473 74.0723 103.715C74.5176 103.957 74.8633 104.293 75.1094 104.723C75.3594 105.148 75.5137 105.643 75.5723 106.205H74.4473C74.3926 105.807 74.291 105.465 74.1426 105.18C73.9941 104.891 73.7832 104.668 73.5098 104.512C73.2363 104.355 72.8789 104.277 72.4375 104.277C72.0586 104.277 71.7246 104.35 71.4355 104.494C71.1504 104.639 70.9102 104.844 70.7148 105.109C70.5234 105.375 70.3789 105.693 70.2812 106.064C70.1836 106.436 70.1348 106.848 70.1348 107.301V108.162C70.1348 108.58 70.1777 108.973 70.2637 109.34C70.3535 109.707 70.4883 110.029 70.668 110.307C70.8477 110.584 71.0762 110.803 71.3535 110.963C71.6309 111.119 71.959 111.197 72.3379 111.197C72.8184 111.197 73.2012 111.121 73.4863 110.969C73.7715 110.816 73.9863 110.598 74.1309 110.312C74.2793 110.027 74.3848 109.686 74.4473 109.287ZM80.2598 108.654H77.9805V107.734H80.2598C80.7012 107.734 81.0586 107.664 81.332 107.523C81.6055 107.383 81.8047 107.188 81.9297 106.938C82.0586 106.688 82.123 106.402 82.123 106.082C82.123 105.789 82.0586 105.514 81.9297 105.256C81.8047 104.998 81.6055 104.791 81.332 104.635C81.0586 104.475 80.7012 104.395 80.2598 104.395H78.2441V112H77.1133V103.469H80.2598C80.9043 103.469 81.4492 103.58 81.8945 103.803C82.3398 104.025 82.6777 104.334 82.9082 104.729C83.1387 105.119 83.2539 105.566 83.2539 106.07C83.2539 106.617 83.1387 107.084 82.9082 107.471C82.6777 107.857 82.3398 108.152 81.8945 108.355C81.4492 108.555 80.9043 108.654 80.2598 108.654Z" fill="#ADB5BD"/>
<path d="M97.4492 109.287H98.5742C98.5156 109.826 98.3613 110.309 98.1113 110.734C97.8613 111.16 97.5078 111.498 97.0508 111.748C96.5938 111.994 96.0234 112.117 95.3398 112.117C94.8398 112.117 94.3848 112.023 93.9746 111.836C93.5684 111.648 93.2188 111.383 92.9258 111.039C92.6328 110.691 92.4062 110.275 92.2461 109.791C92.0898 109.303 92.0117 108.76 92.0117 108.162V107.312C92.0117 106.715 92.0898 106.174 92.2461 105.689C92.4062 105.201 92.6348 104.783 92.9316 104.436C93.2324 104.088 93.5938 103.82 94.0156 103.633C94.4375 103.445 94.9121 103.352 95.4395 103.352C96.084 103.352 96.6289 103.473 97.0742 103.715C97.5195 103.957 97.8652 104.293 98.1113 104.723C98.3613 105.148 98.5156 105.643 98.5742 106.205H97.4492C97.3945 105.807 97.293 105.465 97.1445 105.18C96.9961 104.891 96.7852 104.668 96.5117 104.512C96.2383 104.355 95.8809 104.277 95.4395 104.277C95.0605 104.277 94.7266 104.35 94.4375 104.494C94.1523 104.639 93.9121 104.844 93.7168 105.109C93.5254 105.375 93.3809 105.693 93.2832 106.064C93.1855 106.436 93.1367 106.848 93.1367 107.301V108.162C93.1367 108.58 93.1797 108.973 93.2656 109.34C93.3555 109.707 93.4902 110.029 93.6699 110.307C93.8496 110.584 94.0781 110.803 94.3555 110.963C94.6328 111.119 94.9609 111.197 95.3398 111.197C95.8203 111.197 96.2031 111.121 96.4883 110.969C96.7734 110.816 96.9883 110.598 97.1328 110.312C97.2812 110.027 97.3867 109.686 97.4492 109.287ZM105.688 107.137V108.057H101.07V107.137H105.688ZM101.246 103.469V112H100.115V103.469H101.246ZM106.672 103.469V112H105.547V103.469H106.672Z" fill="#ADB5BD"/>
<path d="M121.494 109.287H122.619C122.561 109.826 122.406 110.309 122.156 110.734C121.906 111.16 121.553 111.498 121.096 111.748C120.639 111.994 120.068 112.117 119.385 112.117C118.885 112.117 118.43 112.023 118.02 111.836C117.613 111.648 117.264 111.383 116.971 111.039C116.678 110.691 116.451 110.275 116.291 109.791C116.135 109.303 116.057 108.76 116.057 108.162V107.312C116.057 106.715 116.135 106.174 116.291 105.689C116.451 105.201 116.68 104.783 116.977 104.436C117.277 104.088 117.639 103.82 118.061 103.633C118.482 103.445 118.957 103.352 119.484 103.352C120.129 103.352 120.674 103.473 121.119 103.715C121.564 103.957 121.91 104.293 122.156 104.723C122.406 105.148 122.561 105.643 122.619 106.205H121.494C121.439 105.807 121.338 105.465 121.189 105.18C121.041 104.891 120.83 104.668 120.557 104.512C120.283 104.355 119.926 104.277 119.484 104.277C119.105 104.277 118.771 104.35 118.482 104.494C118.197 104.639 117.957 104.844 117.762 105.109C117.57 105.375 117.426 105.693 117.328 106.064C117.23 106.436 117.182 106.848 117.182 107.301V108.162C117.182 108.58 117.225 108.973 117.311 109.34C117.4 109.707 117.535 110.029 117.715 110.307C117.895 110.584 118.123 110.803 118.4 110.963C118.678 111.119 119.006 111.197 119.385 111.197C119.865 111.197 120.248 111.121 120.533 110.969C120.818 110.816 121.033 110.598 121.178 110.312C121.326 110.027 121.432 109.686 121.494 109.287ZM127.201 108.01H125.039L125.027 107.102H126.99C127.314 107.102 127.598 107.047 127.84 106.938C128.082 106.828 128.27 106.672 128.402 106.469C128.539 106.262 128.607 106.016 128.607 105.73C128.607 105.418 128.547 105.164 128.426 104.969C128.309 104.77 128.127 104.625 127.881 104.535C127.639 104.441 127.33 104.395 126.955 104.395H125.291V112H124.16V103.469H126.955C127.393 103.469 127.783 103.514 128.127 103.604C128.471 103.689 128.762 103.826 129 104.014C129.242 104.197 129.426 104.432 129.551 104.717C129.676 105.002 129.738 105.344 129.738 105.742C129.738 106.094 129.648 106.412 129.469 106.697C129.289 106.979 129.039 107.209 128.719 107.389C128.402 107.568 128.031 107.684 127.605 107.734L127.201 108.01ZM127.148 112H124.594L125.232 111.08H127.148C127.508 111.08 127.812 111.018 128.062 110.893C128.316 110.768 128.51 110.592 128.643 110.365C128.775 110.135 128.842 109.863 128.842 109.551C128.842 109.234 128.785 108.961 128.672 108.73C128.559 108.5 128.381 108.322 128.139 108.197C127.896 108.072 127.584 108.01 127.201 108.01H125.59L125.602 107.102H127.805L128.045 107.43C128.455 107.465 128.803 107.582 129.088 107.781C129.373 107.977 129.59 108.227 129.738 108.531C129.891 108.836 129.967 109.172 129.967 109.539C129.967 110.07 129.85 110.52 129.615 110.887C129.385 111.25 129.059 111.527 128.637 111.719C128.215 111.906 127.719 112 127.148 112Z" fill="#ADB5BD"/>
<path d="M141.578 112H139.797L139.809 111.08H141.578C142.188 111.08 142.695 110.953 143.102 110.699C143.508 110.441 143.812 110.082 144.016 109.621C144.223 109.156 144.326 108.613 144.326 107.992V107.471C144.326 106.982 144.268 106.549 144.15 106.17C144.033 105.787 143.861 105.465 143.635 105.203C143.408 104.938 143.131 104.736 142.803 104.6C142.479 104.463 142.105 104.395 141.684 104.395H139.762V103.469H141.684C142.242 103.469 142.752 103.562 143.213 103.75C143.674 103.934 144.07 104.201 144.402 104.553C144.738 104.9 144.996 105.322 145.176 105.818C145.355 106.311 145.445 106.865 145.445 107.482V107.992C145.445 108.609 145.355 109.166 145.176 109.662C144.996 110.154 144.736 110.574 144.396 110.922C144.061 111.27 143.654 111.537 143.178 111.725C142.705 111.908 142.172 112 141.578 112ZM140.4 103.469V112H139.27V103.469H140.4ZM152.717 107.137V108.057H148.1V107.137H152.717ZM148.275 103.469V112H147.145V103.469H148.275ZM153.701 103.469V112H152.576V103.469H153.701Z" fill="#ADB5BD"/>
<path d="M168.562 111.08V112H164.045V111.08H168.562ZM164.273 103.469V112H163.143V103.469H164.273ZM167.965 107.137V108.057H164.045V107.137H167.965ZM168.504 103.469V104.395H164.045V103.469H168.504ZM172.271 112H170.49L170.502 111.08H172.271C172.881 111.08 173.389 110.953 173.795 110.699C174.201 110.441 174.506 110.082 174.709 109.621C174.916 109.156 175.02 108.613 175.02 107.992V107.471C175.02 106.982 174.961 106.549 174.844 106.17C174.727 105.787 174.555 105.465 174.328 105.203C174.102 104.938 173.824 104.736 173.496 104.6C173.172 104.463 172.799 104.395 172.377 104.395H170.455V103.469H172.377C172.936 103.469 173.445 103.562 173.906 103.75C174.367 103.934 174.764 104.201 175.096 104.553C175.432 104.9 175.689 105.322 175.869 105.818C176.049 106.311 176.139 106.865 176.139 107.482V107.992C176.139 108.609 176.049 109.166 175.869 109.662C175.689 110.154 175.43 110.574 175.09 110.922C174.754 111.27 174.348 111.537 173.871 111.725C173.398 111.908 172.865 112 172.271 112ZM171.094 103.469V112H169.963V103.469H171.094Z" fill="#ADB5BD"/>
<path d="M185.412 103.469H186.508L189.303 110.424L192.092 103.469H193.193L189.725 112H188.869L185.412 103.469ZM185.055 103.469H186.021L186.18 108.672V112H185.055V103.469ZM192.578 103.469H193.545V112H192.42V108.672L192.578 103.469ZM195.531 103.469H198.355C198.996 103.469 199.537 103.566 199.979 103.762C200.424 103.957 200.762 104.246 200.992 104.629C201.227 105.008 201.344 105.475 201.344 106.029C201.344 106.42 201.264 106.777 201.104 107.102C200.947 107.422 200.721 107.695 200.424 107.922C200.131 108.145 199.779 108.311 199.369 108.42L199.053 108.543H196.398L196.387 107.623H198.391C198.797 107.623 199.135 107.553 199.404 107.412C199.674 107.268 199.877 107.074 200.014 106.832C200.15 106.59 200.219 106.322 200.219 106.029C200.219 105.701 200.154 105.414 200.025 105.168C199.896 104.922 199.693 104.732 199.416 104.6C199.143 104.463 198.789 104.395 198.355 104.395H196.662V112H195.531V103.469ZM200.518 112L198.443 108.133L199.621 108.127L201.725 111.93V112H200.518Z" fill="#ADB5BD"/>
<path d="M213.455 103.469V112H212.342V103.469H213.455ZM216.197 103.469V104.395H209.605V103.469H216.197ZM219.637 109.51V103.469H220.762V109.51C220.762 110.072 220.646 110.547 220.416 110.934C220.186 111.32 219.867 111.615 219.461 111.818C219.059 112.018 218.596 112.117 218.072 112.117C217.549 112.117 217.084 112.027 216.678 111.848C216.271 111.668 215.953 111.395 215.723 111.027C215.492 110.66 215.377 110.197 215.377 109.639H216.508C216.508 109.998 216.574 110.293 216.707 110.523C216.84 110.754 217.023 110.924 217.258 111.033C217.496 111.143 217.768 111.197 218.072 111.197C218.369 111.197 218.635 111.135 218.869 111.01C219.107 110.881 219.295 110.691 219.432 110.441C219.568 110.188 219.637 109.877 219.637 109.51Z" fill="#ADB5BD"/>
<path d="M233.279 103.469V112H232.166V103.469H233.279ZM236.021 103.469V104.395H229.43V103.469H236.021ZM243.85 103.469V112H242.713L238.418 105.42V112H237.287V103.469H238.418L242.73 110.066V103.469H243.85Z" fill="#ADB5BD"/>
<path d="M256.227 110.705L258.74 103.469H259.965L256.807 112H255.934L256.227 110.705ZM253.877 103.469L256.367 110.705L256.678 112H255.805L252.652 103.469H253.877ZM261.113 103.469H263.938C264.578 103.469 265.119 103.566 265.561 103.762C266.006 103.957 266.344 104.246 266.574 104.629C266.809 105.008 266.926 105.475 266.926 106.029C266.926 106.42 266.846 106.777 266.686 107.102C266.529 107.422 266.303 107.695 266.006 107.922C265.713 108.145 265.361 108.311 264.951 108.42L264.635 108.543H261.98L261.969 107.623H263.973C264.379 107.623 264.717 107.553 264.986 107.412C265.256 107.268 265.459 107.074 265.596 106.832C265.732 106.59 265.801 106.322 265.801 106.029C265.801 105.701 265.736 105.414 265.607 105.168C265.479 104.922 265.275 104.732 264.998 104.6C264.725 104.463 264.371 104.395 263.938 104.395H262.244V112H261.113V103.469ZM266.1 112L264.025 108.133L265.203 108.127L267.307 111.93V112H266.1Z" fill="#ADB5BD"/>
<line x1="39.5" y1="94.5" x2="39.5" y2="1.5" stroke="#DEE2E6" stroke-linecap="round"/>
<path d="M18.7715 2.42188V11H17.6875V3.77539L15.502 4.57227V3.59375L18.6016 2.42188H18.7715ZM23.3301 6.93945L22.4629 6.7168L22.8906 2.46875H27.2676V3.4707H23.8105L23.5527 5.79102C23.709 5.70117 23.9062 5.61719 24.1445 5.53906C24.3867 5.46094 24.6641 5.42188 24.9766 5.42188C25.3711 5.42188 25.7246 5.49023 26.0371 5.62695C26.3496 5.75977 26.6152 5.95117 26.834 6.20117C27.0566 6.45117 27.2266 6.75195 27.3438 7.10352C27.4609 7.45508 27.5195 7.84766 27.5195 8.28125C27.5195 8.69141 27.4629 9.06836 27.3496 9.41211C27.2402 9.75586 27.0742 10.0566 26.8516 10.3145C26.6289 10.5684 26.3477 10.7656 26.0078 10.9062C25.6719 11.0469 25.2754 11.1172 24.8184 11.1172C24.4746 11.1172 24.1484 11.0703 23.8398 10.9766C23.5352 10.8789 23.2617 10.7324 23.0195 10.5371C22.7812 10.3379 22.5859 10.0918 22.4336 9.79883C22.2852 9.50195 22.1914 9.1543 22.1523 8.75586H23.1836C23.2305 9.07617 23.3242 9.3457 23.4648 9.56445C23.6055 9.7832 23.7891 9.94922 24.0156 10.0625C24.2461 10.1719 24.5137 10.2266 24.8184 10.2266C25.0762 10.2266 25.3047 10.1816 25.5039 10.0918C25.7031 10.002 25.8711 9.87305 26.0078 9.70508C26.1445 9.53711 26.248 9.33398 26.3184 9.0957C26.3926 8.85742 26.4297 8.58984 26.4297 8.29297C26.4297 8.02344 26.3926 7.77344 26.3184 7.54297C26.2441 7.3125 26.1328 7.11133 25.9844 6.93945C25.8398 6.76758 25.6621 6.63477 25.4512 6.54102C25.2402 6.44336 24.998 6.39453 24.7246 6.39453C24.3613 6.39453 24.0859 6.44336 23.8984 6.54102C23.7148 6.63867 23.5254 6.77148 23.3301 6.93945Z" fill="#ADB5BD"/>
<path d="M18.7715 31.4219V40H17.6875V32.7754L15.502 33.5723V32.5938L18.6016 31.4219H18.7715ZM27.3145 35.0547V36.3555C27.3145 37.0547 27.252 37.6445 27.127 38.125C27.002 38.6055 26.8223 38.9922 26.5879 39.2852C26.3535 39.5781 26.0703 39.791 25.7383 39.9238C25.4102 40.0527 25.0391 40.1172 24.625 40.1172C24.2969 40.1172 23.9941 40.0762 23.7168 39.9941C23.4395 39.9121 23.1895 39.7812 22.9668 39.6016C22.748 39.418 22.5605 39.1797 22.4043 38.8867C22.248 38.5938 22.1289 38.2383 22.0469 37.8203C21.9648 37.4023 21.9238 36.9141 21.9238 36.3555V35.0547C21.9238 34.3555 21.9863 33.7695 22.1113 33.2969C22.2402 32.8242 22.4219 32.4453 22.6562 32.1602C22.8906 31.8711 23.1719 31.6641 23.5 31.5391C23.832 31.4141 24.2031 31.3516 24.6133 31.3516C24.9453 31.3516 25.25 31.3926 25.5273 31.4746C25.8086 31.5527 26.0586 31.6797 26.2773 31.8555C26.4961 32.0273 26.6816 32.2578 26.834 32.5469C26.9902 32.832 27.1094 33.1816 27.1914 33.5957C27.2734 34.0098 27.3145 34.4961 27.3145 35.0547ZM26.2246 36.5312V34.873C26.2246 34.4902 26.2012 34.1543 26.1543 33.8652C26.1113 33.5723 26.0469 33.3223 25.9609 33.1152C25.875 32.9082 25.7656 32.7402 25.6328 32.6113C25.5039 32.4824 25.3535 32.3887 25.1816 32.3301C25.0137 32.2676 24.8242 32.2363 24.6133 32.2363C24.3555 32.2363 24.127 32.2852 23.9277 32.3828C23.7285 32.4766 23.5605 32.627 23.4238 32.834C23.291 33.041 23.1895 33.3125 23.1191 33.6484C23.0488 33.9844 23.0137 34.3926 23.0137 34.873V36.5312C23.0137 36.9141 23.0352 37.252 23.0781 37.5449C23.125 37.8379 23.1934 38.0918 23.2832 38.3066C23.373 38.5176 23.4824 38.6914 23.6113 38.8281C23.7402 38.9648 23.8887 39.0664 24.0566 39.1328C24.2285 39.1953 24.418 39.2266 24.625 39.2266C24.8906 39.2266 25.123 39.1758 25.3223 39.0742C25.5215 38.9727 25.6875 38.8145 25.8203 38.5996C25.957 38.3809 26.0586 38.1016 26.125 37.7617C26.1914 37.418 26.2246 37.0078 26.2246 36.5312Z" fill="#ADB5BD"/>
<path d="M23.3301 64.9395L22.4629 64.7168L22.8906 60.4688H27.2676V61.4707H23.8105L23.5527 63.791C23.709 63.7012 23.9062 63.6172 24.1445 63.5391C24.3867 63.4609 24.6641 63.4219 24.9766 63.4219C25.3711 63.4219 25.7246 63.4902 26.0371 63.627C26.3496 63.7598 26.6152 63.9512 26.834 64.2012C27.0566 64.4512 27.2266 64.752 27.3438 65.1035C27.4609 65.4551 27.5195 65.8477 27.5195 66.2812C27.5195 66.6914 27.4629 67.0684 27.3496 67.4121C27.2402 67.7559 27.0742 68.0566 26.8516 68.3145C26.6289 68.5684 26.3477 68.7656 26.0078 68.9062C25.6719 69.0469 25.2754 69.1172 24.8184 69.1172C24.4746 69.1172 24.1484 69.0703 23.8398 68.9766C23.5352 68.8789 23.2617 68.7324 23.0195 68.5371C22.7812 68.3379 22.5859 68.0918 22.4336 67.7988C22.2852 67.502 22.1914 67.1543 22.1523 66.7559H23.1836C23.2305 67.0762 23.3242 67.3457 23.4648 67.5645C23.6055 67.7832 23.7891 67.9492 24.0156 68.0625C24.2461 68.1719 24.5137 68.2266 24.8184 68.2266C25.0762 68.2266 25.3047 68.1816 25.5039 68.0918C25.7031 68.002 25.8711 67.873 26.0078 67.7051C26.1445 67.5371 26.248 67.334 26.3184 67.0957C26.3926 66.8574 26.4297 66.5898 26.4297 66.293C26.4297 66.0234 26.3926 65.7734 26.3184 65.543C26.2441 65.3125 26.1328 65.1113 25.9844 64.9395C25.8398 64.7676 25.6621 64.6348 25.4512 64.541C25.2402 64.4434 24.998 64.3945 24.7246 64.3945C24.3613 64.3945 24.0859 64.4434 23.8984 64.541C23.7148 64.6387 23.5254 64.7715 23.3301 64.9395Z" fill="#ADB5BD"/>
<path d="M27.3145 93.0547V94.3555C27.3145 95.0547 27.252 95.6445 27.127 96.125C27.002 96.6055 26.8223 96.9922 26.5879 97.2852C26.3535 97.5781 26.0703 97.791 25.7383 97.9238C25.4102 98.0527 25.0391 98.1172 24.625 98.1172C24.2969 98.1172 23.9941 98.0762 23.7168 97.9941C23.4395 97.9121 23.1895 97.7812 22.9668 97.6016C22.748 97.418 22.5605 97.1797 22.4043 96.8867C22.248 96.5938 22.1289 96.2383 22.0469 95.8203C21.9648 95.4023 21.9238 94.9141 21.9238 94.3555V93.0547C21.9238 92.3555 21.9863 91.7695 22.1113 91.2969C22.2402 90.8242 22.4219 90.4453 22.6562 90.1602C22.8906 89.8711 23.1719 89.6641 23.5 89.5391C23.832 89.4141 24.2031 89.3516 24.6133 89.3516C24.9453 89.3516 25.25 89.3926 25.5273 89.4746C25.8086 89.5527 26.0586 89.6797 26.2773 89.8555C26.4961 90.0273 26.6816 90.2578 26.834 90.5469C26.9902 90.832 27.1094 91.1816 27.1914 91.5957C27.2734 92.0098 27.3145 92.4961 27.3145 93.0547ZM26.2246 94.5312V92.873C26.2246 92.4902 26.2012 92.1543 26.1543 91.8652C26.1113 91.5723 26.0469 91.3223 25.9609 91.1152C25.875 90.9082 25.7656 90.7402 25.6328 90.6113C25.5039 90.4824 25.3535 90.3887 25.1816 90.3301C25.0137 90.2676 24.8242 90.2363 24.6133 90.2363C24.3555 90.2363 24.127 90.2852 23.9277 90.3828C23.7285 90.4766 23.5605 90.627 23.4238 90.834C23.291 91.041 23.1895 91.3125 23.1191 91.6484C23.0488 91.9844 23.0137 92.3926 23.0137 92.873V94.5312C23.0137 94.9141 23.0352 95.252 23.0781 95.5449C23.125 95.8379 23.1934 96.0918 23.2832 96.3066C23.373 96.5176 23.4824 96.6914 23.6113 96.8281C23.7402 96.9648 23.8887 97.0664 24.0566 97.1328C24.2285 97.1953 24.418 97.2266 24.625 97.2266C24.8906 97.2266 25.123 97.1758 25.3223 97.0742C25.5215 96.9727 25.6875 96.8145 25.8203 96.5996C25.957 96.3809 26.0586 96.1016 26.125 95.7617C26.1914 95.418 26.2246 95.0078 26.2246 94.5312Z" fill="#ADB5BD"/>
<path d="M51.5 86.0001C53.5 79.3334 63 71.0001 74.5 62.0001C92.5 53 120 62.8001 162 62.0001C213.5 61.0191 242.6 54.9001 257 28.5001" stroke="#0AA2C0" stroke-linecap="round"/>
<circle cx="52" cy="85" r="2" fill="#0DCAF0"/>
<circle cx="75" cy="62" r="2" fill="#0DCAF0"/>
<circle cx="101" cy="58" r="2" fill="#0DCAF0"/>
<circle cx="123" cy="60" r="2" fill="#0DCAF0"/>
<circle cx="146" cy="62" r="2" fill="#0DCAF0"/>
<circle cx="170" cy="61" r="2" fill="#0DCAF0"/>
<circle cx="193" cy="60" r="2" fill="#0DCAF0"/>
<circle cx="217" cy="56" r="2" fill="#0DCAF0"/>
<circle cx="237" cy="49" r="2" fill="#0DCAF0"/>
<circle cx="257" cy="29" r="2" fill="#0DCAF0"/>
<path d="M5.91992 42.6191H11V43.709H4.66016V42.6777L5.91992 42.6191ZM7.58984 42.8418L7.57227 43.3457C7.13867 43.3418 6.73828 43.2852 6.37109 43.1758C6 43.0664 5.67773 42.9043 5.4043 42.6895C5.13086 42.4746 4.91992 42.207 4.77148 41.8867C4.61914 41.5664 4.54297 41.1953 4.54297 40.7734C4.54297 40.4766 4.58594 40.2031 4.67188 39.9531C4.75391 39.7031 4.88477 39.4863 5.06445 39.3027C5.24414 39.1191 5.47461 38.9766 5.75586 38.875C6.03711 38.7734 6.37695 38.7227 6.77539 38.7227H11V39.8066H6.82812C6.49609 39.8066 6.23047 39.8633 6.03125 39.9766C5.83203 40.0859 5.6875 40.2422 5.59766 40.4453C5.50391 40.6484 5.45703 40.8867 5.45703 41.1602C5.45703 41.4805 5.51367 41.748 5.62695 41.9629C5.74023 42.1777 5.89648 42.3496 6.0957 42.4785C6.29492 42.6074 6.52344 42.7012 6.78125 42.7598C7.03516 42.8145 7.30469 42.8418 7.58984 42.8418ZM6.99219 38.7344L7.21484 39.4609C6.86719 39.457 6.5332 39.4004 6.21289 39.291C5.89258 39.1777 5.60742 39.0156 5.35742 38.8047C5.10742 38.5898 4.91016 38.3262 4.76562 38.0137C4.61719 37.7012 4.54297 37.3438 4.54297 36.9414C4.54297 36.6016 4.58789 36.3008 4.67773 36.0391C4.76758 35.7734 4.90625 35.5508 5.09375 35.3711C5.27734 35.1875 5.51367 35.0488 5.80273 34.9551C6.0918 34.8613 6.43555 34.8145 6.83398 34.8145H11V35.9043H6.82227C6.4668 35.9043 6.19141 35.9609 5.99609 36.0742C5.79688 36.1836 5.6582 36.3398 5.58008 36.543C5.49805 36.7422 5.45703 36.9805 5.45703 37.2578C5.45703 37.4961 5.49805 37.707 5.58008 37.8906C5.66211 38.0742 5.77539 38.2285 5.91992 38.3535C6.06055 38.4785 6.22266 38.5742 6.40625 38.6406C6.58984 38.7031 6.78516 38.7344 6.99219 38.7344ZM5.91992 32.0957H11V33.1855H4.66016V32.1543L5.91992 32.0957ZM7.58984 32.3184L7.57227 32.8223C7.13867 32.8184 6.73828 32.7617 6.37109 32.6523C6 32.543 5.67773 32.3809 5.4043 32.166C5.13086 31.9512 4.91992 31.6836 4.77148 31.3633C4.61914 31.043 4.54297 30.6719 4.54297 30.25C4.54297 29.9531 4.58594 29.6797 4.67188 29.4297C4.75391 29.1797 4.88477 28.9629 5.06445 28.7793C5.24414 28.5957 5.47461 28.4531 5.75586 28.3516C6.03711 28.25 6.37695 28.1992 6.77539 28.1992H11V29.2832H6.82812C6.49609 29.2832 6.23047 29.3398 6.03125 29.4531C5.83203 29.5625 5.6875 29.7188 5.59766 29.9219C5.50391 30.125 5.45703 30.3633 5.45703 30.6367C5.45703 30.957 5.51367 31.2246 5.62695 31.4395C5.74023 31.6543 5.89648 31.8262 6.0957 31.9551C6.29492 32.084 6.52344 32.1777 6.78125 32.2363C7.03516 32.291 7.30469 32.3184 7.58984 32.3184ZM6.99219 28.2109L7.21484 28.9375C6.86719 28.9336 6.5332 28.877 6.21289 28.7676C5.89258 28.6543 5.60742 28.4922 5.35742 28.2812C5.10742 28.0664 4.91016 27.8027 4.76562 27.4902C4.61719 27.1777 4.54297 26.8203 4.54297 26.418C4.54297 26.0781 4.58789 25.7773 4.67773 25.5156C4.76758 25.25 4.90625 25.0273 5.09375 24.8477C5.27734 24.6641 5.51367 24.5254 5.80273 24.4316C6.0918 24.3379 6.43555 24.291 6.83398 24.291H11V25.3809H6.82227C6.4668 25.3809 6.19141 25.4375 5.99609 25.5508C5.79688 25.6602 5.6582 25.8164 5.58008 26.0195C5.49805 26.2188 5.45703 26.457 5.45703 26.7344C5.45703 26.9727 5.49805 27.1836 5.58008 27.3672C5.66211 27.5508 5.77539 27.7051 5.91992 27.8301C6.06055 27.9551 6.22266 28.0508 6.40625 28.1172C6.58984 28.1797 6.78516 28.2109 6.99219 28.2109Z" fill="#ADB5BD"/>
</svg>
