<svg width="265" height="133" viewBox="0 0 265 133" fill="none" xmlns="http://www.w3.org/2000/svg">
<path fill-rule="evenodd" clip-rule="evenodd" d="M189.442 65.938C187.93 76.7155 183.39 86.8425 176.351 95.1422L154.425 76.5454C157.945 72.3956 160.215 67.3321 160.971 61.9433C161.727 56.5546 160.938 51.0619 158.697 46.1037C156.455 41.1455 152.852 36.9253 148.306 33.9336C143.761 30.942 138.46 29.3017 133.019 29.2034C127.579 29.1051 122.222 30.5528 117.572 33.3783C112.921 36.2038 109.168 40.2911 106.748 45.1651C104.329 50.0391 103.342 55.4997 103.903 60.9122C104.464 66.3248 106.55 71.467 109.917 75.7412L87.3343 93.5338C80.599 84.9853 76.4282 74.7009 75.3063 63.8758C74.1845 53.0507 76.1578 42.1296 80.9969 32.3816C85.836 22.6336 93.3421 14.459 102.643 8.80797C111.944 3.15693 122.658 0.261453 133.539 0.458054C144.42 0.654654 155.022 3.93526 164.113 9.9186C173.203 15.9019 180.409 24.3423 184.893 34.2588C189.377 44.1752 190.954 55.1605 189.442 65.938Z" fill="#0AA2C0"/>
<path fill-rule="evenodd" clip-rule="evenodd" d="M155.782 110.996C163.449 107.487 170.25 102.335 175.704 95.9048L153.779 77.3081C151.052 80.5231 147.651 83.0991 143.818 84.8535C143.758 84.8809 143.698 84.9081 143.638 84.9351C139.854 86.6355 135.746 87.4973 131.597 87.4602C131.333 87.4578 131.07 87.4519 130.807 87.4423C126.863 87.2986 122.988 86.3443 119.424 84.6356C119.186 84.5217 118.95 84.4046 118.716 84.2844C115.207 82.4818 112.104 79.9749 109.603 76.9174C109.601 76.9161 109.6 76.9148 109.599 76.9135L87.3452 95.1156C88.0125 95.9314 88.7012 96.7276 89.4103 97.5035C94.3744 102.935 100.342 107.37 106.994 110.56C114.597 114.205 122.909 116.134 131.34 116.209C139.771 116.284 148.116 114.505 155.782 110.996Z" fill="#ADB5BD"/>
<path d="M125.521 60.2128C125.521 60.9264 125.354 61.5279 125.021 62.0175C124.687 62.5019 124.229 62.8691 123.646 63.1191C123.067 63.3639 122.411 63.4863 121.677 63.4863C120.942 63.4863 120.284 63.3639 119.7 63.1191C119.117 62.8691 118.656 62.5019 118.317 62.0175C117.979 61.5279 117.81 60.9264 117.81 60.2128C117.81 59.7337 117.906 59.3014 118.099 58.916C118.291 58.5253 118.56 58.192 118.903 57.916C119.252 57.6347 119.661 57.4212 120.13 57.2753C120.599 57.1243 121.109 57.0488 121.661 57.0488C122.401 57.0488 123.062 57.179 123.646 57.4394C124.229 57.6998 124.687 58.067 125.021 58.541C125.354 59.0149 125.521 59.5722 125.521 60.2128ZM123.255 60.0644C123.255 59.7154 123.187 59.416 123.052 59.166C122.922 58.9107 122.737 58.7154 122.497 58.58C122.257 58.4446 121.979 58.3769 121.661 58.3769C121.343 58.3769 121.065 58.4446 120.825 58.58C120.586 58.7154 120.398 58.9107 120.263 59.166C120.132 59.416 120.067 59.7154 120.067 60.0644C120.067 60.4081 120.132 60.705 120.263 60.955C120.398 61.205 120.586 61.3977 120.825 61.5331C121.07 61.6634 121.354 61.7285 121.677 61.7285C122 61.7285 122.278 61.6634 122.513 61.5331C122.752 61.3977 122.935 61.205 123.06 60.955C123.19 60.705 123.255 60.4081 123.255 60.0644ZM125.278 54.9706C125.278 55.5488 125.125 56.0618 124.817 56.5097C124.51 56.9524 124.083 57.2988 123.536 57.5488C122.994 57.7988 122.375 57.9238 121.677 57.9238C120.974 57.9238 120.349 57.7988 119.802 57.5488C119.255 57.2988 118.828 56.9524 118.521 56.5097C118.213 56.0618 118.06 55.5488 118.06 54.9706C118.06 54.2831 118.213 53.705 118.521 53.2363C118.833 52.7623 119.26 52.4029 119.802 52.1581C120.349 51.9134 120.968 51.791 121.661 51.791C122.364 51.791 122.987 51.9134 123.528 52.1581C124.075 52.4029 124.502 52.7623 124.81 53.2363C125.122 53.705 125.278 54.2831 125.278 54.9706ZM123.028 55.0722C123.028 54.7649 122.974 54.4993 122.864 54.2753C122.755 54.0462 122.599 53.8691 122.396 53.7441C122.198 53.6191 121.953 53.5566 121.661 53.5566C121.38 53.5566 121.138 53.6165 120.935 53.7363C120.737 53.8561 120.583 54.0305 120.474 54.2597C120.369 54.4837 120.317 54.7545 120.317 55.0722C120.317 55.3795 120.369 55.6503 120.474 55.8847C120.583 56.1139 120.739 56.2936 120.942 56.4238C121.146 56.554 121.39 56.6191 121.677 56.6191C121.963 56.6191 122.205 56.554 122.403 56.4238C122.606 56.2936 122.76 56.1139 122.864 55.8847C122.974 55.6503 123.028 55.3795 123.028 55.0722ZM134.7 56.6425V58.6113C134.7 59.4654 134.609 60.2024 134.427 60.8222C134.244 61.4368 133.981 61.942 133.638 62.3378C133.299 62.7285 132.896 63.0175 132.427 63.205C131.958 63.3925 131.437 63.4863 130.864 63.4863C130.406 63.4863 129.979 63.429 129.583 63.3144C129.187 63.1946 128.83 63.0097 128.513 62.7597C128.2 62.5097 127.929 62.1946 127.7 61.8144C127.476 61.429 127.304 60.9706 127.185 60.4394C127.065 59.9081 127.005 59.2988 127.005 58.6113V56.6425C127.005 55.7884 127.096 55.0566 127.278 54.4472C127.466 53.8326 127.729 53.33 128.067 52.9394C128.411 52.5488 128.817 52.2623 129.286 52.08C129.755 51.8925 130.276 51.7988 130.849 51.7988C131.307 51.7988 131.731 51.8587 132.122 51.9785C132.518 52.093 132.875 52.2727 133.192 52.5175C133.51 52.7623 133.781 53.0774 134.005 53.4628C134.229 53.843 134.401 54.2988 134.521 54.83C134.64 55.3561 134.7 55.9602 134.7 56.6425ZM132.442 58.9081V56.3378C132.442 55.9264 132.419 55.567 132.372 55.2597C132.33 54.9524 132.265 54.692 132.177 54.4785C132.088 54.2597 131.979 54.0826 131.849 53.9472C131.718 53.8118 131.57 53.7128 131.403 53.6503C131.237 53.5878 131.052 53.5566 130.849 53.5566C130.593 53.5566 130.367 53.6061 130.169 53.705C129.976 53.804 129.812 53.9628 129.677 54.1816C129.541 54.3951 129.437 54.6816 129.364 55.041C129.297 55.3951 129.263 55.8274 129.263 56.3378V58.9081C129.263 59.3196 129.284 59.6816 129.325 59.9941C129.372 60.3066 129.44 60.5748 129.528 60.7988C129.622 61.0175 129.731 61.1972 129.856 61.3378C129.987 61.4732 130.135 61.5722 130.302 61.6347C130.474 61.6972 130.661 61.7285 130.864 61.7285C131.114 61.7285 131.336 61.679 131.528 61.58C131.726 61.4759 131.893 61.3144 132.028 61.0956C132.169 60.8717 132.273 60.58 132.341 60.2206C132.409 59.8613 132.442 59.4238 132.442 58.9081ZM136.2 54.7441V54.1425C136.2 53.7102 136.294 53.317 136.481 52.9628C136.669 52.6087 136.945 52.3248 137.31 52.1113C137.674 51.8977 138.122 51.791 138.653 51.791C139.2 51.791 139.656 51.8977 140.021 52.1113C140.39 52.3248 140.666 52.6087 140.849 52.9628C141.036 53.317 141.13 53.7102 141.13 54.1425V54.7441C141.13 55.166 141.036 55.554 140.849 55.9081C140.666 56.2623 140.393 56.5462 140.028 56.7597C139.664 56.9732 139.213 57.08 138.677 57.08C138.135 57.08 137.679 56.9732 137.31 56.7597C136.945 56.5462 136.669 56.2623 136.481 55.9081C136.294 55.554 136.2 55.166 136.2 54.7441ZM137.692 54.1425V54.7441C137.692 54.9264 137.726 55.1009 137.794 55.2675C137.867 55.429 137.976 55.5618 138.122 55.666C138.273 55.7649 138.455 55.8144 138.669 55.8144C138.893 55.8144 139.075 55.7649 139.216 55.666C139.356 55.5618 139.461 55.429 139.528 55.2675C139.596 55.1009 139.63 54.9264 139.63 54.7441V54.1425C139.63 53.9498 139.593 53.7727 139.521 53.6113C139.453 53.4446 139.346 53.3118 139.2 53.2128C139.06 53.1087 138.877 53.0566 138.653 53.0566C138.445 53.0566 138.268 53.1087 138.122 53.2128C137.976 53.3118 137.867 53.4446 137.794 53.6113C137.726 53.7727 137.692 53.9498 137.692 54.1425ZM141.638 61.1425V60.541C141.638 60.1139 141.731 59.7232 141.919 59.3691C142.112 59.0149 142.39 58.7311 142.755 58.5175C143.125 58.304 143.578 58.1972 144.114 58.1972C144.656 58.1972 145.109 58.304 145.474 58.5175C145.838 58.7311 146.114 59.0149 146.302 59.3691C146.489 59.7232 146.583 60.1139 146.583 60.541V61.1425C146.583 61.5696 146.489 61.9602 146.302 62.3144C146.119 62.6686 145.846 62.9524 145.481 63.166C145.117 63.3795 144.666 63.4863 144.13 63.4863C143.588 63.4863 143.132 63.3795 142.763 63.166C142.393 62.9524 142.112 62.6686 141.919 62.3144C141.731 61.9602 141.638 61.5696 141.638 61.1425ZM143.138 60.541V61.1425C143.138 61.33 143.179 61.5071 143.263 61.6738C143.346 61.8404 143.461 61.9732 143.606 62.0722C143.757 62.1712 143.932 62.2206 144.13 62.2206C144.38 62.2206 144.575 62.1712 144.716 62.0722C144.856 61.9732 144.953 61.8404 145.005 61.6738C145.062 61.5071 145.091 61.33 145.091 61.1425V60.541C145.091 60.3535 145.054 60.179 144.981 60.0175C144.909 59.8509 144.799 59.718 144.653 59.6191C144.513 59.5149 144.333 59.4628 144.114 59.4628C143.896 59.4628 143.713 59.5149 143.567 59.6191C143.427 59.718 143.32 59.8509 143.247 60.0175C143.174 60.179 143.138 60.3535 143.138 60.541ZM144.669 53.58L139.114 62.4706L138.021 61.8925L143.575 53.0019L144.669 53.58Z" fill="black"/>
<circle cx="4" cy="124.33" r="4" fill="#0AA2C0"/>
<path d="M20.8223 119.377V129.33H19.1064V119.377H20.8223ZM24.8828 123.731V125.092H20.3848V123.731H24.8828ZM25.4502 119.377V120.744H20.3848V119.377H25.4502ZM28.417 121.934V129.33H26.7627V121.934H28.417ZM26.6533 119.992C26.6533 119.741 26.7354 119.534 26.8994 119.37C27.068 119.201 27.3005 119.117 27.5967 119.117C27.8883 119.117 28.1185 119.201 28.2871 119.37C28.4557 119.534 28.54 119.741 28.54 119.992C28.54 120.238 28.4557 120.443 28.2871 120.607C28.1185 120.771 27.8883 120.853 27.5967 120.853C27.3005 120.853 27.068 120.771 26.8994 120.607C26.7354 120.443 26.6533 120.238 26.6533 119.992ZM31.9854 118.83V129.33H30.3311V118.83H31.9854ZM35.5537 118.83V129.33H33.8994V118.83H35.5537ZM40.6191 129.467C40.0723 129.467 39.5778 129.378 39.1357 129.2C38.6982 129.018 38.3245 128.765 38.0146 128.441C37.7093 128.118 37.4746 127.737 37.3105 127.3C37.1465 126.862 37.0645 126.391 37.0645 125.885V125.611C37.0645 125.032 37.1488 124.508 37.3174 124.039C37.486 123.57 37.7207 123.169 38.0215 122.836C38.3223 122.499 38.6777 122.241 39.0879 122.063C39.498 121.886 39.9424 121.797 40.4209 121.797C40.9495 121.797 41.4121 121.886 41.8086 122.063C42.2051 122.241 42.5332 122.492 42.793 122.815C43.0573 123.134 43.2533 123.515 43.3809 123.957C43.513 124.399 43.5791 124.887 43.5791 125.42V126.124H37.8643V124.941H41.9521V124.811C41.943 124.515 41.8838 124.237 41.7744 123.977C41.6696 123.718 41.5078 123.508 41.2891 123.349C41.0703 123.189 40.7786 123.109 40.4141 123.109C40.1406 123.109 39.8968 123.169 39.6826 123.287C39.473 123.401 39.2975 123.567 39.1562 123.786C39.015 124.005 38.9056 124.269 38.8281 124.579C38.7552 124.884 38.7188 125.228 38.7188 125.611V125.885C38.7188 126.208 38.762 126.509 38.8486 126.787C38.9398 127.06 39.0719 127.3 39.2451 127.505C39.4183 127.71 39.6279 127.872 39.874 127.99C40.1201 128.104 40.4004 128.161 40.7148 128.161C41.1113 128.161 41.4645 128.081 41.7744 127.922C42.0843 127.762 42.3532 127.537 42.5811 127.245L43.4492 128.086C43.2897 128.318 43.0824 128.542 42.8271 128.756C42.5719 128.965 42.2598 129.136 41.8906 129.268C41.526 129.401 41.1022 129.467 40.6191 129.467ZM49.376 127.799V118.83H51.0303V129.33H49.5332L49.376 127.799ZM44.5635 125.714V125.57C44.5635 125.01 44.6296 124.499 44.7617 124.039C44.8939 123.574 45.0853 123.175 45.3359 122.843C45.5866 122.505 45.8919 122.248 46.252 122.07C46.612 121.888 47.0176 121.797 47.4688 121.797C47.9154 121.797 48.3073 121.883 48.6445 122.057C48.9818 122.23 49.2689 122.478 49.5059 122.802C49.7428 123.121 49.932 123.504 50.0732 123.95C50.2145 124.392 50.3148 124.884 50.374 125.427V125.885C50.3148 126.413 50.2145 126.896 50.0732 127.334C49.932 127.771 49.7428 128.15 49.5059 128.469C49.2689 128.788 48.9795 129.034 48.6377 129.207C48.3005 129.38 47.9062 129.467 47.4551 129.467C47.0085 129.467 46.6051 129.373 46.2451 129.186C45.8896 129 45.5866 128.738 45.3359 128.4C45.0853 128.063 44.8939 127.667 44.7617 127.211C44.6296 126.751 44.5635 126.252 44.5635 125.714ZM46.2109 125.57V125.714C46.2109 126.051 46.2406 126.365 46.2998 126.657C46.3636 126.949 46.4616 127.206 46.5938 127.43C46.7259 127.648 46.8968 127.822 47.1064 127.949C47.3206 128.072 47.5758 128.134 47.8721 128.134C48.2458 128.134 48.5534 128.052 48.7949 127.888C49.0365 127.724 49.2256 127.503 49.3623 127.225C49.5036 126.942 49.5993 126.628 49.6494 126.281V125.044C49.6221 124.775 49.5651 124.524 49.4785 124.292C49.3965 124.06 49.2848 123.857 49.1436 123.684C49.0023 123.506 48.8268 123.369 48.6172 123.273C48.4121 123.173 48.1683 123.123 47.8857 123.123C47.585 123.123 47.3298 123.187 47.1201 123.314C46.9105 123.442 46.7373 123.617 46.6006 123.841C46.4684 124.064 46.3704 124.324 46.3066 124.62C46.2428 124.916 46.2109 125.233 46.2109 125.57Z" fill="#343A40"/>
<circle cx="211" cy="124" r="4" fill="#ADB5BD"/>
<path d="M232.771 127.64V129H227.486V127.64H232.771ZM227.972 119.047V129H226.256V119.047H227.972ZM232.08 123.203V124.543H227.486V123.203H232.08ZM232.736 119.047V120.414H227.486V119.047H232.736ZM235.655 123.107V129H234.008V121.604H235.56L235.655 123.107ZM235.389 125.028L234.828 125.021C234.828 124.511 234.892 124.039 235.02 123.606C235.147 123.174 235.334 122.798 235.58 122.479C235.826 122.155 236.132 121.907 236.496 121.733C236.865 121.556 237.291 121.467 237.774 121.467C238.112 121.467 238.419 121.517 238.697 121.617C238.98 121.713 239.224 121.866 239.429 122.075C239.638 122.285 239.798 122.554 239.907 122.882C240.021 123.21 240.078 123.606 240.078 124.071V129H238.431V124.215C238.431 123.855 238.376 123.572 238.267 123.367C238.162 123.162 238.009 123.016 237.809 122.93C237.613 122.839 237.378 122.793 237.104 122.793C236.795 122.793 236.53 122.852 236.312 122.971C236.097 123.089 235.922 123.251 235.785 123.456C235.648 123.661 235.548 123.898 235.484 124.167C235.421 124.436 235.389 124.723 235.389 125.028ZM239.976 124.591L239.203 124.762C239.203 124.315 239.265 123.894 239.388 123.497C239.515 123.096 239.7 122.745 239.941 122.444C240.188 122.139 240.491 121.9 240.851 121.727C241.211 121.553 241.623 121.467 242.088 121.467C242.466 121.467 242.803 121.519 243.1 121.624C243.4 121.724 243.656 121.884 243.865 122.103C244.075 122.321 244.234 122.606 244.344 122.957C244.453 123.303 244.508 123.723 244.508 124.215V129H242.854V124.208C242.854 123.834 242.799 123.545 242.689 123.34C242.585 123.135 242.434 122.993 242.238 122.916C242.042 122.834 241.808 122.793 241.534 122.793C241.279 122.793 241.053 122.841 240.857 122.937C240.666 123.028 240.504 123.158 240.372 123.326C240.24 123.49 240.14 123.679 240.071 123.894C240.007 124.108 239.976 124.34 239.976 124.591ZM247.857 123.025V131.844H246.21V121.604H247.728L247.857 123.025ZM252.677 125.233V125.377C252.677 125.915 252.613 126.414 252.485 126.874C252.362 127.33 252.178 127.729 251.932 128.07C251.69 128.408 251.392 128.67 251.036 128.856C250.681 129.043 250.271 129.137 249.806 129.137C249.345 129.137 248.942 129.052 248.596 128.884C248.254 128.711 247.965 128.467 247.728 128.152C247.491 127.838 247.299 127.469 247.153 127.045C247.012 126.617 246.912 126.147 246.853 125.637V125.083C246.912 124.541 247.012 124.049 247.153 123.606C247.299 123.164 247.491 122.784 247.728 122.465C247.965 122.146 248.254 121.9 248.596 121.727C248.938 121.553 249.336 121.467 249.792 121.467C250.257 121.467 250.669 121.558 251.029 121.74C251.389 121.918 251.692 122.173 251.938 122.506C252.185 122.834 252.369 123.23 252.492 123.695C252.615 124.156 252.677 124.668 252.677 125.233ZM251.029 125.377V125.233C251.029 124.892 250.997 124.575 250.934 124.283C250.87 123.987 250.77 123.727 250.633 123.504C250.496 123.281 250.321 123.107 250.106 122.984C249.897 122.857 249.644 122.793 249.348 122.793C249.056 122.793 248.805 122.843 248.596 122.943C248.386 123.039 248.211 123.174 248.069 123.347C247.928 123.52 247.819 123.723 247.741 123.955C247.664 124.183 247.609 124.431 247.577 124.7V126.026C247.632 126.354 247.725 126.655 247.857 126.929C247.99 127.202 248.176 127.421 248.418 127.585C248.664 127.744 248.979 127.824 249.361 127.824C249.658 127.824 249.91 127.76 250.12 127.633C250.33 127.505 250.501 127.33 250.633 127.106C250.77 126.879 250.87 126.617 250.934 126.32C250.997 126.024 251.029 125.71 251.029 125.377ZM257.469 121.604V122.807H253.299V121.604H257.469ZM254.502 119.792H256.149V126.956C256.149 127.184 256.181 127.359 256.245 127.482C256.313 127.601 256.407 127.681 256.525 127.722C256.644 127.763 256.783 127.783 256.942 127.783C257.056 127.783 257.166 127.776 257.271 127.763C257.375 127.749 257.46 127.735 257.523 127.722L257.53 128.979C257.394 129.021 257.234 129.057 257.052 129.089C256.874 129.121 256.669 129.137 256.437 129.137C256.058 129.137 255.723 129.071 255.432 128.938C255.14 128.802 254.912 128.581 254.748 128.275C254.584 127.97 254.502 127.564 254.502 127.059V119.792ZM260.887 128.193L262.896 121.604H264.66L261.693 130.128C261.625 130.31 261.536 130.508 261.427 130.723C261.317 130.937 261.174 131.14 260.996 131.331C260.823 131.527 260.606 131.684 260.347 131.803C260.087 131.926 259.772 131.987 259.403 131.987C259.257 131.987 259.116 131.974 258.979 131.946C258.847 131.924 258.722 131.898 258.604 131.871L258.597 130.613C258.642 130.618 258.697 130.622 258.761 130.627C258.829 130.632 258.884 130.634 258.925 130.634C259.198 130.634 259.426 130.6 259.608 130.531C259.791 130.467 259.939 130.363 260.053 130.217C260.171 130.071 260.271 129.875 260.354 129.629L260.887 128.193ZM259.752 121.604L261.509 127.141L261.803 128.877L260.661 129.171L257.975 121.604H259.752Z" fill="#343A40"/>
</svg>
