<svg width="425" height="567" viewBox="0 0 425 567" fill="none" xmlns="http://www.w3.org/2000/svg">
<path d="M395.711 0.00221016C395.122 0.0421788 394.309 0.64859 393.848 0.806413C393.389 2.10876 391.9 1.18742 390.938 1.17876C390.057 0.661403 389.093 0.0578551 388.01 0.750443C387.277 1.29948 387.492 3.41532 388.789 2.45547C389.701 1.65963 389.895 4.28539 391.208 3.39224C392.475 2.94154 393.051 4.87249 392.251 5.31172C391.376 5.3087 389.6 4.59292 389.291 5.42484C389.063 6.23872 388.641 8.11957 387.79 7.87692C387.123 7.55059 385.526 8.14296 384.82 8.80367C385.124 9.97102 384.5 11.1267 384.96 12.2703C384.282 13.5612 383.146 12.9083 382.114 13.1935C381.683 13.9294 381.824 15.8862 382.87 15.8553C384.464 15.6648 383.918 18.2373 382.541 17.3424C383.048 18.7584 381.334 19.6099 381.036 20.7648C380.096 19.8381 379.098 19.9352 378.675 21.166C377.822 21.8918 376.882 22.3312 375.867 22.7155C375.153 23.9599 373.932 22.5918 373.416 24.1672C372.002 24.1434 370.599 24.4849 369.21 24.0293C367.847 23.62 367.55 25.1311 366.947 25.9635C365.829 27.0528 364.7 25.285 363.839 24.6285C362.769 23.6339 363.093 26.0221 362.588 26.6093C361.949 27.4457 359.737 26.6169 360.088 28.0839C361.534 28.775 362.491 30.1554 364.014 30.6833C364.962 31.1576 367.051 31.595 366.421 33.0529C365.351 32.8768 364.712 33.6465 363.957 34.2383C362.967 34.2093 362.047 36.4457 361.727 34.534C361.407 33.5836 360.691 32.8809 359.757 32.5674C359.704 33.8011 358.294 33.9778 357.704 34.567C356.035 34.2689 357.169 33.2643 357.414 32.1686C357.707 30.1863 356.166 31.5704 355.477 31.9087C354.322 31.5793 355.082 29.7141 355.943 29.2876C356.635 28.3134 355.186 27.1972 354.602 26.4007C354.463 28.1599 353.447 27.6435 352.552 27.2921C351.486 26.8375 350.449 27.1825 350.588 28.5912C349.632 28.8321 348.92 28.5797 348.044 27.9131C347.005 28.0049 345.96 28.8306 346.041 30.0199C345.021 30.4346 343.84 29.8216 343.167 29.0295C342.348 28.2172 341.832 27.1506 341.397 26.1574C341.118 25.0173 341.58 23.1371 339.942 23.0036C338.382 22.7173 336.476 23.4748 335.106 22.2937C332.268 21.9164 329.182 21.6619 326.588 23.1238C325.859 23.6698 323.34 24.0314 325.152 24.84C326.186 25.3184 327.226 26.2042 328.413 25.9688C330.42 25.6888 328.507 27.1196 328.899 28.0209C328.057 28.9645 327.491 30.356 327.845 31.613C327.671 32.3532 328.079 34.6567 328.776 33.1872C329.46 32.7741 330.424 31.5732 331.336 31.9376C332.391 33.3734 330.513 33.5208 329.532 33.9013C328.816 34.3006 329.7 35.9621 329.061 36.5301C327.879 36.1866 326.687 36.4168 325.523 36.5089C324.126 36.5486 323.825 37.6348 323.558 38.492C323.404 40.3954 321.869 38.172 321.532 39.1201C321.753 40.1323 320.947 41.6206 322.098 42.1071C322.216 43.2664 320.18 42.5241 320.028 42.7876C319.23 43.409 317.582 43.1389 317.647 44.7324C317.831 46.3758 315.572 45.5685 316.483 44.1515C316.113 43.2731 314.89 42.9601 313.944 43.1352C313.884 42.8258 313.806 42.5185 313.782 42.2031C314.064 40.1317 312.04 41.9149 311.738 40.9199C311.19 39.8552 311.072 40.5698 310.802 41.3783C310.631 41.8919 310.403 42.5422 309.948 42.4818C309.211 41.2172 307.122 41.5741 308.218 43.1835C308.802 43.8776 308.116 45.455 307.27 46.0627C306.063 46.2871 305.019 46.5441 304.775 47.9545C304.81 49.0531 302.679 50.0433 303.734 50.535C303.425 51.526 304.382 52.5647 303.566 53.6941C302.75 54.4431 301.474 55.2261 300.324 54.6774C298.89 53.5764 296.795 52.5017 295.199 53.888C293.852 55.059 291.648 53.9384 291.267 52.3921C291.348 50.5992 288.56 51.5468 288.172 50.0325C287.335 49.2686 285.542 50.2923 285.024 48.8436C284.454 47.3323 282.088 47.5111 281.529 48.8978C280.266 49.3801 279.499 48.1507 278.399 48.8229C276.557 47.7849 276.865 50.1175 275.945 50.3736C274.862 50.3456 274.277 53.0795 276.164 52.4392C276.96 51.7542 278.999 53.6059 277.9 53.6269C276.696 52.8512 274.984 53.8673 273.57 53.644C272.989 52.5137 273.675 51.1889 273.442 49.9671C272.925 48.8588 274.484 47.149 272.963 46.745C271.274 46.0134 271.662 48.7747 270.297 48.288C268.998 48.4198 267.755 48.4787 266.513 47.941C265.327 47.0628 264.172 48.8058 263.497 49.6572C262.404 50.5914 260.722 50.7181 259.327 50.9763C258.23 50.6851 257.189 49.9132 255.926 49.9877C254.373 49.4431 255.182 51.9827 254.659 52.9158C254.474 54.0784 254.505 55.9772 252.906 54.8312C251.752 54.8255 250.587 53.8268 249.571 53.9987C249.156 55.6439 247.697 56.5609 246.501 57.589C245.419 58.135 247.914 59.3256 248.291 60.2762C247.153 60.3496 248.045 61.9526 248.705 62.9946C250.153 64.1875 248.116 64.9295 247.176 64.0963C246.874 65.7436 245.779 67.0727 245.226 68.6246C245.052 69.5004 244.971 70.4868 244.494 71.317C244.367 71.5382 244.211 71.7482 244.019 71.9421C243.434 72.8667 244.214 74.3959 244.2 75.3881C242.879 75.9131 243.825 77.4534 242.739 78.3092C243.356 79.8542 241.391 80.1633 241.045 81.0293C241.134 81.7419 238.842 81.7646 239.119 82.5293C238.869 83.7252 239.819 83.983 239.45 84.9702C237.986 85.9622 240.586 87.457 238.872 87.6409C239.75 88.7018 237.597 88.6376 236.946 89.0254C235.447 87.997 236.783 87.3112 236.948 86.7448C235.7 86.7145 235.333 85.813 235.353 84.6156C234.821 86.4112 234.409 84.6217 233.727 83.9127C232.745 82.6405 231.444 83.9845 233.021 84.8206C233.262 86.0747 235.287 85.7989 235.237 86.9993C234.542 88.3846 233.544 85.7393 233.614 87.1124C232.545 87.8268 233.201 88.3339 233.959 89.029C233.641 90.0692 232.905 91.0839 231.554 91.114C229.844 90.3324 229.651 91.2611 230.009 92.8084C230.402 93.7705 230.148 94.5688 229.852 95.6953C229.167 95.902 227.625 95.1781 226.489 95.7159C225.778 94.5358 224.581 95.7516 223.671 95.8514C222.687 95.8209 221.68 95.7924 220.716 96.0229C220.23 95.9037 219.751 95.6518 219.35 95.3336C218.472 94.7933 217.794 93.993 216.915 93.4542C216.651 93.1382 216.265 93.3749 215.926 93.3982C215.486 92.9795 215.045 92.5608 214.605 92.1421C214.17 91.8927 213.631 91.823 213.156 91.6437C212.831 91.7056 212.529 91.8593 212.475 91.3868C212.124 91.1482 212.174 90.649 212.01 90.2892C211.473 89.5779 210.851 88.9129 210.282 88.2195C210.098 87.9582 209.987 87.5955 209.595 87.7128C208.643 87.6498 207.669 87.7751 206.738 87.5325C206.518 87.6572 206.125 87.8753 206.132 88.1853C206.058 88.6602 206.058 89.1306 206.214 89.5899C205.574 89.5485 204.935 89.5076 204.295 89.4661C203.902 89.3802 203.395 89.5641 203.115 89.2063C202.92 88.913 202.549 88.9059 202.272 88.7933C202.132 88.4258 202.71 88.4046 202.915 88.203C203.386 88.0908 203.201 87.7473 202.92 87.5272C202.55 87.1227 203.244 87.3209 203.413 87.1861C203.64 86.8187 204.103 87.0649 204.408 86.8909C204.666 86.5845 205.05 86.5793 205.417 86.5309C205.722 85.9504 206.143 85.4223 206.296 84.7735C206.008 83.9625 205.722 83.1518 205.434 82.3408C205.237 82.0402 205.37 81.7229 205.45 81.4082L204.609 81.1501C203.313 81.7096 202.479 80.0597 201.326 80.5445C200.384 79.7252 199.235 80.8255 198.146 80.3571C197.313 79.5873 195.922 79.7121 195.1 79.418C194.994 78.0355 194.009 77.2358 192.78 76.9035C191.974 76.1548 190.916 75.6246 190.561 74.3501C188.998 75.0123 189.947 72.6909 188.014 73.124C187.9 71.173 186.533 72.9786 185.434 72.2709C183.8 70.7971 184.931 72.8763 183.874 72.9838C183.92 74.1638 182.176 74.6428 182.37 75.3304C184.193 76.2826 182.51 77.2054 181.28 76.9689C180.591 76.4395 180.682 74.9899 179.763 74.1279C177.702 75.018 178.585 72.9975 177.922 72.4989C177.04 72.7011 177.36 70.1595 175.865 71.8273C175.958 73.0353 176.92 73.8884 175.815 75.1389C174.957 74.8523 173 74.7514 173.531 73.5382C173.631 72.1509 174.531 71.4961 175.384 70.844C177.368 69.9962 173.624 70.1559 174.525 69.2703C176.539 68.7687 174.053 67.9248 173.379 68.9003C172.493 69.2729 171.184 69.1752 170.591 70.4127C169.392 70.1414 168.232 70.7282 167.068 70.5217C166.19 71.0718 164.303 69.5447 164.393 71.3006C163.376 71.6527 162.454 72.7315 161.289 72.3422C160.115 72.7791 160.366 74.3987 161.784 74.29C162.687 74.9074 161.766 76.0236 161.294 76.6543C162.332 78.0515 161.862 78.0735 160.52 78.8012C160.356 79.8119 158.442 80.6044 159.528 81.6374C161.259 81.9627 160.193 83.5986 158.918 83.7183C157.874 83.3399 156.234 85.0098 157.875 85.3049C158.81 85.6962 157.208 87.3028 156.99 88.2071C156.035 87.9259 154.085 87.5896 154.997 89.1615C155.973 90.4139 153.982 91.3181 153.27 90.4695C152.754 88.7214 151.846 90.318 151.788 91.4481C150.999 92.2042 149.58 92.0969 148.496 91.9907C148.338 90.6468 149.256 89.5309 147.322 89.5969C145.169 89.8694 143.024 90.4721 140.949 91.1994C140.109 91.5007 139.983 93.6693 141.052 94.1022C141.817 95.5478 139.809 95.6094 139.666 96.9214C139.873 98.5569 139.19 100.047 138.473 101.42C138.196 102.807 139.221 103.701 139.191 104.997C139.221 106.543 139.434 107.378 141.173 107.279C143.166 107.078 141.451 109.057 140.567 109.43C139.374 110.2 138.348 111.36 140.521 111.218C141.781 111.611 142.474 109.646 143.352 109.222C144.664 110.058 143.754 111.701 143.579 112.934C143.688 114.104 142.849 115.543 143.641 116.618C143.205 117.676 142.54 118.81 142.589 120.127C142.316 121.115 142.348 121.921 141.388 122.493C139.924 122.53 140.219 124.626 138.832 125.09C137.604 125.425 137.718 127.337 136.803 128.14C135.419 128.449 135.577 130.244 133.779 129.753C133.317 130.67 132.157 131.729 130.918 131.074C130.113 130.114 129.263 131.004 128.553 131.685C128.443 132.778 127.793 133.817 129.029 134.527C129.273 134.97 129.531 135.459 129.349 135.903C129.166 136.347 128.071 137.403 128.299 137.847C128.527 138.29 129.715 138.014 129.928 138.336C130.141 138.657 130.507 138.825 130.842 138.947C131.177 139.07 132.638 139.3 133.034 139.238C133.43 139.177 133.399 138.734 133.795 138.734C134.191 138.734 134.862 138.932 135.151 138.764C135.44 138.596 135.379 138.091 135.912 138.153C136.445 138.214 136.795 138.473 137.267 138.703C137.739 138.932 138.333 139.115 138.409 138.871C138.485 138.626 138.485 138.397 138.82 138.535C139.155 138.673 139.505 138.932 139.855 138.825C140.206 138.718 140.298 138.672 140.8 138.764C141.303 138.856 141.668 138.106 142.155 138.045C142.642 137.984 142.795 137.861 143.19 138.366C143.586 138.871 144.028 138.152 144.409 138.412C144.79 138.672 145.079 139.009 145.49 139.024C145.901 139.039 147.15 138.413 147.592 138.657C148.033 138.902 148.55 138.81 149.052 139.146C149.555 139.483 151.687 140.355 152.25 140.508C152.814 140.661 154.002 140.08 154.596 140.493C155.189 140.906 155.494 140.921 155.524 141.533C155.554 142.145 155.707 142.405 156.072 142.665C156.438 142.925 156.682 143.215 156.651 143.797C156.621 144.378 156.392 144.653 157.077 145.25C157.763 145.846 159.453 146.688 159.514 147.055C159.575 147.422 159.575 147.973 159.225 148.111C158.874 148.248 158.6 148.463 158.265 149.212C157.93 149.962 157.747 151.033 157.382 151.308C157.016 151.583 154.686 152.776 154.443 153.143C154.199 153.51 152.966 155.53 152.631 155.836C152.296 156.142 151.337 157.962 150.926 158.834C150.514 159.706 150.237 160.547 150.237 160.547C150.237 160.547 149.615 161.661 149.483 161.925C149.352 162.188 149.008 163.232 149.008 163.232C148.977 163.694 149.07 164.182 149.086 164.654C148.376 164.949 147.172 165.125 146.893 164.189C145.674 164.969 144.155 165.089 142.804 165.634C141.733 166.239 140.782 165.362 139.82 166.169C138.826 166.407 137.689 165.37 136.637 165.693C135.428 165.794 134.567 166.954 133.436 166.124C132.451 166.262 131.113 165.386 130.424 165.622C130.554 167.043 130.052 168.49 129.643 169.865C130.023 171.364 129.587 171.246 128.747 170.507C127.745 169.354 126.982 169.894 127.279 171.285C127.625 172.262 127.29 173.224 127.186 174.202C127.648 174.868 127.588 176.215 126.834 177.167C126.376 178.11 126.044 179.086 125.963 180.204C125.261 181.181 125.067 182.036 124.222 182.792C124.091 183.908 123.125 185.093 123.103 183.282C122.376 183.02 121.088 182.524 120.276 181.85C119.302 181.451 117.177 183.057 116.291 182.644C116.061 184.163 114.532 184.379 113.3 184.663C111.935 183.584 110.924 182.157 109.626 181.003C108.84 180.084 108.294 182.34 107.066 181.03C106.229 180.867 104.282 179.301 104.557 181.02C103.67 182.685 101.664 181.719 100.19 182.071C98.755 181.958 97.6727 183.126 96.2862 183.072C95.3014 183.343 93.8303 182.926 93.4542 184.018C92.7483 184.817 91.6047 184.038 90.6793 184.228C90.4288 184.4 90.4907 186.087 90.4781 186.939C90.4268 187.617 91.6404 189.908 90.3851 189.173C89.7883 188.013 88.5009 188.441 87.4519 188.286C87.1938 187.715 86.4251 186.465 85.6013 185.666C83.9127 184.815 86.1941 183.74 85.8043 183.039C84.928 181.967 83.5537 182.798 83.0418 183.795C81.779 185.18 82.2247 183.161 82.8758 182.436C82.896 181.645 82.0101 180.524 80.9588 180.546C80.2094 180.155 79.2191 180.29 78.0527 180.45C76.3073 179.765 77.4715 181.222 76.657 182.038C76.0253 182.738 75.7341 184.88 74.7982 183.264C74.2267 181.621 73.1951 183.145 72.3128 182.482C71.3177 182.507 69.9918 182.15 69.1342 182.36C68.273 183.173 68.2231 184.237 68.2357 185.356C67.7019 186.52 67.7605 187.994 66.8606 188.946C66.1153 189.553 64.4136 190.331 64.843 191.376C63.5008 192.503 63.4522 194.47 62.3975 195.759C61.7543 196.665 61.7999 198.527 63.1013 198.746C62.8516 199.831 63.9697 200.43 64.3216 201.309C64.2495 202.492 64.2579 202.696 63.8256 202.869C63.8256 202.869 64.1226 202.043 63.9103 201.666C63.6982 201.289 63.0615 201.255 62.8983 201.214C62.7351 201.173 61.6984 200.509 61.4373 200.263C61.1761 200.017 61.0452 200.271 60.7759 200.418C60.5066 200.566 60.4736 200.386 60.1716 200.165C59.8696 199.943 59.4455 200.124 59.013 200.116C58.5805 200.108 58.4996 200.066 58.3364 199.812C58.1731 199.558 58.099 199.673 57.642 199.771C57.185 199.869 56.7771 199.763 56.5976 199.763C56.4181 199.763 56.2146 199.673 55.9698 199.419C55.725 199.164 55.7409 199.378 55.4961 199.591C55.2513 199.804 55.1608 199.468 54.7936 199.222C54.4263 198.976 54.2804 199.206 53.9539 199.337C53.6275 199.468 52.9176 199.477 52.5912 199.485C52.2647 199.493 51.8398 199.501 51.6521 199.443C51.4644 199.386 49.7172 199.452 49.3255 199.476C48.9338 199.501 45.6697 199.353 45.0413 199.402C44.4129 199.451 44.0459 199.64 43.4338 199.697C42.8218 199.755 42.0633 199.656 41.3614 199.664C40.6596 199.672 40.3 200.059 40.1205 200.165C39.9409 200.272 38.5621 200.132 38.1252 199.962C37.7086 199.909 36.8289 199.883 36.2953 200.35C35.8116 200.826 35.1988 200.275 34.6465 200.206C34.077 200.068 33.5049 199.848 33.6798 199.15C33 198.036 33.0132 196.71 32.6813 195.487C32.6381 194.749 32.5703 193.941 32.0022 193.39C31.1947 192.548 30.2459 191.791 29.2138 191.246C28.668 190.756 28.2477 191.287 27.8046 191.632C27.336 191.901 26.9621 192.429 26.5236 192.621C25.9571 192.69 25.2601 192.122 25.4856 193.059C24.5831 193.715 23.9405 194.64 23.1873 195.451C22.2224 195.339 21.2114 195.447 20.313 195.015C20.5216 195.848 20.8468 196.486 21.4939 196.987C21.904 198.072 20.3349 197.887 20.4501 198.759C19.5076 198.361 18.3779 198.624 17.3645 198.574C16.5767 198.732 15.5339 198.637 15.5016 199.709C15.9356 200.758 14.6578 200.89 14.8773 201.858C14.0771 202.06 13.4427 202.633 12.7108 202.983C12.0302 203.004 10.8808 203.907 10.9973 202.696C10.3098 201.94 9.56963 203.222 8.85669 203.441C8.74019 204.461 8.01098 204.206 7.3692 204.885C6.44953 204.83 7.23024 203.082 6.1412 202.951C5.09702 203.433 5.26277 201.526 4.3801 202.107C3.54912 202.527 2.69635 202.959 1.93527 203.545C1.36455 204.09 0.168196 204.393 0 205.095C0.400259 206.1 1.08306 206.993 1.24095 208.105C2.10335 208.622 1.59168 209.603 0.71256 209.629C1.20341 210.386 1.63873 211.154 1.84877 212.031C1.85239 213.065 1.37773 214.125 1.45278 215.2C1.19532 216.408 2.53422 214.891 2.94027 214.629C3.59799 214.229 4.44098 215.185 5.20857 214.28C6.19859 214.377 6.18904 215.265 6.20004 215.781C6.72427 216.36 7.71893 215.499 8.28947 216.467C9.05269 216.889 9.88473 217.759 10.403 216.593C10.9496 215.375 11.4908 216.443 12.3795 216.515C13.8736 216.652 14.8639 217.813 16.1006 218.519C16.7614 219.32 17.6087 218.872 18.4259 218.626C19.4853 218.092 18.7232 219.867 18.7378 220.423C19.947 221.793 21.7241 222.472 22.8808 223.894C24.8516 224.284 26.7211 224.998 28.5795 225.747C29.9576 225.726 28.5548 227.259 29.1755 227.51C30.1224 226.964 31.7241 226.779 32.6059 226.009C32.6521 226.977 32.4453 228.934 32.34 229.898C32.033 230.738 31.3703 231.138 31.8557 232.211C31.7414 232.748 31.4164 233.099 30.706 233.361C32.0599 234.887 29.8912 235.129 29.2973 235.947C27.4141 236.532 26.0267 236.907 24.8419 237.967C24.2402 238.484 22.6546 238.516 22.6519 239.447C22.6452 240.336 22.9976 241.73 22.4012 242.566C21.76 243.281 23.038 243.894 23.2356 244.695C23.6855 244.486 25.1532 244.421 24.7107 243.441C24.4539 242.421 25.9909 242.682 26.646 242.489C27.5033 242.542 28.805 242.05 29.1779 243.117C30.2654 243.99 31.8846 244.037 33.1437 243.458C35.1481 243.344 37.3101 242.523 39.2179 243.455C39.9695 243.652 40.8144 244.694 41.4438 243.789C42.5619 243.313 43.169 242.143 44.2746 241.648C44.985 241.339 45.7463 240.802 45.8945 240.031C45.8596 239.039 47.3767 239.082 48.0175 238.748L49.0419 240.032C49.5592 241.004 51.6646 241.533 51.3202 242.28C49.849 242.872 51.8257 245.324 49.6897 244.913C48.8102 245.336 47.6643 246.213 47.3873 247.212C47.9029 247.964 48.2394 250.425 49.2743 249.593C48.8418 247.832 50.239 249.753 50.7383 250.493C51.8402 250.543 53.2315 250.504 52.9448 252.306C52.1202 253.245 52.2372 254.961 53.5173 254.871C54.6533 256.463 51.5777 256.399 52.5094 257.871C52.6008 259.315 54.3944 258.232 54.8336 259.714C56.1051 260.913 57.2657 259.276 58.0686 258.366C58.9646 259.205 57.3927 260.891 56.2646 260.691C53.9753 261.57 51.6984 259.936 49.4455 260.301C48.5471 261.364 47.304 261.97 46.8354 263.388C46.7992 264.593 46.6113 265.967 45.4985 266.772C44.5299 267.614 44.3592 269.118 44.3082 270.142C42.6416 270.915 44.0366 272.154 45.2273 272.645C46.7406 274.077 49.0768 273.288 50.5223 274.829C51.6353 275.374 52.2055 276.076 53.3967 275.489C54.5781 276.072 55.8934 275.54 56.9095 276.252C57.7129 277.3 59.3521 277.071 60.4735 277.738C61.6072 278.19 61.7674 279.675 62.9359 280.231C64.6124 281.32 62.5683 282.375 63.2654 283.516C64.8108 282.917 65.2343 284.983 66.85 284.242C68.6971 283.671 68.6401 285.932 69.0836 287.123C69.002 288.282 68.7238 289.42 68.1068 290.424C67.6403 291.568 66.919 292.833 67.6567 293.975C66.4284 293.881 65.4896 295.564 65.4784 296.724C63.8082 297.741 66.1297 297.851 66.351 298.783C66.3201 299.709 67.4782 301.669 66.1145 302.189C64.81 302.924 63.4488 302.193 62.0904 302.338C60.7938 302.322 59.3188 301.953 59.439 303.632C60.4667 304.3 59.4574 306.137 60.9377 306.276C62.9134 305.704 61.878 308.1 61.725 309.09C62.9857 310.081 60.6416 311.618 62.3946 312.457C62.2948 314.063 61.2563 315.507 61.2331 317.078C61.149 319.556 61.1456 322.124 59.8568 324.328C60.3063 325.596 61.9828 325.359 61.1866 326.765C60.0828 327.718 62.3084 328.547 62.7476 329.395C63.6397 330.472 62.4395 331.818 61.7485 332.715C62.3136 334.129 60.8814 335.544 61.2225 336.789C62.361 336.527 62.8858 339.625 63.2807 337.973C64.3348 338.648 66.1414 336.018 65.4896 338.264C64.9015 339.818 66.562 340.084 67.3631 340.863C68.8412 340.96 68.2061 343.492 69.316 343.36C69.9334 345.135 71.6298 343.418 72.5152 343.774C73.4373 344.865 74.9525 344.041 75.9409 345.12C76.9056 346.353 77.5642 344.307 78.8205 344.272C79.2517 343.187 80.8482 343.118 81.4013 342.389C82.7643 342.404 84.0849 341.78 84.0838 340.221C81.8447 338.717 85.3951 339.382 84.9712 338.051C85.9401 337.733 87.0581 336.886 88.1215 336.306C88.2265 336.271 88.3312 336.234 88.4363 336.199C88.8493 336.126 89.141 335.726 89.5843 335.818C90.2709 335.864 90.9021 335.515 91.4754 335.173C92.003 334.572 92.7041 334.17 93.4254 333.848C94.507 333.136 95.5045 332.299 96.4922 331.46C96.8428 331.465 97.1918 331.474 97.4942 331.675C97.8935 331.722 98.3365 331.874 98.7104 331.656C99.0065 331.479 99.2851 331.439 99.5201 331.731C100.308 332.029 101.177 331.886 102 331.999C102.287 332.057 102.731 331.975 102.6 332.408C102.558 332.777 102.755 333.212 102.49 333.52C102.193 333.869 102.108 334.308 102.018 334.745C101.975 335.15 101.687 335.568 101.901 335.959C101.989 336.266 102.071 336.577 102.42 336.658C102.925 337.367 103.277 338.209 103.801 338.916C104.376 339.633 104.825 340.462 105.515 341.076C105.243 341.26 104.932 341.506 104.939 341.867C104.936 342.569 105.061 343.276 105.006 343.98C105.055 344.262 105.041 344.718 105.386 344.354C105.526 343.924 105.938 344.45 106.032 344.009C106.285 344.232 106.586 344.16 106.885 344.096C107.328 343.954 107.703 344.248 108.016 344.526C108.173 344.902 108.331 345.277 108.488 345.652C108.556 345.796 108.636 345.939 108.52 346.082C108.502 346.286 108.313 346.261 108.158 346.281C108.044 346.4 107.877 346.488 107.877 346.673C107.877 346.854 107.783 346.948 107.605 346.96C107.366 346.968 107.624 347.167 107.659 347.28C107.597 347.504 107.534 347.728 107.472 347.953C107.329 348.231 107.124 348.479 106.958 348.746C106.758 349.574 106.596 350.418 106.412 351.252C106.397 351.68 106.436 352.113 106.442 352.543C106.493 352.817 106.315 353.05 106.233 353.301C106.233 353.432 106.203 353.616 106.267 353.723C106.408 353.799 106.55 353.877 106.584 354.048C106.573 354.377 106.503 354.714 106.469 355.045C106.348 355.17 106.147 355.241 105.995 355.346C105.901 355.497 105.867 355.697 105.795 355.867C105.231 355.802 104.647 355.724 104.142 355.445C103.58 354.788 102.672 354.974 102.309 355.762C101.75 356.084 100.899 356.676 100.331 356.509C99.6337 356.004 98.966 357.441 99.1571 357.911C99.3274 358.539 99.3288 359.473 99.9926 359.937C100.781 360.19 101.18 360.946 101.787 361.416C102.546 361.62 102.514 362.769 103.271 363.145C104.035 363.542 104.351 364.308 104.894 364.906C105.792 365.536 104.993 366.528 104.501 367.145C104.635 367.765 105.753 368.135 104.959 368.876C105.604 369.455 105.116 369.81 105.761 370.492C106.665 370.78 106.777 371.631 106.313 372.351C105.726 372.916 105.434 373.757 104.45 373.362C103.665 373.161 103.923 374.187 103.173 374.72C102.174 375.501 102.584 377.088 101.47 377.774C100.506 378.227 100.86 379.165 100.965 380.011C100.629 380.566 99.8467 381.445 100.732 382.002C101.09 383.064 102.085 382.436 102.641 383.046C103.391 384.047 101.512 383.801 101.696 384.672C102.209 385.302 100.9 386.356 101.457 386.826C102.372 386.683 102.32 387.48 103.176 387.696C103.538 388.191 104.189 389.467 103.324 389.539C102.86 390.182 101.763 390.112 101.331 390.485C100.955 391.424 102.093 392.099 102.025 392.534C101.193 392.927 101.783 394.079 101.008 394.61C100.694 395.236 101.683 396.413 100.662 396.63C99.9189 396.996 98.8624 396.789 99.3006 397.98C98.8945 398.766 99.673 399.653 99.2547 400.33C98.7448 400.98 98.6471 401.751 98.2874 402.474C97.695 402.996 97.5962 403.561 96.9593 403.801C96.6031 404.429 96.9722 405.346 96.2521 405.897C96.7674 406.875 95.8588 407.164 95.6443 407.866C94.9701 408.704 96.115 409.036 96.937 408.942C97.6013 409.569 98.2783 408.912 98.7952 408.516C99.7446 408.056 99.9068 409.005 100.176 409.631C101.125 409.688 101.148 410.532 101.723 411.116C102.314 412.027 103.003 411.54 103.787 411.628C104.682 411.731 105.09 412.642 105.975 412.649C106.501 412.332 107.248 412.214 107.84 411.601C108.026 410.846 108.717 411.144 109.229 410.326C110.006 410.238 110.961 409.309 111.538 410.171C112.545 409.712 111.633 411.057 111.615 411.507C111.458 412.543 112.866 412.021 113.162 412.834C113.515 411.637 114.242 410.616 114.822 409.525C115.749 409.944 116.125 410.339 115.128 410.469C114.401 411.238 115.465 412.022 115.112 412.767C114.295 412.662 114.125 414.135 114.86 414.309C116.063 414.189 115.798 415.751 115.817 416.532C116.308 416.953 116.755 417.796 117.491 417.943C117.889 419.043 118.843 417.834 119.546 417.662C119.538 417.9 119.529 418.138 119.521 418.376C119.508 418.556 119.464 418.753 119.689 418.802C119.882 418.977 120.145 418.919 120.382 418.945C120.429 419.217 120.475 419.489 120.522 419.761C119.518 420.438 119.166 421.092 119.266 422.396C119.214 422.597 119.449 422.665 119.555 422.792C119.262 423.187 119.081 423.479 118.58 423.697C118.621 423.971 118.663 424.246 118.704 424.52C118.494 424.704 118.284 424.887 118.073 425.07C117.562 425.263 116.977 425.467 116.586 424.99C116.087 424.172 114.932 425.139 115.551 425.975C115.618 426.177 115.148 427.054 114.999 427.167C114.849 427.337 114.168 427.832 114.083 428.042C113.915 428.326 114.193 428.85 113.99 429.116C113.301 429.596 113.713 429.836 114.022 430.279C114.202 431.487 114.144 432.217 113.975 433.135C114.059 434.172 113.071 434.614 112.3 435.532C111.369 436.443 112.159 437.535 110.62 437.592C109.539 436.992 108.555 437.463 108.993 438.421C109.574 439.225 108.906 440.229 108.223 440.7C106.895 440.778 107.07 442.084 107.564 442.997C108.449 444.254 106.741 444.04 107.083 445.496C106.821 446.405 106.772 447.347 106.499 448.287C107.157 449.371 107.234 450.011 106.114 450.827C105.678 452.133 104.123 451.122 104.146 452.571C104.516 453.124 106.017 453.169 105.624 454.453C105.288 455.54 105.856 456.51 104.982 457.274C103.846 457.564 104.111 459.167 103.135 459.473C102.274 459.923 101.32 460.298 101.14 461.273C100.346 461.867 99.5163 462.436 99.2506 463.547C99.6788 464.486 99.4115 465.351 98.6957 466.097C98.1052 466.953 98.7965 467.959 97.2318 467.839C96.839 466.94 95.0458 467.494 94.757 468.37C95.2541 469.426 93.6724 469.828 93.3807 470.33C93.3203 471.57 94.4159 471.286 94.5675 472.247C95.0654 473.207 96.395 473.475 96.3645 474.754C96.8322 475.67 97.843 475.898 98.2644 476.866C98.2614 477.815 98.529 478.754 98.2233 479.677C98.5383 481.061 99.1878 480.574 99.3636 479.655C100.116 479.358 101.771 480.249 100.525 481.081C100.518 482.53 101.542 482.418 102.517 482.984C102.864 483.67 102.649 484.981 103.88 485.003C105.245 484.959 104.336 486.707 104.78 487.178C104.901 487.891 105.386 488.824 104.577 489.592C103.737 490.343 103.575 491.178 103.126 492.084C101.922 492.209 101.844 493.243 101.843 494.301C101.946 495.323 99.5779 494.871 100.351 495.9C100.802 497.27 98.535 495.729 98.3256 496.553C99.0675 497.385 98.2878 499.126 97.1724 499.034C96.0526 498.445 95.2929 498.179 96.1497 499.727C96.5644 500.623 96.3761 501.73 97.5372 502.239C98.5132 502.698 98.7524 503.979 99.2518 504.886C99.3518 505.902 98.6451 506.928 99.706 507.725C100.159 509.131 101.677 509.671 102.233 511.016C103.662 511.251 102.902 512.557 103.421 513.442C104.255 514.159 104.822 515.139 105.615 515.941C105.672 516.095 105.73 516.248 105.787 516.402C106.119 517.12 106.21 517.977 106.749 518.575C107.102 518.854 107.135 519.425 106.795 519.729C105.979 520.696 105.563 521.905 105.226 523.108C104.825 523.503 104.189 523.601 103.645 523.741C103.365 524.084 103.073 524.409 102.632 524.531C102.369 524.196 102.213 523.762 101.841 523.531C101.459 523.329 101.175 522.806 100.712 522.874C100.155 522.805 99.7075 523.177 99.3353 523.546C98.8811 523.853 98.8972 524.169 99.3271 524.492C99.614 525.298 99.56 526.237 99.9826 527.008C100.113 527.63 100.82 527.763 101.111 528.282C101.399 528.702 101.372 529.295 101.288 529.79C100.728 529.844 100.162 529.86 99.6143 530.002C99.1373 529.97 98.9167 530.367 98.654 530.693C98.2712 531.291 98.2715 532.066 98.2244 532.764C97.7333 533.294 97.0837 533.754 96.827 534.449C96.7611 534.95 96.3762 535.248 96.0326 535.572C95.7642 535.828 95.4176 536.253 95.0659 536.211C94.9025 535.814 94.6188 535.404 94.1509 535.534C93.7425 535.751 93.4527 536.017 93.6872 536.498C93.9453 536.785 94.4145 536.933 94.4004 537.43C94.5273 537.844 93.9806 538.14 93.8155 538.502C93.572 538.657 93.5525 539.628 93.9308 539.209C94.3648 539.051 94.6041 538.543 95.0223 538.424C95.5352 538.268 95.6827 538.905 95.8126 539.273C95.8718 539.658 95.4244 539.99 95.2883 540.355C95.101 541.089 95.6897 541.703 96.1109 542.239C96.3807 542.721 95.9172 542.982 95.606 542.58C95.4564 542.253 95.2602 541.618 94.8076 541.932C94.388 542.026 93.8569 542.127 93.5078 541.809C93.189 541.441 92.7405 541.676 92.3357 541.706C91.8761 541.974 91.3132 542.198 90.9988 542.651C90.8635 542.995 89.9325 542.628 90.1698 543.092C90.2333 543.435 90.7777 544.105 90.0986 543.94C89.6835 543.932 89.608 544.483 89.0983 544.372C89.1469 544.411 89.3917 544.613 89.4125 544.629C89.7655 544.91 94.0298 547.939 94.4269 548.235C94.824 548.531 97.3 550.65 97.3 550.65C97.3 550.65 98.0794 551.381 98.2874 551.746C98.4954 552.112 98.5168 552.29 98.6104 552.373C98.704 552.457 99.3646 552.598 99.609 552.77C99.8534 552.943 102.563 554.578 102.589 554.63C102.615 554.682 103.077 555.246 103.212 555.502C103.348 555.758 103.872 556.286 104.044 556.485C104.215 556.683 104.258 556.704 104.424 556.751C104.59 556.799 104.652 556.876 104.834 557.043C105.016 557.211 106.332 557.305 106.384 557.363C106.436 557.42 107.798 557.958 108.048 558.162C108.297 558.365 110.648 560.011 110.695 560.084C110.742 560.157 111.017 560.815 110.996 561.201C110.976 561.588 111.215 561.662 111.475 561.771C111.735 561.881 111.912 562.231 112.114 562.372C112.317 562.513 112.769 562.226 113.112 562.1C113.455 561.975 115.115 562.231 115.572 562.252C116.03 562.272 117.008 562.555 117.403 562.847C117.798 563.14 118.37 563.129 118.692 563.203C119.015 563.276 120.429 563.714 120.887 563.934C121.344 564.153 123.548 564.74 123.772 564.734C123.995 564.728 124.839 565.057 125.104 565.146C125.369 565.235 127.948 565.585 128.291 565.658C128.634 565.731 129.097 565.747 129.289 565.867C129.482 565.986 129.893 565.939 130.137 565.992C130.382 566.044 132.206 566.347 132.419 566.452C132.632 566.556 134.011 566.619 134.151 566.634C134.292 566.65 134.282 566.849 134.292 566.954C134.302 567.059 134.952 566.959 135.207 566.918C135.462 566.877 136.434 566.97 136.45 566.95C136.465 566.929 136.6 566.025 136.943 565.811C137.286 565.597 137.729 565.528 137.765 565.497C137.802 565.465 137.848 565.011 137.827 564.979C137.806 564.947 137.724 564.969 137.62 564.959C137.516 564.948 137.635 564.871 137.536 564.735C137.438 564.599 137.479 565.126 137.312 565.084C137.146 565.042 137.088 564.427 137.203 564.197C137.317 563.967 137.204 563.862 137.027 563.643C136.85 563.423 137.183 562.74 137.302 562.541C137.422 562.342 138.664 561.162 139.101 560.864C139.538 560.566 139.627 560.713 139.819 560.593C140.012 560.473 141.566 559.866 142.112 559.646C142.658 559.427 143.701 559.156 143.951 559.137C144.201 559.119 145.065 558.941 145.235 558.8C145.404 558.66 146.433 558.524 146.669 558.483C146.904 558.443 147.065 558.557 147.268 558.597C147.47 558.638 149.748 558.353 149.985 558.323C150.221 558.291 150.952 558.139 151.066 558.095C151.181 558.05 151.438 558.738 151.472 558.769C151.505 558.801 151.909 558.745 152.049 558.711C152.19 558.678 152.408 558.575 152.421 558.471C152.434 558.367 152.439 558.147 152.548 558.009C152.658 557.87 153.302 557.74 153.396 557.713C153.489 557.688 153.947 557.479 154.181 557.254C154.415 557.029 155.055 557.155 155.273 557.05C155.492 556.946 156.168 556.731 156.324 556.679C156.48 556.627 156.542 556.575 156.817 556.324C157.093 556.074 157.373 556.089 157.373 556.089C157.373 556.089 157.306 555.859 157.317 555.77C157.327 555.681 158.018 555.368 158.169 555.232C158.32 555.096 158.71 554.877 159.063 554.883C159.417 554.888 159.49 554.752 159.682 554.548C159.875 554.344 159.979 554.293 160.104 554.266C160.228 554.24 160.38 553.702 160.411 553.524C160.442 553.346 160.514 553.148 160.473 553.048C160.431 552.949 160.098 552.751 160.249 552.39C160.4 552.03 160.707 551.628 160.894 551.534C161.081 551.44 161.539 551.131 161.695 550.849C161.851 550.567 162.355 550.181 162.807 549.868C163.26 549.554 164.779 549.245 165.075 549.125C165.371 549.005 166.692 548.645 166.994 548.504C167.295 548.363 169.292 547.558 169.547 547.48C169.802 547.401 170.737 546.995 170.997 546.849C171.257 546.702 171.98 545.767 172.407 545.422C172.833 545.078 173.301 544.978 173.384 544.936C173.467 544.894 173.982 544.487 174.288 544.398C174.595 544.31 175.152 544.022 175.506 543.813C175.859 543.604 177.724 542.546 177.913 542.462C178.103 542.378 178.369 542.348 178.428 542.337C178.488 542.326 178.29 542.277 178.181 542.201C178.071 542.125 178.156 541.639 178.267 541.484C178.377 541.329 179.428 540.818 179.642 540.715C179.855 540.612 179.746 540.449 179.944 540.242C180.143 540.036 182.017 539.304 182.164 539.163C182.311 539.023 183.245 538.772 183.642 538.58C184.039 538.388 186.234 537.556 186.264 537.538C186.293 537.52 186.473 537.465 186.591 537.476C186.708 537.487 186.926 537.313 187.239 537.24C187.551 537.166 188.607 536.807 188.763 536.719C188.919 536.63 189.119 536.578 189.272 536.507C189.425 536.437 189.722 536.208 189.722 536.199C189.722 536.189 189.52 536.176 189.444 536.207C189.369 536.238 189.394 536.099 189.411 535.904C189.427 535.708 189.178 535.853 188.957 535.777C188.737 535.701 188.54 534.864 188.54 534.716C188.54 534.568 188.621 534.11 188.871 533.77C189.121 533.43 189.036 533.386 189.14 532.989C189.244 532.592 189.296 531.797 189.525 531.483C189.753 531.17 190.845 529.488 191.189 529.039C191.532 528.59 192.134 527.921 192.436 527.524C192.738 527.127 193.809 526.197 194.131 525.894C194.454 525.591 195.66 524.061 195.795 523.951C195.93 523.841 196.081 523.606 196.097 523.465C196.113 523.324 195.796 523.177 195.754 523.037C195.712 522.895 195.68 522.534 195.599 522.231C195.518 521.928 195.445 521.794 195.379 521.491C195.313 521.188 195.438 520.118 195.453 519.844C195.467 519.571 195.857 517.886 196.085 517.687C196.313 517.488 196.46 516.993 196.438 516.72C196.416 516.446 196.739 514.969 196.776 514.762C196.813 514.555 197.084 514.111 196.967 513.823C196.849 513.535 196.592 512.929 196.335 512.597C196.077 512.264 195.79 510.868 195.768 510.595C195.746 510.321 195.842 509.206 195.871 508.91C195.9 508.615 195.798 507.758 195.746 507.396C195.695 507.034 196.114 506.284 196.151 506.137C196.188 505.989 196.295 505.231 196.265 505.054C196.236 504.876 196.46 504.511 196.555 503.943C196.651 503.374 197.041 502.919 197.133 502.723C197.225 502.527 198.206 502.051 198.206 501.981C198.206 501.91 198.449 501.563 198.497 501.497C198.545 501.43 198.86 499.879 198.941 499.735C199.022 499.591 199.494 498.597 199.597 498.442C199.7 498.287 200.301 497.762 200.5 497.595C200.699 497.429 201.781 497.199 201.945 497.188C202.108 497.178 202.311 497.301 202.329 497.317C202.348 497.332 202.465 497.04 202.644 496.875C202.824 496.711 202.974 496.975 203.067 497.076C203.161 497.178 203.574 497.168 203.855 497.251C204.136 497.335 204.666 497.685 204.848 497.815C205.03 497.946 205.155 497.811 205.285 497.633C205.415 497.456 205.571 497.575 205.753 497.486C205.935 497.397 205.966 497.231 205.966 497.231C205.966 497.231 205.806 497.393 205.639 497.387C205.473 497.382 205.13 497.549 204.963 497.68C204.797 497.81 204.765 497.591 204.703 497.549C204.641 497.507 204.75 497.524 204.848 497.513C204.947 497.502 205.097 497.356 205.071 497.147C205.045 496.938 204.629 496.854 204.437 496.776C204.245 496.698 204.105 497.084 203.933 497.058C203.762 497.031 203.356 497.005 203.231 496.937C203.106 496.869 203.59 496.562 203.564 496.478C203.538 496.395 203.356 496.247 203.257 496.174C203.158 496.101 203.335 496.024 203.419 495.961C203.502 495.898 204.406 496.426 204.619 496.556C204.833 496.687 205.473 496.603 205.603 496.66C205.733 496.718 205.945 496.901 205.945 496.901C205.945 496.901 205.904 496.687 205.748 496.536C205.592 496.384 204.646 496.394 204.448 496.253C204.251 496.112 203.845 495.94 203.765 495.887C203.684 495.835 203.681 495.733 203.621 495.532C203.561 495.331 203.353 495.094 203.27 494.958C203.187 494.822 203.218 494.255 203.226 494.143C203.234 494.031 203.249 493.555 203.171 493.443C203.093 493.33 203.104 493.192 203.099 493.187C203.094 493.183 202.025 493.114 202.025 493.114C202.025 493.114 202.03 493.437 202.025 493.528C202.02 493.62 202.142 494.028 202.111 494.182C202.079 494.336 201.839 494.434 201.747 494.484C201.656 494.534 201.449 494.582 201.356 494.593C201.262 494.604 201.254 495.316 201.203 495.401C201.151 495.486 200.997 495.347 200.777 495.214C200.556 495.081 200.383 495.143 200.214 495.15C200.044 495.158 200.045 494.985 199.968 494.9C199.891 494.815 199.397 494.815 199.353 494.803C199.309 494.792 199.383 495.147 199.063 495.103C198.743 495.058 198.993 494.464 198.967 494.331C198.942 494.198 199.089 494.083 199.144 494.135C199.199 494.186 199.247 494.415 199.273 494.485C199.298 494.555 199.354 494.501 199.369 494.331C199.383 494.161 199.228 493.928 199.21 493.802C199.191 493.677 199.225 493.459 199.299 493.411C199.372 493.363 199.387 493.722 199.423 493.832C199.46 493.943 199.563 493.861 199.622 493.725C199.681 493.588 199.468 493.349 199.427 493.23C199.387 493.112 199.375 492.761 199.32 492.616C199.266 492.472 199.391 492.299 199.324 492.206C199.258 492.114 199.151 492.306 199.037 492.244C198.923 492.181 199.141 491.619 199.251 491.531C199.361 491.442 199.516 491.704 199.623 491.667C199.729 491.63 199.622 491.541 199.556 491.445C199.49 491.349 199.508 491.095 199.578 491.01C199.648 490.925 199.681 490.88 199.589 490.751C199.497 490.622 199.648 489.802 199.674 489.695C199.7 489.588 199.946 489.347 199.994 489.292C200.042 489.236 199.987 489.177 199.843 489.114C199.7 489.052 199.616 488.229 199.693 487.944C199.77 487.66 199.931 487.56 199.975 487.382C200.019 487.205 199.704 486.873 199.711 486.578C199.718 486.282 199.946 485.853 199.991 485.683C200.035 485.513 199.945 484.582 199.982 484.235C200.019 483.888 200.351 482.906 200.513 482.662C200.675 482.418 200.77 482.373 200.902 482.373C201.034 482.373 201.1 482.411 201.189 482.145C201.277 481.879 201.166 480.978 201.233 480.638C201.299 480.298 202.233 478.421 202.321 478.214C202.409 478.008 203.109 476.952 203.403 476.641C203.697 476.331 203.829 475.813 204.035 475.518C204.241 475.222 205.91 473.848 206.094 473.723C206.278 473.597 207.403 472.674 207.639 472.549C207.874 472.423 210.653 470.406 211.05 470.199C211.447 469.992 213.411 468.758 213.713 468.499C214.014 468.241 217.956 465.382 218.191 465.182C218.426 464.983 219.33 464.28 219.654 463.948C219.977 463.615 220.566 463.04 220.845 462.663C221.125 462.286 222.341 461.529 222.57 461.326C222.799 461.122 224.4 460.062 225.004 459.623C225.607 459.184 227.021 458.959 227.145 458.834C227.27 458.709 227.562 458.751 227.801 458.652C228.04 458.553 228.982 458.291 229.268 458.166C229.554 458.041 231.041 457.993 231.187 457.941C231.332 457.889 231.915 457.878 232.107 457.941C232.299 458.004 232.804 457.712 232.981 457.774C233.157 457.837 233.854 457.544 234.062 457.465C234.27 457.387 236.028 457.116 236.069 457.121C236.111 457.126 236.901 457.121 237.166 457.032C237.431 456.943 238.809 456.902 238.955 456.902C239.1 456.902 239.917 456.98 240.343 456.985C240.77 456.991 241.289 457.167 241.391 457.298C241.492 457.429 241.944 457.578 242.269 457.544C242.594 457.51 243.229 456.763 243.343 456.645C243.458 456.528 244.326 456.108 244.848 455.932C245.371 455.757 245.556 455.601 245.647 455.609C245.738 455.617 245.931 455.536 246.1 455.455C246.269 455.374 246.583 455.303 246.812 455.316C247.041 455.329 247.742 455.138 248.013 455.078C248.283 455.018 249.074 454.997 249.34 454.953C249.605 454.908 250.457 454.862 250.467 454.854C250.477 454.846 250.511 454.675 250.456 454.613C250.402 454.55 249.924 454.752 249.69 454.645C249.456 454.538 249.628 454.141 249.644 454.002C249.659 453.864 249.516 453.727 249.41 453.594C249.303 453.461 249.058 453.388 249.032 453.302C249.006 453.216 248.983 452.714 249.084 452.427C249.186 452.14 249.737 451.755 249.896 451.669C250.054 451.583 250.449 451.32 250.574 451.286C250.699 451.252 250.702 451.132 250.834 451.035C250.967 450.939 251.413 450.87 251.697 450.881C251.98 450.892 252.927 450.771 253.114 450.805C253.301 450.839 253.816 450.915 254.081 450.946C254.346 450.978 255.085 451.23 255.124 451.277C255.163 451.325 255.532 451.284 255.763 451.304C255.995 451.325 256.502 451.367 256.663 451.356C256.824 451.346 256.757 451.276 256.749 451.101C256.741 450.926 256.908 450.685 256.991 450.529C257.074 450.372 257.019 450.267 257.022 449.943C257.025 449.619 257.336 449.7 257.398 449.695C257.461 449.69 257.549 449.489 257.552 449.363C257.555 449.238 258.311 449.209 258.443 449.162C258.576 449.115 258.867 449.136 259.094 449.055C259.32 448.974 260.009 448.815 260.24 448.776C260.472 448.737 260.675 448.676 260.789 448.537C260.904 448.399 261.431 448.274 261.603 448.196C261.774 448.117 262.019 448.157 262.344 448.073C262.669 447.99 262.823 447.715 262.968 447.658C263.114 447.6 263.373 447.662 263.446 447.671C263.519 447.682 263.576 447.545 263.805 447.373C264.034 447.2 264.429 447.368 264.496 447.331C264.564 447.295 265.271 446.741 265.359 446.663C265.448 446.584 266.327 446.495 266.525 446.537C266.722 446.579 267.325 446.355 267.559 446.141C267.793 445.926 268.755 445.711 268.797 445.706C268.839 445.7 269.328 445.487 269.551 445.341C269.775 445.195 270.232 445.262 270.518 445.335C270.804 445.408 271.027 444.991 271.142 444.855C271.256 444.719 272.01 444.781 272.197 444.787C272.385 444.792 272.614 444.563 272.91 444.484C273.206 444.406 273.934 444.656 274.017 444.672C274.101 444.687 274.833 444.771 275.026 444.902C275.218 445.033 275.759 445.126 275.951 445.152C276.144 445.179 276.446 445.033 276.639 444.881C276.831 444.73 277.029 444.479 277.049 444.354C277.07 444.228 277.667 443.773 277.875 443.627C278.083 443.481 278.344 443.471 278.52 443.413C278.697 443.356 278.827 443.267 279.025 443.235C279.222 443.204 279.602 443.1 279.934 443.084C280.267 443.068 280.757 442.786 281.043 442.812C281.329 442.839 283.175 442.739 283.206 442.718C283.237 442.697 284.158 442.75 284.392 442.781C284.625 442.812 285.696 442.739 286.102 442.875C286.508 443.011 287.576 443.118 287.602 443.11C287.628 443.102 287.945 443.16 288.137 443.173C288.33 443.186 288.429 443.238 288.549 443.311C288.668 443.384 289.29 443.473 289.438 443.481C289.586 443.489 290.004 443.588 290.246 443.575C290.487 443.562 290.696 443.667 290.896 443.735C291.096 443.803 291.621 443.8 291.855 443.771C292.089 443.742 292.149 443.862 292.233 443.954C292.316 444.045 293.124 444.1 293.184 444.113C293.244 444.126 294.98 444.137 295.069 444.137C295.157 444.137 295.384 444.076 295.592 444.048C295.8 444.019 296.377 443.794 296.526 443.794C296.674 443.794 297.222 443.544 297.432 443.489C297.643 443.434 297.804 443.288 297.962 443.199C298.121 443.11 298.81 443.018 299.031 442.955C299.252 442.893 300.071 442.859 300.248 442.825C300.425 442.791 300.611 442.473 300.817 442.421C301.022 442.368 301.655 442.369 301.847 442.346C302.038 442.324 303.339 442.021 303.795 442.006C304.251 441.992 305.045 442.05 305.258 441.999C305.471 441.947 305.567 441.822 305.552 441.77C305.538 441.719 304.839 441.807 304.574 441.741C304.31 441.674 304.126 441.578 303.957 441.534C303.788 441.49 303.663 441.637 303.534 441.652C303.405 441.666 302.608 441.675 302.383 441.623C302.159 441.571 301.545 441.323 301.46 441.253C301.375 441.183 301.335 441.135 301.288 441.094C301.24 441.054 300.975 441.039 300.762 440.917C300.548 440.795 300.36 440.754 300.195 440.754C300.029 440.754 299.945 441.035 299.842 441.113C299.739 441.19 299.364 441.279 299.206 441.361C299.048 441.442 299.019 441.641 298.92 441.703C298.821 441.766 298.497 441.719 298.287 441.696C298.078 441.674 298.071 441.789 298.001 441.848C297.931 441.907 297.669 441.829 297.541 441.844C297.412 441.859 297.493 441.922 297.486 441.996C297.479 442.07 297.364 442.028 297.155 441.966C296.945 441.903 297.011 441.733 296.901 441.637C296.791 441.541 296.691 441.633 296.467 441.593C296.242 441.552 295.688 441.36 295.526 441.408C295.364 441.456 295.114 441.357 294.989 441.335C294.864 441.313 294.989 441.198 294.982 441.098C294.975 440.999 294.703 441.046 294.526 441.035C294.35 441.023 294.338 440.866 294.239 440.77C294.14 440.673 293.997 440.754 293.791 440.699C293.585 440.643 293.736 440.536 293.736 440.536C293.736 440.536 294.247 440.507 294.31 440.603C294.372 440.699 294.478 440.765 294.625 440.82C294.772 440.876 295.32 440.965 295.382 441.013C295.445 441.061 295.757 441.006 295.813 441.006C295.868 441.006 296.541 441.26 296.685 441.327C296.828 441.393 297.64 441.405 297.714 441.464C297.787 441.523 298.226 441.607 298.332 441.507C298.439 441.407 298.772 441.401 298.798 441.382C298.824 441.364 298.67 441.231 298.516 441.179C298.361 441.127 298.041 441.072 297.864 441.164C297.688 441.257 297.361 441.231 297.155 441.275C296.949 441.319 295.096 440.698 294.596 440.551C294.096 440.403 292.228 439.857 291.801 439.665C291.375 439.473 288.787 437.684 288.066 437.152C287.346 436.621 284.448 434.124 284.007 433.71C283.566 433.296 282.153 431.819 281.771 431.464C281.388 431.11 279.076 428.31 278.973 428.177C278.87 428.044 278.583 427.689 278.355 427.393C278.127 427.098 277.649 426.385 277.506 426.167C277.363 425.949 276.631 424.479 276.535 424.394C276.44 424.309 276.142 423.647 276.035 423.518C275.928 423.389 275.558 422.513 275.506 422.358C275.455 422.203 275.23 420.504 275.23 420.504C275.23 420.504 275.616 420.017 275.73 420.006C275.844 419.994 276.565 420.187 276.818 420.157C277.072 420.127 276.977 419.747 276.973 419.422C276.969 419.097 277.053 418.2 277.046 418.052C277.039 417.904 277.234 417.619 277.318 417.446C277.403 417.272 277.517 417.017 277.613 416.832C277.708 416.648 277.686 415.994 277.657 415.902C277.627 415.809 277.389 415.525 277.363 415.285C277.337 415.045 277.561 413.955 277.606 413.74C277.65 413.526 277.778 412.902 277.749 412.765C277.719 412.629 277.848 412.104 277.903 411.901C277.958 411.697 278.204 411.248 278.329 411.019C278.453 410.789 278.234 410.424 278.276 410.288C278.317 410.152 278.796 409.211 278.796 409.211C278.924 408.954 278.881 408.383 278.981 408.055C279.08 407.726 280.912 406.357 281.197 406.043C281.481 405.729 281.722 405.373 281.864 405.001C282.006 404.63 282.475 403.802 282.632 403.374C282.788 402.946 282.816 402.261 282.858 401.776C282.901 401.291 283.71 399.706 284.122 399.293C284.534 398.879 284.747 398.479 284.804 398.151C284.861 397.823 285.528 397.195 285.926 396.938C286.324 396.681 286.433 396.458 286.532 396.016C286.632 395.573 287.205 395.61 287.532 395.168C287.859 394.725 287.759 394.226 288.27 393.669C288.782 393.112 289.763 391.914 289.961 391.714C290.16 391.514 291.538 391.086 291.665 391C291.793 390.914 291.879 390.173 292.192 389.759C292.504 389.345 293.1 388.503 293.64 388.246C294.18 387.989 293.839 387.974 293.896 387.575C293.953 387.175 294.535 385.849 294.947 385.435C295.359 385.021 296.68 384.436 296.666 384.222C296.652 384.008 297.375 383.232 297.375 383.232C297.465 383.121 297.751 382.95 297.856 382.844C297.962 382.738 298.268 382.344 298.404 382.157C298.539 381.971 298.555 381.365 298.525 381.27C298.494 381.174 298.063 380.947 298.008 380.907C297.953 380.866 297.917 380.301 298.027 380.089C298.138 379.877 298.455 379.67 298.495 379.352C298.535 379.034 298.736 378.651 298.786 378.515C298.836 378.378 299.238 378.035 299.404 377.985C299.57 377.934 300.032 377.43 300.102 377.193C300.173 376.956 300.795 376.562 301.057 376.4C301.318 376.239 301.342 375.82 301.423 375.598C301.503 375.376 301.529 375.164 301.433 374.987C301.338 374.811 301.714 374.245 301.88 374.059C302.045 373.872 302.397 373.827 302.648 373.656C302.899 373.484 303.08 373.232 303.291 373.04C303.502 372.848 303.538 372.797 303.583 372.52C303.628 372.242 303.834 372.187 304.145 371.96C304.456 371.733 304.537 371.537 304.753 371.32C304.969 371.103 306.159 370.356 306.275 370.189C306.39 370.023 306.551 369.417 306.606 369.306C306.661 369.195 306.907 368.796 307.269 368.59C307.631 368.383 307.851 367.948 308.022 367.651C308.193 367.353 308.822 366.844 309.002 366.617C309.183 366.389 309.73 365.764 309.85 365.603C309.971 365.441 310.489 365.219 310.675 364.734C310.861 364.25 311.879 363.832 312.1 363.721C312.321 363.61 313.171 363.317 313.201 363.251C313.231 363.186 312.965 363.125 312.804 362.999C312.643 362.873 312.065 362.434 311.799 361.995C311.533 361.556 311.785 361.54 311.981 361.182C312.177 360.824 311.96 360.598 311.658 360.239C311.357 359.881 311.077 359.731 310.722 359.624C310.367 359.517 310.282 359.717 310.054 359.432C309.827 359.146 309.82 358.811 309.678 358.604C309.536 358.397 309.189 357.212 309.032 356.948C308.876 356.684 309.33 356.585 309.38 356.542C309.429 356.5 309.295 355.85 309.224 355.593C309.153 355.336 309.451 355.301 309.544 355.229C309.636 355.158 309.579 354.487 309.742 354.323C309.905 354.159 310.275 354.008 310.268 353.894C310.261 353.78 310.033 353.924 309.813 353.874C309.593 353.824 309.309 353.389 309.281 353.082C309.252 352.775 309.451 352.931 309.458 352.603C309.466 352.275 309.429 351.753 309.444 351.675C309.458 351.596 310.296 351.426 310.545 351.311C310.793 351.197 310.524 350.605 310.58 350.305C310.637 350.005 310.36 349.827 310.296 349.642C310.232 349.456 310.638 349.307 310.702 349.235C310.766 349.164 310.524 348.757 310.63 348.507C310.737 348.257 311.404 347.837 311.532 347.801C311.66 347.765 312.285 347.336 312.718 347.015C313.151 346.694 313.258 346.203 313.535 345.924C313.812 345.646 314.658 345.175 314.643 345.146C314.629 345.117 314.814 344.518 314.487 344.346C314.161 344.175 313.407 343.719 313.279 343.37C313.152 343.02 314.31 341.892 314.601 341.614C314.892 341.336 315.098 341.15 315.339 340.893C315.581 340.636 316.846 339.68 316.959 339.637C317.073 339.594 317.3 339.787 317.555 339.63C317.811 339.473 318.188 338.767 318.429 338.532C318.671 338.296 319.168 338.217 319.601 337.889C320.035 337.561 320.269 337.539 320.788 337.418C321.306 337.297 321.683 337.511 322.024 337.49C322.365 337.468 322.861 337.025 323.329 336.89C323.798 336.754 323.792 336.84 323.977 336.64C324.161 336.44 324.226 336.048 324.424 335.856C324.623 335.663 324.615 335.214 324.758 334.9C324.9 334.586 325.617 334.364 325.809 334.257C326.001 334.15 328.6 334.307 328.884 334.257C329.168 334.207 330.05 334.321 330.299 334.3C330.547 334.278 331.193 334.528 331.505 334.614C331.818 334.699 332.556 334.706 332.84 334.656C333.125 334.606 335.093 334.92 335.274 334.935C335.455 334.95 336.072 334.985 336.309 334.995C336.545 335.006 337.338 335.051 337.524 335.041C337.71 335.031 338.102 335.167 338.368 335.167C338.634 335.167 338.865 335.036 338.935 334.854C339.006 334.672 339.052 334.607 339.192 334.491C339.333 334.374 339.312 334.244 339.292 334.204C339.272 334.163 338.68 334.198 338.524 334.324C338.368 334.45 338.097 334.562 337.639 334.436C337.182 334.31 336.851 334.325 336.922 334.204C336.992 334.082 337.183 333.971 337.434 333.931C337.685 333.89 337.75 333.754 337.905 333.542C338.061 333.33 337.811 333.108 337.68 333.002C337.55 332.896 337.52 332.644 337.66 332.548C337.801 332.452 337.901 332.432 337.946 332.251C337.991 332.069 338.232 332.21 338.398 332.184C338.564 332.159 338.574 332.432 338.554 332.624C338.534 332.816 338.509 332.724 338.383 332.79C338.258 332.855 338.574 333.078 338.775 333.128C338.976 333.179 339.358 333.058 339.453 332.942C339.548 332.826 339.91 332.946 340.126 332.921C340.342 332.896 340.292 333.174 340.206 333.326C340.121 333.477 339.834 333.254 339.694 333.224C339.553 333.194 339.613 333.512 339.538 333.724C339.462 333.935 339.629 334.016 339.85 334.092C340.071 334.167 340.372 333.773 340.538 333.713C340.703 333.652 341.046 333.8 341.287 333.744C341.528 333.689 341.773 333.506 341.567 333.305C341.361 333.103 341.272 332.815 341.061 332.598C340.85 332.381 340.849 332.381 340.809 332.26C340.769 332.139 341.211 332.058 341.306 332.104C341.401 332.149 341.688 332.16 341.728 332.135C341.768 332.109 341.688 331.861 341.763 331.76C341.839 331.66 341.769 331.438 341.744 331.337C341.719 331.236 341.979 331.136 342.326 331.196C342.672 331.257 343.486 331.554 343.707 331.554C343.928 331.554 343.908 331.549 344.013 331.644C344.119 331.74 344.44 331.705 344.586 331.73C344.732 331.756 345.6 332.033 345.761 332.049C345.922 332.064 346.198 331.725 346.198 331.725C346.198 331.725 346.324 332.19 346.399 332.316C346.475 332.442 346.364 332.891 346.053 333.027C345.741 333.164 345.51 333.048 345.36 333.033C345.209 333.017 344.847 332.775 344.676 332.81C344.506 332.846 343.928 332.721 343.763 332.68C343.597 332.64 343.215 332.755 342.944 332.932C342.672 333.108 342.718 333.346 342.758 333.467C342.798 333.588 342.768 333.911 342.597 334.088C342.426 334.264 342.392 334.385 342.271 334.491C342.15 334.596 341.814 334.491 341.588 334.582C341.362 334.673 341.131 334.844 340.935 334.703C340.739 334.562 340.352 334.228 340.196 334.299C340.041 334.369 339.98 334.658 339.814 334.85C339.649 335.041 339.624 335.192 339.699 335.288C339.775 335.384 340.769 335.621 340.92 335.627C341.07 335.632 341.663 335.627 341.879 335.707C342.095 335.788 342.733 335.848 342.984 335.934C343.235 336.02 343.949 336.055 344.265 336.116C344.582 336.176 345.982 336.403 346.002 336.403C346.022 336.403 346.555 336.519 346.892 336.559C347.228 336.6 347.825 336.631 348.096 336.656C348.368 336.681 349.046 336.878 349.297 336.953C349.548 337.029 349.648 336.893 349.97 337.039C350.291 337.186 350.599 337.125 350.985 337.231C351.372 337.337 351.497 337.347 351.703 337.317C351.909 337.287 352.777 337.488 352.988 337.549C353.199 337.61 353.485 337.639 353.701 337.639C353.917 337.639 354.806 337.841 354.997 337.942C355.188 338.043 355.425 337.927 355.354 337.801C355.284 337.675 355.002 337.533 354.816 337.362C354.631 337.19 354.44 337.281 354.189 337.291C353.938 337.301 353.506 336.953 353.29 336.928C353.074 336.903 352.14 336.807 351.839 336.751C351.537 336.696 351.421 336.686 351.271 336.57C351.12 336.454 350.789 336.61 350.553 336.575C350.317 336.539 350.443 336.434 350.297 336.444C350.151 336.455 349.855 336.403 349.684 336.262C349.514 336.121 349.392 336.353 349.131 336.267C348.87 336.181 348.142 336.135 347.811 335.959C347.479 335.782 346.965 335.884 346.817 335.894C346.668 335.904 346.517 335.867 346.414 335.781C346.312 335.695 346.39 335.616 346.307 335.581C346.224 335.545 346.229 335.657 346.251 335.773C346.274 335.889 345.859 335.874 345.633 335.755C345.407 335.636 345.533 335.578 345.434 335.55C345.334 335.521 344.816 335.521 344.546 335.4C344.277 335.278 343.702 335.356 343.005 335.142C342.309 334.928 342.558 334.971 342.381 334.664C342.203 334.357 342.657 334.365 342.807 334.158C342.956 333.951 342.998 333.558 343.119 333.473C343.24 333.387 343.666 333.801 344.057 333.93C344.448 334.058 344.703 333.323 344.951 333.523C345.2 333.722 345.874 333.665 346.123 333.594C346.371 333.522 346.535 332.823 346.699 332.545C346.862 332.267 347.621 332.096 347.77 331.846C347.919 331.596 348.545 331.718 348.978 331.647C349.412 331.575 349.347 331.701 349.543 331.605C349.739 331.509 349.925 331.363 349.915 331.232C349.905 331.101 349.182 330.803 348.875 330.657C348.569 330.511 348.091 330.223 347.936 330.011C347.78 329.799 347.895 329.591 347.874 329.427C347.853 329.263 347.796 328.171 347.856 328.071C347.916 327.971 349 328.047 349.274 328.139C349.547 328.232 350.929 328.103 350.959 328.063C350.99 328.022 351.03 328.507 350.869 328.78C350.709 329.052 350.678 329.828 350.583 329.975C350.487 330.121 350.387 330.353 350.583 330.59C350.779 330.827 351.017 331.275 351.273 331.475C351.529 331.674 351.557 331.175 351.869 331.061C352.182 330.947 353.027 331.732 352.97 331.853C352.913 331.974 352.594 332.167 352.523 332.453C352.452 332.738 353.084 332.56 353.134 332.81C353.184 333.059 353.418 333.388 353.688 333.63C353.958 333.873 354.647 334.122 355.314 333.83C355.982 333.537 356.017 333.487 356.323 333.408C356.628 333.33 357.396 333.444 357.772 333.53C358.149 333.615 358.674 333.494 358.795 333.394C358.915 333.294 359.278 333.573 359.427 333.623C359.576 333.673 360.364 333.958 360.585 334.079C360.805 334.201 361.202 334.151 361.501 334.343C361.799 334.536 363.028 335.107 363.369 335.256C363.71 335.406 364.136 335.643 364.477 335.985C364.818 336.328 365.577 336.327 365.868 336.606C366.16 336.884 366.998 337.298 367.474 337.534C367.949 337.769 368.071 337.983 368.121 338.397C368.156 338.69 367.679 338.743 367.418 338.751C367.697 338.745 368.67 338.721 368.987 338.81C369.342 338.91 371.047 338.739 371.558 338.654C372.07 338.568 374.354 337.963 374.736 337.7C375.117 337.438 376.173 336.833 376.554 336.358C376.936 335.884 376.836 335.138 376.826 334.875C376.815 334.613 376.584 333.876 376.504 333.553C376.423 333.23 376.233 331.595 376.052 331.141C375.871 330.686 375.82 329.12 375.65 328.435C375.479 327.75 375.11 324.011 375.039 323.768C374.968 323.526 374.911 321.399 374.854 320.714C374.797 320.029 374.727 317.004 374.684 316.818C374.641 316.633 374.584 315.676 374.613 315.348C374.641 315.019 374.627 312.637 374.556 312.295C374.485 311.952 374.3 310.596 374.3 310.182C374.3 309.769 374.243 308.569 374.243 308.569C374.243 308.569 374.023 304.759 374.023 304.659C374.023 304.559 373.945 303.966 373.902 303.631C373.859 303.296 373.91 301.227 373.874 301.12C373.839 301.013 373.909 300.184 373.853 299.713C373.796 299.242 373.732 298.15 373.668 297.915C373.604 297.679 373.724 297.216 373.76 297.052C373.795 296.888 373.732 294.626 373.725 294.376C373.718 294.126 373.511 291.322 373.518 291.036C373.526 290.751 373.547 290.53 373.469 290.237C373.391 289.944 373.363 288.054 373.441 287.818C373.519 287.583 373.483 287.134 373.498 286.855C373.512 286.577 373.498 284.358 373.483 284.172C373.473 284.03 373.528 283.296 373.506 282.773L373.417 282.774L372.786 282.896C372.023 282.998 371.25 283.035 370.48 283.045C370.172 283.115 369.919 282.922 369.65 282.807C369.392 282.728 369.266 282.503 369.523 282.326C369.569 282.037 369.506 281.714 369.511 281.411C369.506 281.22 369.457 280.899 369.34 280.808C369.094 280.868 368.895 280.989 368.788 281.228C368.664 281.331 368.579 280.858 368.47 280.739C368.297 280.609 368.037 280.581 367.831 280.488C367.619 280.315 367.383 280.115 367.342 279.822C367.231 279.589 367.205 279.358 367.342 279.13C367.482 279.281 367.561 279.586 367.739 279.64C368.124 279.631 368.36 279.286 368.721 279.209C369.057 279.213 368.963 278.924 368.885 278.707C368.694 278.543 368.602 278.192 368.313 278.214C367.987 278.217 367.688 278.117 367.408 277.954C367.123 277.864 366.977 277.751 367.29 277.559C367.964 277.559 368.642 277.644 369.309 277.509C369.158 277.265 368.941 277.097 368.687 276.971C368.493 276.784 368.252 276.816 368.008 276.86C367.745 276.844 367.43 277.031 367.216 276.827C367.02 276.659 366.734 276.503 366.482 276.609C366.269 276.725 366.05 276.886 365.901 276.599C365.731 276.36 365.553 276.281 365.36 276.544C365.207 276.616 364.81 276.689 364.743 276.583C364.722 276.344 364.932 276.151 365.139 276.085C365.377 276.05 365.633 276.038 365.684 275.751C365.643 275.47 365.465 275.183 365.372 274.899C365.076 274.852 364.779 274.804 364.483 274.757C364.183 274.635 364.073 274.758 364.108 275.066C364.07 275.307 364.139 275.604 363.874 275.729C363.718 275.975 363.446 275.822 363.215 275.809C363.17 275.666 363.384 275.381 363.406 275.195C363.201 275.041 362.841 275.004 362.855 274.687C362.829 274.396 362.766 274.207 362.533 274.508C362.443 274.723 362.635 275.027 362.497 275.245C362.376 275.404 362.316 275.863 362.101 275.549C362.145 275.162 362.205 274.765 362.149 274.385C362.406 274.25 362.52 274.093 362.263 273.88L360.947 274.038C360.611 274.149 360.565 274.016 360.713 273.722C360.88 273.451 360.293 273.537 360.491 273.211C360.522 272.915 360.154 272.987 360.07 273.217C359.769 273.387 359.9 272.949 359.962 272.776C359.935 272.594 359.528 272.649 359.348 272.563C359.15 272.475 358.837 272.551 358.724 272.342C358.614 272.242 358.709 272.2 358.783 272.122C358.889 272.051 358.922 271.948 358.909 271.825C358.782 271.83 358.655 271.836 358.528 271.841C358.445 271.818 358.232 271.922 358.276 271.775C358.238 271.611 358.359 271.613 358.487 271.621C358.59 271.611 358.779 271.659 358.669 271.502C358.58 271.359 358.684 271.205 358.703 271.055C358.778 270.994 358.915 270.994 359.013 270.955C359.146 270.943 359.241 270.86 359.33 270.767C359.474 270.593 359.706 270.563 359.9 270.472C359.962 270.391 359.973 270.26 360.015 270.161C359.972 269.973 359.875 269.788 359.811 269.601L359.452 269.824C359.397 269.955 359.395 270.122 359.361 270.267C359.238 270.234 359.116 270.201 358.993 270.168C358.783 270.08 358.558 270.144 358.338 270.151C358.223 270.164 358.243 269.965 358.187 269.886C358.138 269.671 358.16 269.442 358.138 269.221C358.108 269.101 358.16 268.999 358.221 268.899C358.255 268.749 358.208 268.581 358.21 268.424C358.382 268.415 358.554 268.406 358.725 268.397C358.967 268.404 359.196 268.34 359.427 268.276L359.991 268.555C360.189 268.494 360.387 268.434 360.584 268.373C360.756 268.518 360.928 268.664 361.1 268.809L361.198 269.536C361.442 269.454 361.687 269.372 361.931 269.289C362.125 269.269 362.328 269.307 362.526 269.309C362.529 269.183 362.533 269.058 362.537 268.932C362.574 268.665 362.473 268.411 362.425 268.152C362.272 268.109 362.118 268.065 361.965 268.022C361.882 267.943 361.834 267.818 361.764 267.722C361.819 267.611 361.817 267.459 361.92 267.381C362.118 267.254 362.216 267.036 362.348 266.85C362.201 266.882 362.053 266.913 361.906 266.945C361.86 266.833 361.814 266.722 361.769 266.61C361.493 266.551 361.217 266.492 360.942 266.434C360.99 266.291 361.039 266.15 361.087 266.007C361.051 265.792 360.966 265.575 360.912 265.359C360.94 265.222 360.901 265.051 360.975 264.934C361.125 264.692 361.432 264.672 361.669 264.554C362.039 264.812 362.408 265.07 362.781 265.325C362.967 265.39 363.153 265.519 363.354 265.502C363.656 265.503 363.971 265.382 364.262 265.497C364.516 265.616 364.79 265.57 365.06 265.557C365.255 265.491 365.368 265.62 365.475 265.765C365.51 265.946 365.456 266.158 365.456 266.351C365.445 266.525 365.676 266.603 365.771 266.735C365.975 266.796 366.211 266.783 366.427 266.816C366.623 266.68 366.843 266.568 366.955 266.345C367.18 266.133 367.035 265.775 367.214 265.542C367.309 265.296 367.641 265.316 367.793 265.137C367.844 264.922 368.093 264.941 368.26 264.862C368.382 264.924 368.481 265.104 368.605 265.201C368.809 265.21 369.026 265.318 369.222 265.255C369.458 265.215 369.482 264.939 369.568 264.757C369.942 264.775 370.315 264.793 370.689 264.811C370.722 265.058 370.665 265.306 370.651 265.553C370.994 265.652 371.359 265.729 371.689 265.841C372.377 265.896 373.069 265.968 373.76 265.914L373.85 265.905C373.871 265.367 373.892 264.91 373.903 264.86C373.933 264.719 373.771 262.873 373.892 262.368C374.013 261.863 374.093 261.025 374.093 260.732C374.093 260.44 374.053 260.016 373.943 259.501C373.832 258.986 374.144 257.463 374.083 257.059C374.023 256.655 374.053 256.151 374.153 255.909C374.254 255.667 374.294 252.559 374.184 252.166C374.073 251.772 374.235 248.321 374.194 248.069C374.154 247.816 374.013 246.776 373.963 246.332C373.913 245.888 373.952 244.102 373.892 243.85C373.832 243.598 373.841 242.649 373.661 242.114C373.48 241.579 373.402 239.781 373.335 239.581C373.268 239.381 373.281 238.393 373.281 238.35C373.281 238.307 373.04 238.365 372.983 238.411C372.926 238.457 373.04 239.06 372.962 239.188C372.884 239.317 372.322 239.459 372.109 239.352C371.896 239.245 371.928 239.095 371.868 239.027C371.808 238.959 372.032 238.717 372.003 238.681C371.975 238.646 372.5 238.614 372.592 238.614C372.685 238.614 372.798 238.325 372.791 238.186C372.784 238.047 372.912 238.104 372.987 238.036C373.061 237.968 372.948 237.653 372.778 237.3C372.607 236.947 372.647 236.09 372.547 235.727C372.447 235.364 372.266 233.264 372.155 232.981C372.045 232.699 371.914 230.448 371.894 230.286C371.874 230.125 372.031 227.821 372.08 227.518C372.13 227.215 372.14 226.506 372.077 226.324C372.015 226.142 371.954 226.157 371.755 226.175L371.245 225.594C371.189 225.423 370.777 224.496 370.522 224.11C370.266 223.725 370.223 222.527 370.039 222.084C369.854 221.642 369.385 219.344 369.229 218.745C369.073 218.145 368.007 215.747 367.865 215.476C367.723 215.204 366.515 212.879 366.387 212.279C366.26 211.68 366.246 211.352 365.976 211.138C365.706 210.924 365.749 210.652 365.521 210.138C365.294 209.625 364.924 208.911 364.583 208.511C364.242 208.112 363.788 204.858 363.703 204.002C363.617 203.145 364.242 198.692 364.271 198.407C364.3 198.122 364.754 194.441 365.265 192.814C365.777 191.187 366.288 190.101 366.316 189.987C366.345 189.873 366.488 187.618 366.658 187.275C366.829 186.933 367.396 184.507 367.311 183.822C367.225 183.137 368.192 180.225 368.306 179.369C368.331 179.18 368.411 178.833 368.516 178.422L368.405 178.385C368.097 178.15 367.853 177.856 367.68 177.508C367.587 177.236 367.599 176.929 367.541 176.643C367.451 176.43 367.651 176.287 367.747 176.119C367.476 176.012 367.267 175.807 367.096 175.577C367.014 175.394 366.936 175.206 366.716 175.172C366.535 175.03 366.355 175.11 366.176 175.209C365.864 175.204 365.541 175.122 365.225 175.088C364.976 174.971 364.923 175.144 364.901 175.363C364.828 175.542 364.884 175.826 364.642 175.866C364.523 176.055 364.484 176.318 364.396 176.535C364.34 176.721 364.309 176.931 364.077 176.95C363.872 176.923 363.667 176.794 363.462 176.728C363.322 176.581 363.243 176.362 363.125 176.188C363.043 176.021 362.853 175.859 363.015 175.678C363.05 175.455 363.336 175.581 363.289 175.299C363.346 175.128 363.303 174.859 363.557 174.883C363.707 174.797 363.658 174.517 363.729 174.353C363.86 173.992 363.746 173.617 363.722 173.248C363.529 173.178 363.283 173.187 363.193 172.968L362.557 173.052C362.549 173.252 362.541 173.452 362.534 173.653C362.441 173.813 362.253 173.933 362.125 174.077C362.089 174.592 362.053 175.105 362.018 175.62C361.652 175.712 361.286 175.805 360.921 175.897C361.01 175.393 361.099 174.889 361.188 174.386L360.434 174.293C360.275 174.318 359.978 174.143 359.914 174.308C359.526 174.327 359.138 174.345 358.75 174.364C358.651 174.669 358.552 174.974 358.452 175.279C358.267 174.848 358.082 174.416 357.896 173.985C357.86 173.731 357.572 173.75 357.387 173.657C357.444 173.16 357.502 172.663 357.56 172.166C357.552 171.999 357.664 171.739 357.584 171.628C357.223 171.552 356.859 171.565 356.495 171.611C356.272 171.58 356.134 171.686 356.056 171.892C355.86 172.115 355.553 171.984 355.297 171.989C354.999 171.952 355.067 172.053 355.088 172.284C354.896 172.425 354.45 172.35 354.162 172.409C353.685 172.597 353.882 172.053 353.845 171.763C353.901 171.427 353.949 171.077 354.367 171.276C354.776 171.207 354.825 171.663 355.137 171.306C355.384 171.083 355.693 170.976 355.994 170.998C356.209 170.73 355.775 170.242 356.243 170.22C356.555 170.149 356.215 169.611 355.983 169.546C356.087 169.156 356.191 168.766 356.295 168.376C356.779 168.431 357.263 168.487 357.747 168.541C358.113 168.549 358.468 168.568 358.319 169.029C357.948 169.052 357.576 169.075 357.205 169.098L357.19 170.951C357.169 171.289 357.746 171.13 357.98 171.256C358.32 171.256 358.51 171.602 358.865 171.564C359.162 171.505 359.582 171.595 359.77 171.314C359.83 170.984 359.716 170.6 359.711 170.251C359.825 169.843 360.307 169.899 360.626 169.749C359.923 169.017 359.221 168.286 358.518 167.555C358.459 167.255 358.585 166.893 358.598 166.569C358.595 166.261 358.854 165.798 358.388 165.767C358.094 165.717 357.775 165.356 357.506 165.61C357.458 166.102 357.55 166.603 357.789 167.037C357.882 167.187 357.29 166.726 357.285 166.529C357.273 166.095 356.798 166.099 356.479 166.047C356.238 165.84 356.101 165.472 355.9 165.205C355.629 164.904 355.859 164.606 356.116 164.399C356.214 163.867 356.543 164.314 356.688 163.953C357.082 163.71 357.489 163.507 357.959 163.488C358.334 163.571 358.365 162.939 358.051 162.858C357.773 162.678 357.41 162.522 357.725 162.174C357.8 161.899 358.185 161.481 357.826 161.279C357.549 161.01 357.077 160.907 356.757 161.153C356.439 160.989 356.204 161.39 355.894 161.225C355.594 161.103 355.274 161.548 355.088 161.098C354.889 161.349 354.691 161.598 354.493 161.849C354.259 161.54 354.021 161.233 353.9 160.859C353.612 161.034 353.324 161.208 353.036 161.382C352.731 161.282 352.292 161.396 352.152 161.031C352.127 160.53 352.391 160.013 352.331 159.501C352.227 159.106 352.792 159.232 352.634 158.762C353.045 158.602 353.458 158.695 353.87 158.798C353.999 158.486 354.127 158.173 354.256 157.861C354.477 157.688 354.945 157.853 355.018 157.449C355.107 157.074 355.699 157.338 355.723 156.918C355.781 156.497 356.028 156.409 356.405 156.547C356.66 156.663 357.216 156.481 357.216 156.849C357.404 157.526 356.969 158.178 357.109 158.861C357.428 159.092 357.722 159.352 357.98 159.651C358.391 159.914 358.269 160.486 358.629 160.786C358.978 160.969 359.409 161.024 359.808 161.026C360.161 160.843 360.689 160.898 360.872 160.489C360.948 159.928 361.338 159.529 361.634 159.065C362.148 159.349 362.661 159.633 363.175 159.916C363.266 160.211 363.512 160.477 363.471 160.796C363.445 161.096 363.147 161.365 362.858 161.446C362.543 161.506 362.544 162.048 362.152 161.899C361.822 161.884 361.766 162.422 361.36 162.303C361.018 162.399 360.713 162.389 360.522 162.049C360.344 161.841 359.962 161.594 359.723 161.828C359.589 162.213 359.623 162.7 359.554 163.125C360.048 163.334 360.541 163.544 361.035 163.753C361.39 163.843 361.639 164.002 361.521 164.405C361.441 164.939 361.665 165.424 361.829 165.919C361.901 166.519 361.818 167.142 361.832 167.751C361.646 168.131 362.267 168.314 362.262 167.937C362.423 167.683 362.739 167.513 362.957 167.291C362.894 166.817 362.983 166.339 362.99 165.863L364.052 165.707C364.296 165.481 364.735 165.391 364.749 165.002C364.772 164.631 365.306 164.673 365.343 164.284C365.417 163.812 365.836 164.165 366.126 164.051C366.556 164.148 366.831 164.536 367.083 164.879C367.412 164.484 367.524 163.972 367.541 163.468C367.526 163.073 367.652 162.688 367.923 162.406C368.187 162.148 368.518 162.189 368.837 162.305C369.029 162.666 368.982 163.075 369.084 163.46C369.128 163.928 369.324 164.421 369.782 164.618C370.599 164.749 371.409 164.684 372.241 164.653L372.253 164.65C372.331 164.099 372.403 163.585 372.454 163.299C372.596 162.5 373.931 158.99 374.471 158.077C375.01 157.163 376.772 153.081 377.312 151.968C377.852 150.854 382.597 144.233 383.079 143.291C383.562 142.349 385.408 139.267 386.119 138.353C386.628 137.699 388.434 134.732 389.483 133.078L390.246 131.956C390.426 131.885 390.738 130.502 391.019 129.998C391.3 129.493 392.023 128.414 392.133 128.272C392.244 128.131 393.259 126.567 393.48 126.446C393.701 126.325 394.645 124.659 394.896 124.427C395.147 124.195 395.449 123.802 395.519 123.59C395.589 123.378 396.352 122.368 396.643 122.075C396.935 121.783 398.06 120.764 398.552 119.957C399.044 119.149 399.748 118.564 399.928 118.393C400.109 118.221 400.732 117.272 401.034 116.909C401.335 116.545 402.038 114.992 402.55 114.518C403.062 114.043 403.665 113.003 403.816 112.862C403.966 112.721 404.148 112.368 404.178 112.136C404.208 111.904 404.62 111.389 404.831 110.934C405.041 110.48 404.971 109.946 405.062 109.452C405.152 108.957 405.443 107.292 405.544 106.959C405.644 106.626 405.735 105.849 405.815 105.455C405.895 105.062 406.197 103.871 406.478 103.457C406.759 103.043 406.689 102.71 406.86 102.215C407.031 101.721 407.493 100.985 407.543 100.904C407.593 100.823 407.493 100.339 407.724 100.026C407.955 99.7133 407.925 99.3194 407.995 98.9762C408.065 98.6331 408.175 97.856 408.366 97.5028C408.557 97.1496 409.291 95.8172 409.291 95.585C409.291 95.353 409.33 94.748 409.351 94.4957C409.371 94.2434 409.643 93.2343 409.914 92.9215C410.185 92.6086 410.736 90.4896 410.867 90.3079C410.998 90.1263 411.158 89.0969 411.479 88.5823C411.801 88.0676 411.942 87.3711 412.093 86.9674C412.243 86.5637 413.118 83.8997 413.309 83.4154C413.5 82.931 413.952 82.1535 414.062 81.7498C414.172 81.3461 414.223 81.0033 414.333 80.6098C414.444 80.2162 415.116 78.3289 415.106 77.8849C415.096 77.4409 414.955 77.3805 414.765 77.1585C414.574 76.9365 414.645 76.1093 414.645 76.0185C414.645 75.9277 414.032 76.0279 413.992 76.0279C413.952 76.0279 413.489 76.0185 413.368 76.2406C413.248 76.4626 413.388 76.6741 413.539 76.997C413.69 77.32 413.389 77.7333 413.339 77.9149C413.289 78.0967 412.987 77.9362 412.906 77.9362C412.826 77.9362 412.986 77.5114 413.046 77.1885C413.107 76.8656 412.725 76.8159 412.675 76.7755C412.625 76.7351 412.817 76.6844 412.887 76.5027C412.957 76.3211 413.228 75.9079 413.509 75.7162C413.79 75.5246 414.333 75.7056 414.443 75.7056C414.554 75.7056 414.302 75.5337 414.353 75.0392C414.403 74.5448 414.484 72.5566 414.454 72.4658C414.424 72.375 414.423 70.7411 414.543 70.2264C414.664 69.7118 414.845 67.6728 414.895 67.3095C414.945 66.9462 415.066 65.8152 415.156 65.2904C415.247 64.7657 415.407 63.3732 415.418 63.0705C415.428 62.7677 415.859 61.2246 415.799 60.9925C415.739 60.7604 415.99 59.5798 416 59.489C416.01 59.3981 416.502 57.602 416.522 57.1983C416.542 56.7947 417.196 54.8469 417.346 54.4634C417.497 54.0799 417.527 53.605 417.638 53.06C417.748 52.5151 417.989 50.8978 418.011 50.7052C418.032 50.5125 418.409 49.399 418.516 49.0779C418.622 48.7568 419.424 47.0442 419.516 46.8444C419.608 46.6447 419.936 46.4094 420.043 46.2382C420.149 46.0669 420.184 45.5736 420.319 45.3167C420.453 45.0598 420.248 44.9674 420.248 44.9674C420.248 44.9674 420.084 45.2675 419.964 45.4316C419.843 45.5957 419.8 45.9447 419.765 46.0803C419.729 46.2159 419.289 45.9813 419.232 45.9171C419.176 45.8529 419.538 44.9245 419.666 44.4607C419.794 43.9968 419.957 43.498 419.957 43.498C419.957 43.498 419.808 42.9913 419.666 42.8057C419.524 42.6202 419.445 42.2417 419.466 42.0062C419.488 41.7707 419.453 41.3567 419.567 41.007C419.68 40.6574 420.056 39.986 420.156 39.6649C420.255 39.3438 420.788 38.3453 420.752 38.0812C420.717 37.8172 421.583 35.6626 421.697 35.3558C421.811 35.049 422.009 34.7063 422.045 34.3495C422.08 33.9927 422.407 33.4215 422.379 33.1718C422.351 32.922 422.799 32.1726 422.898 31.9157C422.997 31.6588 423.039 31.2882 422.975 31.3024C422.911 31.3166 423.565 29.7962 423.728 29.5037C423.892 29.2111 424.19 28.9192 424.29 28.7908C424.389 28.6623 423.863 28.7191 423.778 28.6977C423.693 28.6763 423.572 28.6266 423.374 28.6052C423.175 28.5838 423.395 28.4486 423.395 28.3701C423.395 28.2916 423.636 28.1556 423.65 27.9701C423.664 27.7845 423.629 27.3348 423.636 27.0993C423.644 26.8638 423.97 26.8996 424.176 26.8996C424.382 26.8996 424.425 26.6926 424.467 26.6498C424.51 26.607 424.674 25.6727 424.73 25.3801C424.787 25.0876 425 24.8092 425 24.8092L424.652 24.7662C424.652 24.7662 424.581 24.0883 424.624 23.8171C424.666 23.546 424.645 22.8608 424.659 22.8108C424.673 22.7609 424.34 22.689 424.184 22.4821C424.027 22.2751 424.091 21.4051 424.127 21.2054C424.162 21.0055 424.098 20.214 424.07 19.6788C424.042 19.1437 423.807 17.9586 423.758 17.8159C423.708 17.6732 423.423 17.1597 423.395 16.9599C423.367 16.7601 423.367 16.2323 423.246 15.9041C423.125 15.5758 422.862 13.8197 422.805 13.5628C422.748 13.3059 422.785 12.4992 422.785 12.064C422.785 11.6287 422.571 9.70993 422.55 9.61717C422.528 9.52442 422.138 8.11078 422.052 7.84675C421.967 7.58274 421.698 7.3766 421.698 7.3766C421.698 7.3766 421.648 7.49037 421.747 7.93277C421.847 8.3752 422.231 9.11036 422.266 9.25307C422.301 9.39578 422.323 9.54583 422.28 9.74561C422.238 9.94542 422.443 10.6303 422.507 10.7802C422.571 10.93 422.287 11.2087 422.258 11.2444C422.23 11.2801 422.423 12.8986 422.409 13.1769C422.394 13.4552 422.65 14.4406 422.777 14.6333C422.905 14.8259 422.97 15.454 422.906 15.3898C422.842 15.3255 422.351 15.0327 422.124 14.9756C421.896 14.9185 422.16 14.7685 422.344 14.6044C422.529 14.4403 422.501 14.0627 422.337 13.8986C422.174 13.7345 422.429 13.6845 422.315 13.4561C422.202 13.2278 421.853 12.5921 421.882 12.378C421.91 12.1639 421.591 11.8502 421.513 11.6504C421.435 11.4506 421.413 11.1088 421.356 11.0588C421.299 11.009 420.781 11.0153 420.738 11.0153C420.695 11.0153 420.312 11.1517 420.127 11.3087C419.942 11.4656 419.979 11.5508 419.922 11.6792C419.865 11.8077 419.999 12.0933 420.134 12.236C420.269 12.3787 420.354 12.6711 420.368 12.8281C420.383 12.9851 420.198 12.792 420.007 12.7491C419.815 12.7063 420.035 12.907 420.107 13.1068C420.178 13.3066 419.914 13.2633 419.822 13.2706C419.729 13.2777 419.594 13.1853 419.573 12.9783C419.552 12.7714 419.332 12.4712 419.353 12.1358C419.375 11.8005 419.666 11.772 419.786 11.5508C419.907 11.3296 419.908 11.1865 419.609 11.1437C419.311 11.1009 419.006 11.4649 419.006 11.5149C419.006 11.5648 418.402 11.244 418.174 10.8444C417.947 10.4448 417.741 10.2665 417.556 10.1951C417.372 10.1238 417.105 10.2666 416.96 10.1881C416.814 10.1094 416.703 10.2379 416.579 10.2128C416.455 10.1878 416.172 9.75914 416.044 9.57004C415.916 9.38097 416.047 9.22787 416.079 9.08516C416.111 8.94245 415.951 8.78907 415.869 8.69632C415.788 8.60356 416.114 8.48963 416.097 8.35048C416.079 8.21136 416.037 7.94162 416.012 7.8114C415.987 7.68118 415.727 7.40322 415.542 7.32829C415.358 7.25336 415.255 7.27565 415.02 7.16862C414.786 7.06157 414.765 7.26858 414.73 7.28999C414.694 7.31138 414.481 6.93363 414.36 6.79804C414.239 6.6626 414.019 6.70529 413.927 6.66961C413.835 6.63392 413.855 6.51323 413.884 6.41332C413.912 6.31281 413.402 6.2984 413.309 6.31257C413.217 6.32684 412.847 6.07039 412.748 5.82063C412.649 5.57089 412.414 5.34237 412.229 5.13543C412.044 4.9285 411.753 4.92215 411.391 4.98638C411.029 5.0506 410.78 5.05683 410.127 4.82848C409.473 4.60013 409.317 4.65055 409.26 4.71477C409.203 4.779 408.649 4.55768 408.4 4.47204C408.152 4.3864 407.868 4.5435 407.556 4.53626C407.243 4.52911 406.462 4.55106 406.206 4.67235C405.95 4.79371 405.56 4.67904 405.027 4.65763C404.494 4.63621 404.295 4.57144 404.26 4.57868C404.224 4.5858 403.932 4.38633 403.94 4.22224C403.947 4.05811 403.848 3.61521 403.784 3.37974C403.72 3.14427 403.471 3.20131 403.386 3.06572C403.301 2.931 403.059 2.90214 402.967 2.9308C402.875 2.95933 402.534 3.38753 402.307 3.30904C402.079 3.23052 402.121 3.0233 402.029 2.83064C401.937 2.63798 401.603 3.03761 401.546 3.03037C401.49 3.02325 400.992 2.8452 400.765 2.85244C400.538 2.85956 400.418 2.64506 400.389 2.64506C400.361 2.64506 400.183 3.37343 400.14 3.48048C400.098 3.58751 399.899 3.67983 399.792 3.65841C399.686 3.63702 399.942 3.30828 400.048 3.20122C400.155 3.0942 400.019 2.10303 400.019 2.10303C400.019 2.10303 399.672 2.23832 399.736 2.38818C399.8 2.53804 399.877 2.72362 399.842 2.83064C399.806 2.93767 399.338 2.74535 399.103 2.4742C398.875 2.21045 398.69 1.47956 398.647 1.09144L397.884 1.08673C397.028 0.0810262 396.562 1.67975 396.321 0.393875C396.201 0.0823611 395.98 -0.0161062 395.712 0.00208358L395.711 0.00221016ZM317.884 437.071C317.851 437.071 317.817 437.078 317.775 437.09C317.607 437.136 316.967 437.242 316.906 437.372C316.845 437.503 316.746 437.578 316.51 437.662C316.274 437.747 315.68 437.808 315.658 437.984C315.635 438.16 315.437 438.343 315.255 438.373C315.072 438.404 314.417 438.925 314.311 439.185C314.204 439.445 313.906 439.728 313.899 439.934C313.891 440.141 313.58 440.538 313.428 440.607C313.275 440.676 312.468 440.929 312.148 440.86C311.829 440.791 310.617 440.715 310.374 440.73C310.13 440.745 308.6 440.829 308.6 440.829C308.385 440.959 308.492 441.262 308.018 441.586C307.545 441.911 306.92 441.933 306.877 442.149C306.834 442.366 306.704 442.711 306.844 442.722C306.984 442.733 307.319 442.528 307.749 442.766C308.18 443.004 308.439 443.155 308.428 443.479C308.417 443.804 308.373 443.978 308.222 444.129C308.072 444.28 307.824 444.517 307.932 444.69C308.039 444.864 308.191 445.08 308.266 444.983C308.341 444.885 308.514 444.269 308.826 444.247C309.138 444.225 310.495 444.366 310.829 444.334C311.162 444.302 311.981 444.334 312.401 444.409C312.821 444.485 314.963 444.972 315.372 445.134C315.781 445.296 319.054 446.8 319.388 447.028C319.722 447.255 323.728 449.587 324.01 449.832C324.292 450.077 325.882 451.117 326.286 451.324C326.69 451.53 328.836 452.854 329.087 453.091C329.339 453.328 330.352 454.139 330.588 454.399C330.824 454.659 331.014 454.765 331.166 454.734C331.318 454.704 331.425 454.674 331.204 454.49C330.984 454.306 330.146 453.388 329.971 453.159C329.795 452.93 328.958 452.279 328.768 452.08C328.578 451.881 327.847 451.094 327.573 450.864C327.299 450.635 326.651 450.061 326.408 449.832C326.164 449.603 325.387 449.09 325.121 448.952C324.854 448.815 324.292 448.386 324.048 448.111C323.805 447.835 323.24 447.377 323.012 447.254C322.784 447.132 321.603 445.962 321.352 445.77C321.101 445.579 320.325 444.991 320.119 444.761C319.914 444.532 318.848 443.246 318.68 443.001C318.513 442.757 318.178 441.763 318.262 441.556C318.346 441.35 318.749 441.503 318.879 441.197C319.008 440.891 318.985 440.952 319.167 440.799C319.35 440.646 319.472 440.377 319.488 440.14C319.503 439.903 320.065 439.468 320.157 439.284C320.248 439.101 320.507 439.009 320.332 438.719C320.157 438.428 319.708 438.007 319.472 437.831C319.236 437.656 318.604 437.272 318.3 437.18C318.071 437.112 317.984 437.068 317.884 437.071V437.071ZM292.718 449.505C292.68 449.502 292.401 449.69 292.396 449.777C292.39 449.863 292.196 450.023 292.107 450.101C292.018 450.18 292.041 450.313 292.041 450.405C292.041 450.497 291.878 450.693 291.94 450.727C292.004 450.761 292.337 450.535 292.424 450.428C292.424 450.428 292.697 450.331 292.748 450.331C292.799 450.331 292.904 450.34 292.982 450.437C293.06 450.535 293.264 450.581 293.412 450.562C293.56 450.543 293.752 450.659 293.865 450.718C293.978 450.778 294.143 450.878 294.245 450.886C294.347 450.894 294.433 451.096 294.565 451.167C294.697 451.237 294.85 451.157 294.909 451.062C294.968 450.968 295.095 450.723 295.187 450.642C295.278 450.561 295.298 450.305 295.298 450.305C295.298 450.305 295.208 450.264 295.112 450.318C295.015 450.372 295.031 450.521 294.974 450.637C294.918 450.753 294.893 450.913 294.834 450.94C294.775 450.967 294.686 450.767 294.662 450.686C294.638 450.605 294.46 450.608 294.328 450.534C294.197 450.462 294.312 450.294 294.197 450.291C294.081 450.288 293.652 450.338 293.501 450.316C293.35 450.294 293.006 449.945 292.904 449.82C292.802 449.696 292.961 449.55 292.964 449.539C292.967 449.529 292.756 449.507 292.718 449.504V449.505ZM278.597 451.9C278.382 451.922 278.242 452.09 277.973 452.009C277.704 451.928 277.176 451.917 277.165 451.944C277.154 451.971 276.94 452.058 276.805 452.155C276.671 452.252 276.471 452.316 276.342 452.268C276.213 452.219 276.068 452.036 276.068 452.036C275.955 452.117 275.508 452.306 275.475 452.436C275.443 452.565 275.416 452.588 275.475 452.647C275.535 452.707 275.744 452.701 275.804 452.592C275.863 452.484 276.014 452.404 276.191 452.399C276.369 452.393 276.939 452.285 277.182 452.274C277.424 452.263 278.086 452.139 278.269 452.204C278.452 452.268 278.468 452.355 278.743 452.284C279.017 452.214 279.045 452.101 279.023 452.09C279.002 452.079 278.813 451.878 278.597 451.9ZM242.45 459.324C242.431 459.309 242.389 459.5 242.26 459.596C242.13 459.691 241.845 460.169 241.708 460.234C241.571 460.299 241.499 460.422 241.545 460.51C241.545 460.51 242.146 460.533 242.302 460.564C242.458 460.594 242.691 460.123 242.77 460C242.85 459.878 243.139 459.944 243.181 459.887C243.223 459.829 243.033 459.706 242.953 459.63C242.873 459.554 242.74 459.615 242.622 459.562C242.504 459.508 242.469 459.34 242.45 459.324Z" fill="url(#paint0_linear_973_16840)"/>
<defs>
<linearGradient id="paint0_linear_973_16840" x1="212.5" y1="0" x2="212.5" y2="567" gradientUnits="userSpaceOnUse">
<stop stop-color="#618E45"/>
<stop offset="0.421875" stop-color="#8E7A45"/>
<stop offset="1" stop-color="#8E4545"/>
</linearGradient>
</defs>
</svg>
