<svg width="254" height="115" viewBox="0 0 254 115" fill="none" xmlns="http://www.w3.org/2000/svg">
<line x1="26.5" y1="94.5" x2="248.5" y2="94.5" stroke="#DEE2E6" stroke-linecap="round"/>
<line x1="26.5" y1="50.5" x2="248.5" y2="50.5" stroke="#DEE2E6" stroke-linecap="round"/>
<path d="M35.5371 104.225L32.7129 112H31.5586L34.8105 103.469H35.5547L35.5371 104.225ZM37.9043 112L35.0742 104.225L35.0566 103.469H35.8008L39.0645 112H37.9043ZM37.7578 108.842V109.768H32.9648V108.842H37.7578ZM40.207 103.469H43.0312C43.6719 103.469 44.2129 103.566 44.6543 103.762C45.0996 103.957 45.4375 104.246 45.668 104.629C45.9023 105.008 46.0195 105.475 46.0195 106.029C46.0195 106.42 45.9395 106.777 45.7793 107.102C45.623 107.422 45.3965 107.695 45.0996 107.922C44.8066 108.145 44.4551 108.311 44.0449 108.42L43.7285 108.543H41.0742L41.0625 107.623H43.0664C43.4727 107.623 43.8105 107.553 44.0801 107.412C44.3496 107.268 44.5527 107.074 44.6895 106.832C44.8262 106.59 44.8945 106.322 44.8945 106.029C44.8945 105.701 44.8301 105.414 44.7012 105.168C44.5723 104.922 44.3691 104.732 44.0918 104.6C43.8184 104.463 43.4648 104.395 43.0312 104.395H41.3379V112H40.207V103.469ZM45.1934 112L43.1191 108.133L44.2969 108.127L46.4004 111.93V112H45.1934Z" fill="#ADB5BD"/>
<path d="M60.4473 109.287H61.5723C61.5137 109.826 61.3594 110.309 61.1094 110.734C60.8594 111.16 60.5059 111.498 60.0488 111.748C59.5918 111.994 59.0215 112.117 58.3379 112.117C57.8379 112.117 57.3828 112.023 56.9727 111.836C56.5664 111.648 56.2168 111.383 55.9238 111.039C55.6309 110.691 55.4043 110.275 55.2441 109.791C55.0879 109.303 55.0098 108.76 55.0098 108.162V107.312C55.0098 106.715 55.0879 106.174 55.2441 105.689C55.4043 105.201 55.6328 104.783 55.9297 104.436C56.2305 104.088 56.5918 103.82 57.0137 103.633C57.4355 103.445 57.9102 103.352 58.4375 103.352C59.082 103.352 59.627 103.473 60.0723 103.715C60.5176 103.957 60.8633 104.293 61.1094 104.723C61.3594 105.148 61.5137 105.643 61.5723 106.205H60.4473C60.3926 105.807 60.291 105.465 60.1426 105.18C59.9941 104.891 59.7832 104.668 59.5098 104.512C59.2363 104.355 58.8789 104.277 58.4375 104.277C58.0586 104.277 57.7246 104.35 57.4355 104.494C57.1504 104.639 56.9102 104.844 56.7148 105.109C56.5234 105.375 56.3789 105.693 56.2812 106.064C56.1836 106.436 56.1348 106.848 56.1348 107.301V108.162C56.1348 108.58 56.1777 108.973 56.2637 109.34C56.3535 109.707 56.4883 110.029 56.668 110.307C56.8477 110.584 57.0762 110.803 57.3535 110.963C57.6309 111.119 57.959 111.197 58.3379 111.197C58.8184 111.197 59.2012 111.121 59.4863 110.969C59.7715 110.816 59.9863 110.598 60.1309 110.312C60.2793 110.027 60.3848 109.686 60.4473 109.287ZM66.2598 108.654H63.9805V107.734H66.2598C66.7012 107.734 67.0586 107.664 67.332 107.523C67.6055 107.383 67.8047 107.188 67.9297 106.938C68.0586 106.688 68.123 106.402 68.123 106.082C68.123 105.789 68.0586 105.514 67.9297 105.256C67.8047 104.998 67.6055 104.791 67.332 104.635C67.0586 104.475 66.7012 104.395 66.2598 104.395H64.2441V112H63.1133V103.469H66.2598C66.9043 103.469 67.4492 103.58 67.8945 103.803C68.3398 104.025 68.6777 104.334 68.9082 104.729C69.1387 105.119 69.2539 105.566 69.2539 106.07C69.2539 106.617 69.1387 107.084 68.9082 107.471C68.6777 107.857 68.3398 108.152 67.8945 108.355C67.4492 108.555 66.9043 108.654 66.2598 108.654Z" fill="#ADB5BD"/>
<path d="M83.4492 109.287H84.5742C84.5156 109.826 84.3613 110.309 84.1113 110.734C83.8613 111.16 83.5078 111.498 83.0508 111.748C82.5938 111.994 82.0234 112.117 81.3398 112.117C80.8398 112.117 80.3848 112.023 79.9746 111.836C79.5684 111.648 79.2188 111.383 78.9258 111.039C78.6328 110.691 78.4062 110.275 78.2461 109.791C78.0898 109.303 78.0117 108.76 78.0117 108.162V107.312C78.0117 106.715 78.0898 106.174 78.2461 105.689C78.4062 105.201 78.6348 104.783 78.9316 104.436C79.2324 104.088 79.5938 103.82 80.0156 103.633C80.4375 103.445 80.9121 103.352 81.4395 103.352C82.084 103.352 82.6289 103.473 83.0742 103.715C83.5195 103.957 83.8652 104.293 84.1113 104.723C84.3613 105.148 84.5156 105.643 84.5742 106.205H83.4492C83.3945 105.807 83.293 105.465 83.1445 105.18C82.9961 104.891 82.7852 104.668 82.5117 104.512C82.2383 104.355 81.8809 104.277 81.4395 104.277C81.0605 104.277 80.7266 104.35 80.4375 104.494C80.1523 104.639 79.9121 104.844 79.7168 105.109C79.5254 105.375 79.3809 105.693 79.2832 106.064C79.1855 106.436 79.1367 106.848 79.1367 107.301V108.162C79.1367 108.58 79.1797 108.973 79.2656 109.34C79.3555 109.707 79.4902 110.029 79.6699 110.307C79.8496 110.584 80.0781 110.803 80.3555 110.963C80.6328 111.119 80.9609 111.197 81.3398 111.197C81.8203 111.197 82.2031 111.121 82.4883 110.969C82.7734 110.816 82.9883 110.598 83.1328 110.312C83.2812 110.027 83.3867 109.686 83.4492 109.287ZM91.6875 107.137V108.057H87.0703V107.137H91.6875ZM87.2461 103.469V112H86.1152V103.469H87.2461ZM92.6719 103.469V112H91.5469V103.469H92.6719Z" fill="#ADB5BD"/>
<path d="M107.494 109.287H108.619C108.561 109.826 108.406 110.309 108.156 110.734C107.906 111.16 107.553 111.498 107.096 111.748C106.639 111.994 106.068 112.117 105.385 112.117C104.885 112.117 104.43 112.023 104.02 111.836C103.613 111.648 103.264 111.383 102.971 111.039C102.678 110.691 102.451 110.275 102.291 109.791C102.135 109.303 102.057 108.76 102.057 108.162V107.312C102.057 106.715 102.135 106.174 102.291 105.689C102.451 105.201 102.68 104.783 102.977 104.436C103.277 104.088 103.639 103.82 104.061 103.633C104.482 103.445 104.957 103.352 105.484 103.352C106.129 103.352 106.674 103.473 107.119 103.715C107.564 103.957 107.91 104.293 108.156 104.723C108.406 105.148 108.561 105.643 108.619 106.205H107.494C107.439 105.807 107.338 105.465 107.189 105.18C107.041 104.891 106.83 104.668 106.557 104.512C106.283 104.355 105.926 104.277 105.484 104.277C105.105 104.277 104.771 104.35 104.482 104.494C104.197 104.639 103.957 104.844 103.762 105.109C103.57 105.375 103.426 105.693 103.328 106.064C103.23 106.436 103.182 106.848 103.182 107.301V108.162C103.182 108.58 103.225 108.973 103.311 109.34C103.4 109.707 103.535 110.029 103.715 110.307C103.895 110.584 104.123 110.803 104.4 110.963C104.678 111.119 105.006 111.197 105.385 111.197C105.865 111.197 106.248 111.121 106.533 110.969C106.818 110.816 107.033 110.598 107.178 110.312C107.326 110.027 107.432 109.686 107.494 109.287ZM113.201 108.01H111.039L111.027 107.102H112.99C113.314 107.102 113.598 107.047 113.84 106.938C114.082 106.828 114.27 106.672 114.402 106.469C114.539 106.262 114.607 106.016 114.607 105.73C114.607 105.418 114.547 105.164 114.426 104.969C114.309 104.77 114.127 104.625 113.881 104.535C113.639 104.441 113.33 104.395 112.955 104.395H111.291V112H110.16V103.469H112.955C113.393 103.469 113.783 103.514 114.127 103.604C114.471 103.689 114.762 103.826 115 104.014C115.242 104.197 115.426 104.432 115.551 104.717C115.676 105.002 115.738 105.344 115.738 105.742C115.738 106.094 115.648 106.412 115.469 106.697C115.289 106.979 115.039 107.209 114.719 107.389C114.402 107.568 114.031 107.684 113.605 107.734L113.201 108.01ZM113.148 112H110.594L111.232 111.08H113.148C113.508 111.08 113.812 111.018 114.062 110.893C114.316 110.768 114.51 110.592 114.643 110.365C114.775 110.135 114.842 109.863 114.842 109.551C114.842 109.234 114.785 108.961 114.672 108.73C114.559 108.5 114.381 108.322 114.139 108.197C113.896 108.072 113.584 108.01 113.201 108.01H111.59L111.602 107.102H113.805L114.045 107.43C114.455 107.465 114.803 107.582 115.088 107.781C115.373 107.977 115.59 108.227 115.738 108.531C115.891 108.836 115.967 109.172 115.967 109.539C115.967 110.07 115.85 110.52 115.615 110.887C115.385 111.25 115.059 111.527 114.637 111.719C114.215 111.906 113.719 112 113.148 112Z" fill="#ADB5BD"/>
<path d="M127.578 112H125.797L125.809 111.08H127.578C128.188 111.08 128.695 110.953 129.102 110.699C129.508 110.441 129.812 110.082 130.016 109.621C130.223 109.156 130.326 108.613 130.326 107.992V107.471C130.326 106.982 130.268 106.549 130.15 106.17C130.033 105.787 129.861 105.465 129.635 105.203C129.408 104.938 129.131 104.736 128.803 104.6C128.479 104.463 128.105 104.395 127.684 104.395H125.762V103.469H127.684C128.242 103.469 128.752 103.562 129.213 103.75C129.674 103.934 130.07 104.201 130.402 104.553C130.738 104.9 130.996 105.322 131.176 105.818C131.355 106.311 131.445 106.865 131.445 107.482V107.992C131.445 108.609 131.355 109.166 131.176 109.662C130.996 110.154 130.736 110.574 130.396 110.922C130.061 111.27 129.654 111.537 129.178 111.725C128.705 111.908 128.172 112 127.578 112ZM126.4 103.469V112H125.27V103.469H126.4ZM138.717 107.137V108.057H134.1V107.137H138.717ZM134.275 103.469V112H133.145V103.469H134.275ZM139.701 103.469V112H138.576V103.469H139.701Z" fill="#ADB5BD"/>
<path d="M154.562 111.08V112H150.045V111.08H154.562ZM150.273 103.469V112H149.143V103.469H150.273ZM153.965 107.137V108.057H150.045V107.137H153.965ZM154.504 103.469V104.395H150.045V103.469H154.504ZM158.271 112H156.49L156.502 111.08H158.271C158.881 111.08 159.389 110.953 159.795 110.699C160.201 110.441 160.506 110.082 160.709 109.621C160.916 109.156 161.02 108.613 161.02 107.992V107.471C161.02 106.982 160.961 106.549 160.844 106.17C160.727 105.787 160.555 105.465 160.328 105.203C160.102 104.938 159.824 104.736 159.496 104.6C159.172 104.463 158.799 104.395 158.377 104.395H156.455V103.469H158.377C158.936 103.469 159.445 103.562 159.906 103.75C160.367 103.934 160.764 104.201 161.096 104.553C161.432 104.9 161.689 105.322 161.869 105.818C162.049 106.311 162.139 106.865 162.139 107.482V107.992C162.139 108.609 162.049 109.166 161.869 109.662C161.689 110.154 161.43 110.574 161.09 110.922C160.754 111.27 160.348 111.537 159.871 111.725C159.398 111.908 158.865 112 158.271 112ZM157.094 103.469V112H155.963V103.469H157.094Z" fill="#ADB5BD"/>
<path d="M171.412 103.469H172.508L175.303 110.424L178.092 103.469H179.193L175.725 112H174.869L171.412 103.469ZM171.055 103.469H172.021L172.18 108.672V112H171.055V103.469ZM178.578 103.469H179.545V112H178.42V108.672L178.578 103.469ZM181.531 103.469H184.355C184.996 103.469 185.537 103.566 185.979 103.762C186.424 103.957 186.762 104.246 186.992 104.629C187.227 105.008 187.344 105.475 187.344 106.029C187.344 106.42 187.264 106.777 187.104 107.102C186.947 107.422 186.721 107.695 186.424 107.922C186.131 108.145 185.779 108.311 185.369 108.42L185.053 108.543H182.398L182.387 107.623H184.391C184.797 107.623 185.135 107.553 185.404 107.412C185.674 107.268 185.877 107.074 186.014 106.832C186.15 106.59 186.219 106.322 186.219 106.029C186.219 105.701 186.154 105.414 186.025 105.168C185.896 104.922 185.693 104.732 185.416 104.6C185.143 104.463 184.789 104.395 184.355 104.395H182.662V112H181.531V103.469ZM186.518 112L184.443 108.133L185.621 108.127L187.725 111.93V112H186.518Z" fill="#ADB5BD"/>
<path d="M199.455 103.469V112H198.342V103.469H199.455ZM202.197 103.469V104.395H195.605V103.469H202.197ZM205.637 109.51V103.469H206.762V109.51C206.762 110.072 206.646 110.547 206.416 110.934C206.186 111.32 205.867 111.615 205.461 111.818C205.059 112.018 204.596 112.117 204.072 112.117C203.549 112.117 203.084 112.027 202.678 111.848C202.271 111.668 201.953 111.395 201.723 111.027C201.492 110.66 201.377 110.197 201.377 109.639H202.508C202.508 109.998 202.574 110.293 202.707 110.523C202.84 110.754 203.023 110.924 203.258 111.033C203.496 111.143 203.768 111.197 204.072 111.197C204.369 111.197 204.635 111.135 204.869 111.01C205.107 110.881 205.295 110.691 205.432 110.441C205.568 110.188 205.637 109.877 205.637 109.51Z" fill="#ADB5BD"/>
<path d="M219.279 103.469V112H218.166V103.469H219.279ZM222.021 103.469V104.395H215.43V103.469H222.021ZM229.85 103.469V112H228.713L224.418 105.42V112H223.287V103.469H224.418L228.73 110.066V103.469H229.85Z" fill="#ADB5BD"/>
<path d="M242.227 110.705L244.74 103.469H245.965L242.807 112H241.934L242.227 110.705ZM239.877 103.469L242.367 110.705L242.678 112H241.805L238.652 103.469H239.877ZM247.113 103.469H249.938C250.578 103.469 251.119 103.566 251.561 103.762C252.006 103.957 252.344 104.246 252.574 104.629C252.809 105.008 252.926 105.475 252.926 106.029C252.926 106.42 252.846 106.777 252.686 107.102C252.529 107.422 252.303 107.695 252.006 107.922C251.713 108.145 251.361 108.311 250.951 108.42L250.635 108.543H247.98L247.969 107.623H249.973C250.379 107.623 250.717 107.553 250.986 107.412C251.256 107.268 251.459 107.074 251.596 106.832C251.732 106.59 251.801 106.322 251.801 106.029C251.801 105.701 251.736 105.414 251.607 105.168C251.479 104.922 251.275 104.732 250.998 104.6C250.725 104.463 250.371 104.395 249.938 104.395H248.244V112H247.113V103.469ZM252.1 112L250.025 108.133L251.203 108.127L253.307 111.93V112H252.1Z" fill="#ADB5BD"/>
<line x1="25.5" y1="94.5" x2="25.5" y2="1.5" stroke="#DEE2E6" stroke-linecap="round"/>
<path d="M9.79883 10.1094V11H4.21484V10.2207L7.00977 7.10938C7.35352 6.72656 7.61914 6.40234 7.80664 6.13672C7.99805 5.86719 8.13086 5.62695 8.20508 5.41602C8.2832 5.20117 8.32227 4.98242 8.32227 4.75977C8.32227 4.47852 8.26367 4.22461 8.14648 3.99805C8.0332 3.76758 7.86523 3.58398 7.64258 3.44727C7.41992 3.31055 7.15039 3.24219 6.83398 3.24219C6.45508 3.24219 6.13867 3.31641 5.88477 3.46484C5.63477 3.60938 5.44727 3.8125 5.32227 4.07422C5.19727 4.33594 5.13477 4.63672 5.13477 4.97656H4.05078C4.05078 4.49609 4.15625 4.05664 4.36719 3.6582C4.57812 3.25977 4.89062 2.94336 5.30469 2.70898C5.71875 2.4707 6.22852 2.35156 6.83398 2.35156C7.37305 2.35156 7.83398 2.44727 8.2168 2.63867C8.59961 2.82617 8.89258 3.0918 9.0957 3.43555C9.30273 3.77539 9.40625 4.17383 9.40625 4.63086C9.40625 4.88086 9.36328 5.13477 9.27734 5.39258C9.19531 5.64648 9.08008 5.90039 8.93164 6.1543C8.78711 6.4082 8.61719 6.6582 8.42188 6.9043C8.23047 7.15039 8.02539 7.39258 7.80664 7.63086L5.52148 10.1094H9.79883ZM16.3145 6.05469V7.35547C16.3145 8.05469 16.252 8.64453 16.127 9.125C16.002 9.60547 15.8223 9.99219 15.5879 10.2852C15.3535 10.5781 15.0703 10.791 14.7383 10.9238C14.4102 11.0527 14.0391 11.1172 13.625 11.1172C13.2969 11.1172 12.9941 11.0762 12.7168 10.9941C12.4395 10.9121 12.1895 10.7812 11.9668 10.6016C11.748 10.418 11.5605 10.1797 11.4043 9.88672C11.248 9.59375 11.1289 9.23828 11.0469 8.82031C10.9648 8.40234 10.9238 7.91406 10.9238 7.35547V6.05469C10.9238 5.35547 10.9863 4.76953 11.1113 4.29688C11.2402 3.82422 11.4219 3.44531 11.6562 3.16016C11.8906 2.87109 12.1719 2.66406 12.5 2.53906C12.832 2.41406 13.2031 2.35156 13.6133 2.35156C13.9453 2.35156 14.25 2.39258 14.5273 2.47461C14.8086 2.55273 15.0586 2.67969 15.2773 2.85547C15.4961 3.02734 15.6816 3.25781 15.834 3.54688C15.9902 3.83203 16.1094 4.18164 16.1914 4.5957C16.2734 5.00977 16.3145 5.49609 16.3145 6.05469ZM15.2246 7.53125V5.87305C15.2246 5.49023 15.2012 5.1543 15.1543 4.86523C15.1113 4.57227 15.0469 4.32227 14.9609 4.11523C14.875 3.9082 14.7656 3.74023 14.6328 3.61133C14.5039 3.48242 14.3535 3.38867 14.1816 3.33008C14.0137 3.26758 13.8242 3.23633 13.6133 3.23633C13.3555 3.23633 13.127 3.28516 12.9277 3.38281C12.7285 3.47656 12.5605 3.62695 12.4238 3.83398C12.291 4.04102 12.1895 4.3125 12.1191 4.64844C12.0488 4.98438 12.0137 5.39258 12.0137 5.87305V7.53125C12.0137 7.91406 12.0352 8.25195 12.0781 8.54492C12.125 8.83789 12.1934 9.0918 12.2832 9.30664C12.373 9.51758 12.4824 9.69141 12.6113 9.82812C12.7402 9.96484 12.8887 10.0664 13.0566 10.1328C13.2285 10.1953 13.418 10.2266 13.625 10.2266C13.8906 10.2266 14.123 10.1758 14.3223 10.0742C14.5215 9.97266 14.6875 9.81445 14.8203 9.59961C14.957 9.38086 15.0586 9.10156 15.125 8.76172C15.1914 8.41797 15.2246 8.00781 15.2246 7.53125Z" fill="#ADB5BD"/>
<path d="M7.77148 24.4219V33H6.6875V25.7754L4.50195 26.5723V25.5938L7.60156 24.4219H7.77148ZM16.3145 28.0547V29.3555C16.3145 30.0547 16.252 30.6445 16.127 31.125C16.002 31.6055 15.8223 31.9922 15.5879 32.2852C15.3535 32.5781 15.0703 32.791 14.7383 32.9238C14.4102 33.0527 14.0391 33.1172 13.625 33.1172C13.2969 33.1172 12.9941 33.0762 12.7168 32.9941C12.4395 32.9121 12.1895 32.7812 11.9668 32.6016C11.748 32.418 11.5605 32.1797 11.4043 31.8867C11.248 31.5938 11.1289 31.2383 11.0469 30.8203C10.9648 30.4023 10.9238 29.9141 10.9238 29.3555V28.0547C10.9238 27.3555 10.9863 26.7695 11.1113 26.2969C11.2402 25.8242 11.4219 25.4453 11.6562 25.1602C11.8906 24.8711 12.1719 24.6641 12.5 24.5391C12.832 24.4141 13.2031 24.3516 13.6133 24.3516C13.9453 24.3516 14.25 24.3926 14.5273 24.4746C14.8086 24.5527 15.0586 24.6797 15.2773 24.8555C15.4961 25.0273 15.6816 25.2578 15.834 25.5469C15.9902 25.832 16.1094 26.1816 16.1914 26.5957C16.2734 27.0098 16.3145 27.4961 16.3145 28.0547ZM15.2246 29.5312V27.873C15.2246 27.4902 15.2012 27.1543 15.1543 26.8652C15.1113 26.5723 15.0469 26.3223 14.9609 26.1152C14.875 25.9082 14.7656 25.7402 14.6328 25.6113C14.5039 25.4824 14.3535 25.3887 14.1816 25.3301C14.0137 25.2676 13.8242 25.2363 13.6133 25.2363C13.3555 25.2363 13.127 25.2852 12.9277 25.3828C12.7285 25.4766 12.5605 25.627 12.4238 25.834C12.291 26.041 12.1895 26.3125 12.1191 26.6484C12.0488 26.9844 12.0137 27.3926 12.0137 27.873V29.5312C12.0137 29.9141 12.0352 30.252 12.0781 30.5449C12.125 30.8379 12.1934 31.0918 12.2832 31.3066C12.373 31.5176 12.4824 31.6914 12.6113 31.8281C12.7402 31.9648 12.8887 32.0664 13.0566 32.1328C13.2285 32.1953 13.418 32.2266 13.625 32.2266C13.8906 32.2266 14.123 32.1758 14.3223 32.0742C14.5215 31.9727 14.6875 31.8145 14.8203 31.5996C14.957 31.3809 15.0586 31.1016 15.125 30.7617C15.1914 30.418 15.2246 30.0078 15.2246 29.5312Z" fill="#ADB5BD"/>
<path d="M16.3145 50.0547V51.3555C16.3145 52.0547 16.252 52.6445 16.127 53.125C16.002 53.6055 15.8223 53.9922 15.5879 54.2852C15.3535 54.5781 15.0703 54.791 14.7383 54.9238C14.4102 55.0527 14.0391 55.1172 13.625 55.1172C13.2969 55.1172 12.9941 55.0762 12.7168 54.9941C12.4395 54.9121 12.1895 54.7812 11.9668 54.6016C11.748 54.418 11.5605 54.1797 11.4043 53.8867C11.248 53.5938 11.1289 53.2383 11.0469 52.8203C10.9648 52.4023 10.9238 51.9141 10.9238 51.3555V50.0547C10.9238 49.3555 10.9863 48.7695 11.1113 48.2969C11.2402 47.8242 11.4219 47.4453 11.6562 47.1602C11.8906 46.8711 12.1719 46.6641 12.5 46.5391C12.832 46.4141 13.2031 46.3516 13.6133 46.3516C13.9453 46.3516 14.25 46.3926 14.5273 46.4746C14.8086 46.5527 15.0586 46.6797 15.2773 46.8555C15.4961 47.0273 15.6816 47.2578 15.834 47.5469C15.9902 47.832 16.1094 48.1816 16.1914 48.5957C16.2734 49.0098 16.3145 49.4961 16.3145 50.0547ZM15.2246 51.5312V49.873C15.2246 49.4902 15.2012 49.1543 15.1543 48.8652C15.1113 48.5723 15.0469 48.3223 14.9609 48.1152C14.875 47.9082 14.7656 47.7402 14.6328 47.6113C14.5039 47.4824 14.3535 47.3887 14.1816 47.3301C14.0137 47.2676 13.8242 47.2363 13.6133 47.2363C13.3555 47.2363 13.127 47.2852 12.9277 47.3828C12.7285 47.4766 12.5605 47.627 12.4238 47.834C12.291 48.041 12.1895 48.3125 12.1191 48.6484C12.0488 48.9844 12.0137 49.3926 12.0137 49.873V51.5312C12.0137 51.9141 12.0352 52.252 12.0781 52.5449C12.125 52.8379 12.1934 53.0918 12.2832 53.3066C12.373 53.5176 12.4824 53.6914 12.6113 53.8281C12.7402 53.9648 12.8887 54.0664 13.0566 54.1328C13.2285 54.1953 13.418 54.2266 13.625 54.2266C13.8906 54.2266 14.123 54.1758 14.3223 54.0742C14.5215 53.9727 14.6875 53.8145 14.8203 53.5996C14.957 53.3809 15.0586 53.1016 15.125 52.7617C15.1914 52.418 15.2246 52.0078 15.2246 51.5312Z" fill="#ADB5BD"/>
<path d="M3.26562 72.9277V73.8184H0.40625V72.9277H3.26562ZM7.77148 68.4219V77H6.6875V69.7754L4.50195 70.5723V69.5938L7.60156 68.4219H7.77148ZM16.3145 72.0547V73.3555C16.3145 74.0547 16.252 74.6445 16.127 75.125C16.002 75.6055 15.8223 75.9922 15.5879 76.2852C15.3535 76.5781 15.0703 76.791 14.7383 76.9238C14.4102 77.0527 14.0391 77.1172 13.625 77.1172C13.2969 77.1172 12.9941 77.0762 12.7168 76.9941C12.4395 76.9121 12.1895 76.7812 11.9668 76.6016C11.748 76.418 11.5605 76.1797 11.4043 75.8867C11.248 75.5938 11.1289 75.2383 11.0469 74.8203C10.9648 74.4023 10.9238 73.9141 10.9238 73.3555V72.0547C10.9238 71.3555 10.9863 70.7695 11.1113 70.2969C11.2402 69.8242 11.4219 69.4453 11.6562 69.1602C11.8906 68.8711 12.1719 68.6641 12.5 68.5391C12.832 68.4141 13.2031 68.3516 13.6133 68.3516C13.9453 68.3516 14.25 68.3926 14.5273 68.4746C14.8086 68.5527 15.0586 68.6797 15.2773 68.8555C15.4961 69.0273 15.6816 69.2578 15.834 69.5469C15.9902 69.832 16.1094 70.1816 16.1914 70.5957C16.2734 71.0098 16.3145 71.4961 16.3145 72.0547ZM15.2246 73.5312V71.873C15.2246 71.4902 15.2012 71.1543 15.1543 70.8652C15.1113 70.5723 15.0469 70.3223 14.9609 70.1152C14.875 69.9082 14.7656 69.7402 14.6328 69.6113C14.5039 69.4824 14.3535 69.3887 14.1816 69.3301C14.0137 69.2676 13.8242 69.2363 13.6133 69.2363C13.3555 69.2363 13.127 69.2852 12.9277 69.3828C12.7285 69.4766 12.5605 69.627 12.4238 69.834C12.291 70.041 12.1895 70.3125 12.1191 70.6484C12.0488 70.9844 12.0137 71.3926 12.0137 71.873V73.5312C12.0137 73.9141 12.0352 74.252 12.0781 74.5449C12.125 74.8379 12.1934 75.0918 12.2832 75.3066C12.373 75.5176 12.4824 75.6914 12.6113 75.8281C12.7402 75.9648 12.8887 76.0664 13.0566 76.1328C13.2285 76.1953 13.418 76.2266 13.625 76.2266C13.8906 76.2266 14.123 76.1758 14.3223 76.0742C14.5215 75.9727 14.6875 75.8145 14.8203 75.5996C14.957 75.3809 15.0586 75.1016 15.125 74.7617C15.1914 74.418 15.2246 74.0078 15.2246 73.5312Z" fill="#ADB5BD"/>
<path d="M3.26562 94.9277V95.8184H0.40625V94.9277H3.26562ZM9.79883 98.1094V99H4.21484V98.2207L7.00977 95.1094C7.35352 94.7266 7.61914 94.4023 7.80664 94.1367C7.99805 93.8672 8.13086 93.627 8.20508 93.416C8.2832 93.2012 8.32227 92.9824 8.32227 92.7598C8.32227 92.4785 8.26367 92.2246 8.14648 91.998C8.0332 91.7676 7.86523 91.584 7.64258 91.4473C7.41992 91.3105 7.15039 91.2422 6.83398 91.2422C6.45508 91.2422 6.13867 91.3164 5.88477 91.4648C5.63477 91.6094 5.44727 91.8125 5.32227 92.0742C5.19727 92.3359 5.13477 92.6367 5.13477 92.9766H4.05078C4.05078 92.4961 4.15625 92.0566 4.36719 91.6582C4.57812 91.2598 4.89062 90.9434 5.30469 90.709C5.71875 90.4707 6.22852 90.3516 6.83398 90.3516C7.37305 90.3516 7.83398 90.4473 8.2168 90.6387C8.59961 90.8262 8.89258 91.0918 9.0957 91.4355C9.30273 91.7754 9.40625 92.1738 9.40625 92.6309C9.40625 92.8809 9.36328 93.1348 9.27734 93.3926C9.19531 93.6465 9.08008 93.9004 8.93164 94.1543C8.78711 94.4082 8.61719 94.6582 8.42188 94.9043C8.23047 95.1504 8.02539 95.3926 7.80664 95.6309L5.52148 98.1094H9.79883ZM16.3145 94.0547V95.3555C16.3145 96.0547 16.252 96.6445 16.127 97.125C16.002 97.6055 15.8223 97.9922 15.5879 98.2852C15.3535 98.5781 15.0703 98.791 14.7383 98.9238C14.4102 99.0527 14.0391 99.1172 13.625 99.1172C13.2969 99.1172 12.9941 99.0762 12.7168 98.9941C12.4395 98.9121 12.1895 98.7812 11.9668 98.6016C11.748 98.418 11.5605 98.1797 11.4043 97.8867C11.248 97.5938 11.1289 97.2383 11.0469 96.8203C10.9648 96.4023 10.9238 95.9141 10.9238 95.3555V94.0547C10.9238 93.3555 10.9863 92.7695 11.1113 92.2969C11.2402 91.8242 11.4219 91.4453 11.6562 91.1602C11.8906 90.8711 12.1719 90.6641 12.5 90.5391C12.832 90.4141 13.2031 90.3516 13.6133 90.3516C13.9453 90.3516 14.25 90.3926 14.5273 90.4746C14.8086 90.5527 15.0586 90.6797 15.2773 90.8555C15.4961 91.0273 15.6816 91.2578 15.834 91.5469C15.9902 91.832 16.1094 92.1816 16.1914 92.5957C16.2734 93.0098 16.3145 93.4961 16.3145 94.0547ZM15.2246 95.5312V93.873C15.2246 93.4902 15.2012 93.1543 15.1543 92.8652C15.1113 92.5723 15.0469 92.3223 14.9609 92.1152C14.875 91.9082 14.7656 91.7402 14.6328 91.6113C14.5039 91.4824 14.3535 91.3887 14.1816 91.3301C14.0137 91.2676 13.8242 91.2363 13.6133 91.2363C13.3555 91.2363 13.127 91.2852 12.9277 91.3828C12.7285 91.4766 12.5605 91.627 12.4238 91.834C12.291 92.041 12.1895 92.3125 12.1191 92.6484C12.0488 92.9844 12.0137 93.3926 12.0137 93.873V95.5312C12.0137 95.9141 12.0352 96.252 12.0781 96.5449C12.125 96.8379 12.1934 97.0918 12.2832 97.3066C12.373 97.5176 12.4824 97.6914 12.6113 97.8281C12.7402 97.9648 12.8887 98.0664 13.0566 98.1328C13.2285 98.1953 13.418 98.2266 13.625 98.2266C13.8906 98.2266 14.123 98.1758 14.3223 98.0742C14.5215 97.9727 14.6875 97.8145 14.8203 97.5996C14.957 97.3809 15.0586 97.1016 15.125 96.7617C15.1914 96.418 15.2246 96.0078 15.2246 95.5312Z" fill="#ADB5BD"/>
<path d="M35 29.5C35 28.1193 36.1193 27 37.5 27C38.8807 27 40 28.1193 40 29.5V51H35V29.5Z" fill="#3D8BFD"/>
<path d="M83 16.5C83 15.1193 84.1193 14 85.5 14C86.8807 14 88 15.1193 88 16.5V51H83V16.5Z" fill="#3D8BFD"/>
<path d="M106 35.5C106 34.1193 107.119 33 108.5 33C109.881 33 111 34.1193 111 35.5V51H106V35.5Z" fill="#3D8BFD"/>
<path d="M129 29.5C129 28.1193 130.119 27 131.5 27C132.881 27 134 28.1193 134 29.5V51H129V29.5Z" fill="#3D8BFD"/>
<path d="M151 42.5C151 41.1193 152.119 40 153.5 40C154.881 40 156 41.1193 156 42.5V51H151V42.5Z" fill="#3D8BFD"/>
<path d="M198 29.5C198 28.1193 199.119 27 200.5 27C201.881 27 203 28.1193 203 29.5V51H198V29.5Z" fill="#3D8BFD"/>
<path d="M221 16.5C221 15.1193 222.119 14 223.5 14C224.881 14 226 15.1193 226 16.5V51H221V16.5Z" fill="#3D8BFD"/>
<path d="M242 35.5C242 34.1193 243.119 33 244.5 33C245.881 33 247 34.1193 247 35.5V51H242V35.5Z" fill="#3D8BFD"/>
<path d="M173 63.5C173 64.8807 174.119 66 175.5 66C176.881 66 178 64.8807 178 63.5V50H173V63.5Z" fill="#DC3545"/>
<path d="M59 57.5C59 58.8807 60.1193 60 61.5 60C62.8807 60 64 58.8807 64 57.5V50H59V57.5Z" fill="#E35D6A"/>
</svg>
